<?xml version="1.0" standalone="no"?>
<!DOCTYPE svg PUBLIC "-//W3C//DTD SVG 20010904//EN"
 "http://www.w3.org/TR/2001/REC-SVG-20010904/DTD/svg10.dtd">
<svg version="1.0" xmlns="http://www.w3.org/2000/svg"
 width="700.000000pt" height="700.000000pt" viewBox="0 0 700.000000 700.000000"
 preserveAspectRatio="xMidYMid meet">
<metadata>
Created by potrace 1.14, written by Peter Selinger 2001-2017
</metadata>
<g transform="translate(0.000000,700.000000) scale(0.100000,-0.100000)"
fill="#000000" stroke="none">
<path d="M823 5563 c-6 -2 -42 -82 -78 -176 -37 -95 -71 -181 -76 -192 -5 -11
-83 -211 -173 -445 -198 -514 -218 -565 -273 -704 -29 -74 -40 -113 -33 -121
7 -8 56 -11 161 -11 l151 1 79 225 c44 124 88 250 98 280 63 184 142 404 146
408 3 3 7 3 8 1 4 -4 56 -152 134 -374 19 -55 45 -129 58 -165 13 -36 47 -130
75 -210 29 -80 56 -150 61 -156 11 -14 294 -13 308 1 6 6 -104 300 -306 820
-173 446 -318 813 -321 816 -4 4 -12 5 -19 2z"/>
<path d="M1549 5554 c-5 -7 -9 -156 -8 -358 l0 -346 158 0 158 0 0 350 c0 242
-4 353 -11 358 -19 12 -287 8 -297 -4z"/>
<path d="M2490 5555 c-4 -5 -8 -228 -8 -495 -1 -267 -1 -495 -1 -508 l-1 -23
-452 1 c-249 1 -461 2 -471 1 -16 -1 -17 -21 -16 -306 0 -225 4 -305 12 -306
31 -4 274 -5 288 -1 14 3 17 22 17 130 0 70 1 138 1 152 l1 25 305 0 c167 -1
307 -4 311 -8 4 -3 7 -70 6 -147 0 -97 3 -142 11 -147 17 -11 280 -12 293 -1
14 10 17 1607 3 1629 -10 17 -285 21 -299 4z"/>
<path d="M2870 5560 c-14 -9 -10 -1638 4 -1643 19 -7 280 -2 292 6 8 5 11 134
10 466 0 252 2 457 6 455 4 -3 44 -78 89 -167 45 -89 85 -166 89 -172 4 -5 65
-122 135 -260 70 -137 133 -253 139 -258 6 -4 71 -6 145 -5 l134 3 206 412
c113 226 209 415 213 419 4 3 7 -101 7 -232 0 -132 0 -246 0 -256 1 -14 18
-16 156 -16 l155 1 0 622 c0 489 -3 624 -12 627 -11 4 -258 3 -288 -1 -11 -1
-52 -84 -215 -436 -97 -210 -113 -245 -219 -468 -31 -65 -56 -120 -56 -122 0
-2 -20 -45 -45 -96 l-44 -93 -172 349 c-94 193 -227 465 -296 604 -68 140
-126 257 -129 260 -7 7 -293 8 -304 1z"/>
<path d="M4750 5555 c-10 -13 -10 -1617 1 -1630 5 -7 137 -10 386 -9 208 1
381 2 384 3 8 2 5 288 -3 297 -4 4 -109 7 -233 7 -201 -1 -225 1 -226 16 -3
56 0 342 4 348 3 5 151 8 329 7 220 0 325 3 330 10 11 16 10 274 -1 281 -6 3
-156 6 -335 6 -249 0 -326 2 -327 12 -4 85 0 349 5 355 4 4 105 8 224 8 120 1
222 2 228 3 7 1 10 51 10 148 l-1 148 -383 0 c-245 0 -387 -4 -392 -10z"/>
<path d="M5788 5559 c-16 -10 -14 -259 3 -270 7 -4 229 -7 493 -6 l481 2 3
138 c1 75 -1 138 -5 138 -31 5 -967 3 -975 -2z"/>
<path d="M6119 4961 c0 -3 0 -237 -1 -520 0 -371 3 -515 11 -520 9 -6 264 -8
294 -2 4 0 7 237 7 524 l0 524 -155 0 c-85 0 -155 -3 -156 -6z"/>
<path d="M1030 2680 l-85 -5 -3 -129 c-1 -72 2 -134 7 -139 7 -7 759 -13 954
-8 l27 1 0 135 c0 99 -3 137 -12 140 -18 7 -785 11 -888 5z"/>
<path d="M3060 2683 c-63 -2 -124 -5 -135 -8 -20 -4 -20 -12 -19 -562 2 -590
1 -611 -45 -669 -50 -63 -137 -102 -241 -108 -139 -7 -252 54 -304 164 -20 43
-21 60 -23 440 -1 217 -2 405 -3 418 0 22 -1 22 -155 22 l-155 0 0 -427 c1
-350 4 -440 17 -498 47 -211 220 -366 463 -412 47 -10 224 -9 281 0 184 29
356 149 425 295 51 108 53 140 51 761 -2 564 -2 574 -22 580 -11 3 -72 5 -135
4z"/>
<path d="M3325 2680 l-40 -5 -3 -621 c-2 -586 -1 -622 15 -626 15 -3 251 -2
288 1 7 1 11 112 10 341 0 187 3 339 7 338 6 -3 108 -146 258 -363 23 -33 141
-202 262 -375 121 -173 223 -321 225 -327 6 -15 289 -19 311 -5 10 7 12 178
10 823 l-3 814 -151 3 c-151 2 -152 2 -156 -20 -3 -13 -5 -258 -4 -546 1 -434
-1 -519 -12 -505 -26 35 -537 764 -552 787 -8 13 -46 68 -85 122 -38 55 -79
113 -90 129 -21 30 -21 30 -135 35 -63 3 -133 3 -155 0z"/>
<path d="M5757 2684 c-1 -1 -65 -4 -142 -7 -120 -5 -171 -12 -320 -41 -51 -10
-186 -70 -244 -108 -128 -83 -212 -193 -262 -343 -39 -116 -44 -156 -43 -345
1 -184 17 -265 74 -385 99 -207 324 -360 591 -400 19 -3 52 -8 74 -11 65 -10
505 -17 506 -7 5 26 4 293 -1 294 -3 1 -115 2 -250 3 -262 2 -325 11 -436 62
-162 74 -259 266 -247 489 16 310 204 483 535 494 l88 3 2 -184 3 -183 155 0
155 0 0 323 c0 178 -2 327 -5 332 -4 7 -225 20 -233 14z"/>
<path d="M1284 2075 c-2 -5 -3 -242 -2 -525 l3 -515 144 -3 c79 -1 148 2 155
7 8 7 11 149 9 518 -1 279 -2 513 -2 518 -1 6 -59 10 -152 10 -92 0 -153 -4
-155 -10z"/>
</g>
</svg>
