<svg xmlns="http://www.w3.org/2000/svg" xmlns:xlink="http://www.w3.org/1999/xlink" width="500" zoomAndPan="magnify" viewBox="0 0 375 374.999991" height="500" preserveAspectRatio="xMidYMid meet" version="1.0"><defs><g/><clipPath id="id1"><path d="M 93.75 93.75 L 281.25 93.75 L 281.25 281.25 L 93.75 281.25 Z M 93.75 93.75 " clip-rule="nonzero"/></clipPath><clipPath id="id2"><path d="M 93.75 94 L 281.25 94 L 281.25 281.25 L 93.75 281.25 Z M 93.75 94 " clip-rule="nonzero"/></clipPath></defs><g clip-path="url(#id1)"><path fill="#151515" d="M 187.5 93.75 C 189.035156 93.75 190.566406 93.789062 192.101562 93.863281 C 193.632812 93.9375 195.164062 94.050781 196.6875 94.203125 C 198.214844 94.351562 199.738281 94.539062 201.257812 94.765625 C 202.773438 94.988281 204.285156 95.253906 205.789062 95.550781 C 207.292969 95.851562 208.792969 96.1875 210.28125 96.558594 C 211.769531 96.933594 213.246094 97.339844 214.714844 97.785156 C 216.183594 98.230469 217.640625 98.714844 219.082031 99.230469 C 220.527344 99.746094 221.960938 100.300781 223.375 100.886719 C 224.792969 101.472656 226.195312 102.09375 227.582031 102.75 C 228.96875 103.40625 230.339844 104.097656 231.695312 104.820312 C 233.046875 105.542969 234.382812 106.300781 235.695312 107.089844 C 237.011719 107.875 238.308594 108.699219 239.585938 109.550781 C 240.859375 110.402344 242.113281 111.285156 243.347656 112.199219 C 244.578125 113.113281 245.789062 114.058594 246.972656 115.03125 C 248.160156 116.003906 249.320312 117.003906 250.457031 118.035156 C 251.59375 119.066406 252.707031 120.125 253.792969 121.207031 C 254.875 122.292969 255.933594 123.40625 256.964844 124.542969 C 257.996094 125.679688 258.996094 126.839844 259.96875 128.027344 C 260.941406 129.210938 261.886719 130.421875 262.800781 131.652344 C 263.714844 132.886719 264.597656 134.140625 265.449219 135.414062 C 266.300781 136.691406 267.125 137.988281 267.910156 139.304688 C 268.699219 140.617188 269.457031 141.953125 270.179688 143.304688 C 270.902344 144.660156 271.59375 146.03125 272.25 147.417969 C 272.90625 148.804688 273.527344 150.207031 274.113281 151.625 C 274.699219 153.039062 275.253906 154.472656 275.769531 155.917969 C 276.285156 157.359375 276.769531 158.816406 277.214844 160.285156 C 277.660156 161.753906 278.066406 163.230469 278.441406 164.71875 C 278.8125 166.207031 279.148438 167.707031 279.449219 169.210938 C 279.746094 170.714844 280.011719 172.226562 280.234375 173.742188 C 280.460938 175.261719 280.648438 176.785156 280.796875 178.3125 C 280.949219 179.835938 281.0625 181.367188 281.136719 182.898438 C 281.210938 184.433594 281.25 185.964844 281.25 187.5 C 281.25 189.035156 281.210938 190.566406 281.136719 192.101562 C 281.0625 193.632812 280.949219 195.164062 280.796875 196.6875 C 280.648438 198.214844 280.460938 199.738281 280.234375 201.257812 C 280.011719 202.773438 279.746094 204.285156 279.449219 205.789062 C 279.148438 207.292969 278.8125 208.792969 278.441406 210.28125 C 278.066406 211.769531 277.660156 213.246094 277.214844 214.714844 C 276.769531 216.183594 276.285156 217.640625 275.769531 219.082031 C 275.253906 220.527344 274.699219 221.960938 274.113281 223.375 C 273.527344 224.792969 272.90625 226.195312 272.25 227.582031 C 271.59375 228.96875 270.902344 230.339844 270.179688 231.695312 C 269.457031 233.046875 268.699219 234.382812 267.910156 235.695312 C 267.125 237.011719 266.300781 238.308594 265.449219 239.585938 C 264.597656 240.859375 263.714844 242.113281 262.800781 243.347656 C 261.886719 244.578125 260.941406 245.789062 259.96875 246.972656 C 258.996094 248.160156 257.996094 249.320312 256.964844 250.457031 C 255.933594 251.59375 254.875 252.707031 253.792969 253.792969 C 252.707031 254.875 251.59375 255.933594 250.457031 256.964844 C 249.320312 257.996094 248.160156 258.996094 246.972656 259.96875 C 245.789062 260.941406 244.578125 261.886719 243.347656 262.800781 C 242.113281 263.714844 240.859375 264.597656 239.585938 265.449219 C 238.308594 266.300781 237.011719 267.125 235.695312 267.910156 C 234.382812 268.699219 233.046875 269.457031 231.695312 270.179688 C 230.339844 270.902344 228.96875 271.59375 227.582031 272.25 C 226.195312 272.90625 224.792969 273.527344 223.375 274.113281 C 221.960938 274.699219 220.527344 275.253906 219.082031 275.769531 C 217.640625 276.285156 216.183594 276.769531 214.714844 277.214844 C 213.246094 277.660156 211.769531 278.066406 210.28125 278.441406 C 208.792969 278.8125 207.292969 279.148438 205.789062 279.449219 C 204.285156 279.746094 202.773438 280.011719 201.257812 280.234375 C 199.738281 280.460938 198.214844 280.648438 196.6875 280.796875 C 195.164062 280.949219 193.632812 281.0625 192.101562 281.136719 C 190.566406 281.210938 189.035156 281.25 187.5 281.25 C 185.964844 281.25 184.433594 281.210938 182.898438 281.136719 C 181.367188 281.0625 179.835938 280.949219 178.3125 280.796875 C 176.785156 280.648438 175.261719 280.460938 173.742188 280.234375 C 172.226562 280.011719 170.714844 279.746094 169.210938 279.449219 C 167.707031 279.148438 166.207031 278.8125 164.71875 278.441406 C 163.230469 278.066406 161.753906 277.660156 160.285156 277.214844 C 158.816406 276.769531 157.359375 276.285156 155.917969 275.769531 C 154.472656 275.253906 153.039062 274.699219 151.625 274.113281 C 150.207031 273.527344 148.804688 272.90625 147.417969 272.25 C 146.03125 271.59375 144.660156 270.902344 143.304688 270.179688 C 141.953125 269.457031 140.617188 268.699219 139.304688 267.910156 C 137.988281 267.125 136.691406 266.300781 135.414062 265.449219 C 134.140625 264.597656 132.886719 263.714844 131.652344 262.800781 C 130.421875 261.886719 129.210938 260.941406 128.027344 259.96875 C 126.839844 258.996094 125.679688 257.996094 124.542969 256.964844 C 123.40625 255.933594 122.292969 254.875 121.207031 253.792969 C 120.125 252.707031 119.066406 251.59375 118.035156 250.457031 C 117.003906 249.320312 116.003906 248.160156 115.03125 246.972656 C 114.058594 245.789062 113.113281 244.578125 112.199219 243.347656 C 111.285156 242.113281 110.402344 240.859375 109.550781 239.585938 C 108.699219 238.308594 107.875 237.011719 107.089844 235.695312 C 106.300781 234.382812 105.542969 233.046875 104.820312 231.695312 C 104.097656 230.339844 103.40625 228.96875 102.75 227.582031 C 102.09375 226.195312 101.472656 224.792969 100.886719 223.375 C 100.300781 221.960938 99.746094 220.527344 99.230469 219.082031 C 98.714844 217.640625 98.230469 216.183594 97.785156 214.714844 C 97.339844 213.246094 96.933594 211.769531 96.558594 210.28125 C 96.1875 208.792969 95.851562 207.292969 95.550781 205.789062 C 95.253906 204.285156 94.988281 202.773438 94.765625 201.257812 C 94.539062 199.738281 94.351562 198.214844 94.203125 196.6875 C 94.050781 195.164062 93.9375 193.632812 93.863281 192.101562 C 93.789062 190.566406 93.75 189.035156 93.75 187.5 C 93.75 185.964844 93.789062 184.433594 93.863281 182.898438 C 93.9375 181.367188 94.050781 179.835938 94.203125 178.3125 C 94.351562 176.785156 94.539062 175.261719 94.765625 173.742188 C 94.988281 172.226562 95.253906 170.714844 95.550781 169.210938 C 95.851562 167.707031 96.1875 166.207031 96.558594 164.71875 C 96.933594 163.230469 97.339844 161.753906 97.785156 160.285156 C 98.230469 158.816406 98.714844 157.359375 99.230469 155.917969 C 99.746094 154.472656 100.300781 153.039062 100.886719 151.625 C 101.472656 150.207031 102.09375 148.804688 102.75 147.417969 C 103.40625 146.03125 104.097656 144.660156 104.820312 143.304688 C 105.542969 141.953125 106.300781 140.617188 107.089844 139.304688 C 107.875 137.988281 108.699219 136.691406 109.550781 135.414062 C 110.402344 134.140625 111.285156 132.886719 112.199219 131.652344 C 113.113281 130.421875 114.058594 129.210938 115.03125 128.027344 C 116.003906 126.839844 117.003906 125.679688 118.035156 124.542969 C 119.066406 123.40625 120.125 122.292969 121.207031 121.207031 C 122.292969 120.125 123.40625 119.066406 124.542969 118.035156 C 125.679688 117.003906 126.839844 116.003906 128.027344 115.03125 C 129.210938 114.058594 130.421875 113.113281 131.652344 112.199219 C 132.886719 111.285156 134.140625 110.402344 135.414062 109.550781 C 136.691406 108.699219 137.988281 107.875 139.304688 107.089844 C 140.617188 106.300781 141.953125 105.542969 143.304688 104.820312 C 144.660156 104.097656 146.03125 103.40625 147.417969 102.75 C 148.804688 102.09375 150.207031 101.472656 151.625 100.886719 C 153.039062 100.300781 154.472656 99.746094 155.917969 99.230469 C 157.359375 98.714844 158.816406 98.230469 160.285156 97.785156 C 161.753906 97.339844 163.230469 96.933594 164.71875 96.558594 C 166.207031 96.1875 167.707031 95.851562 169.210938 95.550781 C 170.714844 95.253906 172.226562 94.988281 173.742188 94.765625 C 175.261719 94.539062 176.785156 94.351562 178.3125 94.203125 C 179.835938 94.050781 181.367188 93.9375 182.898438 93.863281 C 184.433594 93.789062 185.964844 93.75 187.5 93.75 L 187.5 120 C 186.394531 120 185.292969 120.027344 184.1875 120.082031 C 183.085938 120.136719 181.984375 120.214844 180.882812 120.324219 C 179.785156 120.433594 178.6875 120.570312 177.59375 120.730469 C 176.503906 120.894531 175.414062 121.082031 174.332031 121.296875 C 173.246094 121.511719 172.171875 121.753906 171.097656 122.023438 C 170.027344 122.292969 168.960938 122.585938 167.90625 122.90625 C 166.847656 123.226562 165.800781 123.574219 164.761719 123.945312 C 163.71875 124.316406 162.691406 124.714844 161.667969 125.136719 C 160.648438 125.5625 159.636719 126.007812 158.640625 126.480469 C 157.640625 126.953125 156.65625 127.449219 155.679688 127.96875 C 154.707031 128.492188 153.746094 129.035156 152.796875 129.601562 C 151.851562 130.171875 150.917969 130.761719 150 131.375 C 149.082031 131.988281 148.175781 132.625 147.289062 133.285156 C 146.402344 133.941406 145.53125 134.621094 144.679688 135.320312 C 143.824219 136.023438 142.988281 136.742188 142.167969 137.484375 C 141.351562 138.226562 140.550781 138.988281 139.769531 139.769531 C 138.988281 140.550781 138.226562 141.351562 137.484375 142.167969 C 136.742188 142.988281 136.023438 143.824219 135.320312 144.679688 C 134.621094 145.53125 133.941406 146.402344 133.285156 147.289062 C 132.625 148.175781 131.988281 149.082031 131.375 150 C 130.761719 150.917969 130.171875 151.851562 129.601562 152.796875 C 129.035156 153.746094 128.492188 154.707031 127.96875 155.679688 C 127.449219 156.65625 126.953125 157.640625 126.480469 158.640625 C 126.007812 159.636719 125.5625 160.648438 125.136719 161.667969 C 124.714844 162.691406 124.316406 163.71875 123.945312 164.761719 C 123.574219 165.800781 123.226562 166.847656 122.90625 167.90625 C 122.585938 168.964844 122.292969 170.027344 122.023438 171.097656 C 121.753906 172.171875 121.511719 173.246094 121.296875 174.332031 C 121.082031 175.414062 120.894531 176.503906 120.730469 177.59375 C 120.570312 178.6875 120.433594 179.785156 120.324219 180.882812 C 120.214844 181.984375 120.136719 183.085938 120.082031 184.1875 C 120.027344 185.292969 120 186.394531 120 187.5 C 120 188.605469 120.027344 189.707031 120.082031 190.8125 C 120.136719 191.914062 120.214844 193.015625 120.324219 194.117188 C 120.433594 195.214844 120.570312 196.3125 120.730469 197.402344 C 120.894531 198.496094 121.082031 199.585938 121.296875 200.667969 C 121.511719 201.753906 121.753906 202.828125 122.023438 203.902344 C 122.292969 204.972656 122.585938 206.035156 122.90625 207.09375 C 123.226562 208.152344 123.574219 209.199219 123.945312 210.238281 C 124.316406 211.28125 124.714844 212.308594 125.136719 213.332031 C 125.5625 214.351562 126.007812 215.359375 126.480469 216.359375 C 126.953125 217.359375 127.449219 218.34375 127.96875 219.320312 C 128.492188 220.292969 129.035156 221.253906 129.601562 222.203125 C 130.171875 223.148438 130.761719 224.082031 131.375 225 C 131.988281 225.917969 132.625 226.824219 133.285156 227.710938 C 133.941406 228.597656 134.621094 229.46875 135.320312 230.320312 C 136.023438 231.175781 136.742188 232.011719 137.484375 232.832031 C 138.226562 233.648438 138.988281 234.449219 139.769531 235.230469 C 140.550781 236.011719 141.351562 236.773438 142.167969 237.515625 C 142.988281 238.257812 143.824219 238.976562 144.679688 239.679688 C 145.53125 240.378906 146.402344 241.058594 147.289062 241.714844 C 148.175781 242.375 149.082031 243.011719 150 243.625 C 150.917969 244.238281 151.851562 244.828125 152.796875 245.398438 C 153.746094 245.964844 154.707031 246.507812 155.679688 247.03125 C 156.65625 247.550781 157.640625 248.046875 158.640625 248.519531 C 159.636719 248.992188 160.648438 249.4375 161.667969 249.863281 C 162.691406 250.285156 163.71875 250.683594 164.761719 251.054688 C 165.800781 251.425781 166.847656 251.773438 167.90625 252.09375 C 168.964844 252.414062 170.027344 252.707031 171.097656 252.976562 C 172.171875 253.246094 173.246094 253.488281 174.332031 253.703125 C 175.414062 253.917969 176.503906 254.105469 177.59375 254.269531 C 178.6875 254.429688 179.785156 254.566406 180.882812 254.675781 C 181.984375 254.785156 183.085938 254.863281 184.1875 254.917969 C 185.292969 254.972656 186.394531 255 187.5 255 C 188.605469 255 189.707031 254.972656 190.8125 254.917969 C 191.914062 254.863281 193.015625 254.785156 194.117188 254.675781 C 195.214844 254.566406 196.3125 254.429688 197.402344 254.269531 C 198.496094 254.105469 199.585938 253.917969 200.667969 253.703125 C 201.753906 253.488281 202.828125 253.246094 203.902344 252.976562 C 204.972656 252.707031 206.035156 252.414062 207.09375 252.09375 C 208.152344 251.773438 209.199219 251.425781 210.238281 251.054688 C 211.28125 250.683594 212.308594 250.285156 213.332031 249.863281 C 214.351562 249.4375 215.359375 248.992188 216.359375 248.519531 C 217.359375 248.046875 218.34375 247.550781 219.320312 247.03125 C 220.292969 246.507812 221.253906 245.964844 222.203125 245.398438 C 223.148438 244.828125 224.082031 244.238281 225 243.625 C 225.917969 243.011719 226.824219 242.375 227.710938 241.714844 C 228.597656 241.058594 229.46875 240.378906 230.320312 239.679688 C 231.175781 238.976562 232.011719 238.257812 232.832031 237.515625 C 233.648438 236.773438 234.449219 236.011719 235.230469 235.230469 C 236.011719 234.449219 236.773438 233.648438 237.515625 232.832031 C 238.257812 232.011719 238.976562 231.175781 239.679688 230.320312 C 240.378906 229.46875 241.058594 228.597656 241.714844 227.710938 C 242.375 226.824219 243.011719 225.917969 243.625 225 C 244.238281 224.082031 244.828125 223.148438 245.398438 222.203125 C 245.964844 221.253906 246.507812 220.292969 247.03125 219.320312 C 247.550781 218.34375 248.046875 217.359375 248.519531 216.359375 C 248.992188 215.359375 249.4375 214.351562 249.863281 213.332031 C 250.285156 212.308594 250.683594 211.28125 251.054688 210.238281 C 251.425781 209.199219 251.773438 208.152344 252.09375 207.09375 C 252.414062 206.035156 252.707031 204.972656 252.976562 203.902344 C 253.246094 202.828125 253.488281 201.753906 253.703125 200.667969 C 253.917969 199.585938 254.105469 198.496094 254.269531 197.402344 C 254.429688 196.3125 254.566406 195.214844 254.675781 194.117188 C 254.785156 193.015625 254.863281 191.914062 254.917969 190.8125 C 254.972656 189.707031 255 188.605469 255 187.5 C 255 186.394531 254.972656 185.292969 254.917969 184.1875 C 254.863281 183.085938 254.785156 181.984375 254.675781 180.882812 C 254.566406 179.785156 254.429688 178.6875 254.269531 177.59375 C 254.105469 176.503906 253.917969 175.414062 253.703125 174.332031 C 253.488281 173.246094 253.246094 172.171875 252.976562 171.097656 C 252.707031 170.027344 252.414062 168.960938 252.09375 167.90625 C 251.773438 166.847656 251.425781 165.800781 251.054688 164.761719 C 250.683594 163.71875 250.285156 162.691406 249.863281 161.667969 C 249.4375 160.648438 248.992188 159.636719 248.519531 158.640625 C 248.046875 157.640625 247.550781 156.65625 247.03125 155.679688 C 246.507812 154.707031 245.964844 153.746094 245.398438 152.796875 C 244.828125 151.851562 244.238281 150.917969 243.625 150 C 243.011719 149.082031 242.375 148.175781 241.714844 147.289062 C 241.058594 146.402344 240.378906 145.53125 239.679688 144.679688 C 238.976562 143.824219 238.257812 142.988281 237.515625 142.167969 C 236.773438 141.351562 236.011719 140.550781 235.230469 139.769531 C 234.449219 138.988281 233.648438 138.226562 232.832031 137.484375 C 232.011719 136.742188 231.175781 136.023438 230.320312 135.320312 C 229.46875 134.621094 228.597656 133.941406 227.710938 133.285156 C 226.824219 132.625 225.917969 131.988281 225 131.375 C 224.082031 130.761719 223.148438 130.171875 222.203125 129.601562 C 221.253906 129.035156 220.292969 128.492188 219.320312 127.96875 C 218.34375 127.449219 217.359375 126.953125 216.359375 126.480469 C 215.359375 126.007812 214.351562 125.5625 213.332031 125.136719 C 212.308594 124.714844 211.28125 124.316406 210.238281 123.945312 C 209.199219 123.574219 208.152344 123.226562 207.09375 122.90625 C 206.035156 122.585938 204.972656 122.292969 203.902344 122.023438 C 202.828125 121.753906 201.753906 121.511719 200.667969 121.296875 C 199.585938 121.082031 198.496094 120.894531 197.402344 120.730469 C 196.3125 120.570312 195.214844 120.433594 194.117188 120.324219 C 193.015625 120.214844 191.914062 120.136719 190.8125 120.082031 C 189.707031 120.027344 188.605469 120 187.5 120 Z M 187.5 93.75 " fill-opacity="1" fill-rule="nonzero"/></g><g clip-path="url(#id2)"><path fill="#6ce5e8" d="M 202.761719 95 C 204.472656 95.28125 206.175781 95.613281 207.867188 95.988281 C 209.5625 96.367188 211.242188 96.789062 212.914062 97.261719 C 214.582031 97.730469 216.238281 98.246094 217.878906 98.808594 C 219.519531 99.371094 221.144531 99.976562 222.753906 100.628906 C 224.359375 101.28125 225.949219 101.980469 227.515625 102.71875 C 229.085938 103.460938 230.632812 104.242188 232.160156 105.070312 C 233.683594 105.898438 235.183594 106.765625 236.664062 107.675781 C 238.140625 108.582031 239.589844 109.535156 241.015625 110.523438 C 242.4375 111.515625 243.835938 112.542969 245.203125 113.609375 C 246.570312 114.679688 247.90625 115.785156 249.210938 116.925781 C 250.515625 118.066406 251.789062 119.246094 253.03125 120.457031 C 254.273438 121.671875 255.476562 122.917969 256.648438 124.195312 C 257.820312 125.476562 258.957031 126.785156 260.054688 128.128906 C 261.152344 129.472656 262.214844 130.84375 263.234375 132.246094 C 264.257812 133.644531 265.242188 135.074219 266.183594 136.53125 C 267.128906 137.988281 268.03125 139.46875 268.890625 140.972656 C 269.75 142.480469 270.570312 144.007812 271.347656 145.558594 C 272.121094 147.113281 272.855469 148.683594 273.542969 150.277344 C 274.230469 151.867188 274.875 153.476562 275.476562 155.105469 C 276.074219 156.734375 276.628906 158.378906 277.136719 160.035156 C 277.644531 161.695312 278.105469 163.367188 278.523438 165.050781 C 278.9375 166.734375 279.304688 168.429688 279.628906 170.132812 C 279.949219 171.839844 280.222656 173.550781 280.449219 175.269531 C 280.675781 176.992188 280.855469 178.714844 280.984375 180.445312 C 281.113281 182.175781 281.195312 183.90625 281.230469 185.640625 C 281.265625 187.375 281.253906 189.109375 281.191406 190.84375 C 281.128906 192.578125 281.019531 194.308594 280.859375 196.035156 C 280.703125 197.761719 280.496094 199.484375 280.242188 201.203125 C 279.988281 202.917969 279.6875 204.625 279.339844 206.324219 C 278.992188 208.023438 278.597656 209.710938 278.15625 211.390625 C 277.714844 213.066406 277.226562 214.730469 276.691406 216.382812 C 276.15625 218.03125 275.574219 219.667969 274.949219 221.285156 C 274.324219 222.902344 273.65625 224.503906 272.941406 226.082031 C 272.226562 227.664062 271.472656 229.226562 270.671875 230.765625 C 269.871094 232.300781 269.027344 233.816406 268.140625 235.308594 C 267.257812 236.804688 266.332031 238.269531 265.367188 239.710938 C 264.398438 241.152344 263.394531 242.5625 262.351562 243.949219 C 261.304688 245.335938 260.222656 246.6875 259.105469 248.015625 C 257.984375 249.339844 256.828125 250.632812 255.636719 251.894531 C 254.445312 253.152344 253.21875 254.378906 251.960938 255.574219 C 250.699219 256.765625 249.410156 257.921875 248.085938 259.042969 C 246.761719 260.164062 245.40625 261.25 244.023438 262.292969 C 242.640625 263.339844 241.226562 264.347656 239.789062 265.316406 C 238.347656 266.28125 236.882812 267.207031 235.390625 268.09375 C 233.898438 268.980469 232.382812 269.824219 230.847656 270.628906 C 229.308594 271.429688 227.75 272.1875 226.167969 272.902344 C 224.589844 273.621094 222.988281 274.289062 221.371094 274.917969 C 219.753906 275.542969 218.121094 276.125 216.46875 276.660156 C 214.820312 277.199219 213.15625 277.6875 211.480469 278.132812 C 209.804688 278.574219 208.113281 278.972656 206.414062 279.320312 C 204.714844 279.671875 203.007812 279.972656 201.292969 280.230469 C 199.578125 280.484375 197.855469 280.691406 196.128906 280.851562 C 194.402344 281.011719 192.671875 281.125 190.9375 281.1875 C 189.203125 281.25 187.46875 281.265625 185.734375 281.234375 C 184 281.199219 182.269531 281.121094 180.539062 280.992188 C 178.808594 280.863281 177.082031 280.6875 175.363281 280.460938 C 173.644531 280.238281 171.929688 279.964844 170.226562 279.644531 C 168.519531 279.324219 166.824219 278.957031 165.140625 278.542969 C 163.457031 278.128906 161.785156 277.671875 160.125 277.164062 C 158.464844 276.65625 156.820312 276.105469 155.191406 275.507812 C 153.566406 274.910156 151.953125 274.265625 150.359375 273.578125 C 148.769531 272.894531 147.195312 272.160156 145.644531 271.386719 C 144.089844 270.613281 142.5625 269.796875 141.054688 268.9375 C 139.546875 268.078125 138.066406 267.175781 136.609375 266.234375 C 135.152344 265.292969 133.722656 264.3125 132.320312 263.289062 C 130.917969 262.269531 129.542969 261.210938 128.199219 260.113281 C 126.855469 259.015625 125.546875 257.882812 124.265625 256.710938 C 122.984375 255.542969 121.734375 254.335938 120.523438 253.097656 C 119.308594 251.859375 118.128906 250.585938 116.988281 249.28125 C 115.84375 247.976562 114.738281 246.640625 113.667969 245.273438 C 112.597656 243.910156 111.570312 242.515625 110.578125 241.089844 C 109.585938 239.667969 108.632812 238.21875 107.722656 236.742188 C 106.8125 235.265625 105.941406 233.765625 105.113281 232.242188 C 104.285156 230.714844 103.5 229.167969 102.757812 227.601562 C 102.015625 226.035156 101.320312 224.445312 100.664062 222.839844 C 100.011719 221.230469 99.402344 219.609375 98.839844 217.96875 C 98.273438 216.328125 97.757812 214.671875 97.285156 213.003906 C 96.8125 211.332031 96.386719 209.652344 96.011719 207.960938 C 95.632812 206.265625 95.300781 204.566406 95.015625 202.851562 C 94.730469 201.140625 94.496094 199.425781 94.304688 197.699219 C 94.117188 195.976562 93.976562 194.246094 93.882812 192.515625 C 93.792969 190.78125 93.746094 189.046875 93.75 187.3125 C 93.753906 185.578125 93.804688 183.847656 93.90625 182.113281 C 94.003906 180.382812 94.152344 178.652344 94.347656 176.929688 C 94.542969 175.207031 94.785156 173.488281 95.078125 171.78125 C 95.367188 170.070312 95.707031 168.367188 96.089844 166.675781 C 96.476562 164.984375 96.910156 163.304688 97.386719 161.640625 C 97.867188 159.972656 98.390625 158.320312 98.960938 156.679688 C 99.53125 155.042969 100.144531 153.421875 100.804688 151.816406 C 101.46875 150.210938 102.171875 148.628906 102.917969 147.0625 C 103.667969 145.496094 104.457031 143.953125 105.292969 142.433594 C 106.125 140.910156 107.003906 139.414062 107.917969 137.941406 C 108.835938 136.46875 109.792969 135.023438 110.789062 133.605469 C 111.789062 132.183594 112.824219 130.792969 113.898438 129.433594 C 114.972656 128.070312 116.085938 126.738281 117.234375 125.4375 C 118.382812 124.140625 119.566406 122.871094 120.785156 121.636719 C 121.390625 121.023438 122.046875 120.476562 122.761719 119.992188 C 123.476562 119.507812 124.230469 119.097656 125.023438 118.765625 C 125.816406 118.429688 126.636719 118.175781 127.480469 118 C 128.324219 117.828125 129.175781 117.738281 130.039062 117.734375 C 130.902344 117.726562 131.753906 117.804688 132.601562 117.96875 C 133.449219 118.132812 134.269531 118.375 135.066406 118.699219 C 135.867188 119.023438 136.625 119.425781 137.34375 119.898438 C 138.066406 120.371094 138.730469 120.910156 139.34375 121.515625 C 139.957031 122.121094 140.507812 122.78125 140.988281 123.496094 C 141.472656 124.210938 141.882812 124.964844 142.21875 125.757812 C 142.550781 126.550781 142.804688 127.371094 142.980469 128.214844 C 143.152344 129.058594 143.242188 129.910156 143.25 130.773438 C 143.253906 131.636719 143.175781 132.488281 143.011719 133.335938 C 142.851562 134.183594 142.605469 135.003906 142.28125 135.800781 C 141.957031 136.601562 141.558594 137.359375 141.082031 138.078125 C 140.609375 138.800781 140.070312 139.464844 139.464844 140.078125 C 138.585938 140.96875 137.734375 141.878906 136.90625 142.816406 C 136.082031 143.753906 135.28125 144.710938 134.507812 145.691406 C 133.734375 146.671875 132.988281 147.671875 132.269531 148.695312 C 131.550781 149.71875 130.863281 150.757812 130.203125 151.820312 C 129.542969 152.878906 128.910156 153.957031 128.3125 155.050781 C 127.710938 156.148438 127.140625 157.257812 126.601562 158.386719 C 126.0625 159.511719 125.554688 160.652344 125.082031 161.808594 C 124.605469 162.960938 124.164062 164.128906 123.75 165.308594 C 123.339844 166.488281 122.964844 167.679688 122.617188 168.878906 C 122.273438 170.082031 121.964844 171.289062 121.6875 172.507812 C 121.410156 173.726562 121.164062 174.949219 120.957031 176.179688 C 120.746094 177.414062 120.570312 178.648438 120.429688 179.890625 C 120.289062 181.132812 120.183594 182.375 120.113281 183.621094 C 120.039062 184.867188 120.003906 186.117188 120 187.367188 C 119.996094 188.613281 120.03125 189.863281 120.097656 191.109375 C 120.164062 192.359375 120.265625 193.601562 120.402344 194.84375 C 120.535156 196.085938 120.707031 197.320312 120.910156 198.554688 C 121.117188 199.785156 121.355469 201.011719 121.628906 202.230469 C 121.898438 203.449219 122.207031 204.660156 122.546875 205.863281 C 122.886719 207.0625 123.257812 208.253906 123.664062 209.4375 C 124.070312 210.617188 124.507812 211.789062 124.980469 212.945312 C 125.449219 214.101562 125.953125 215.242188 126.488281 216.375 C 127.019531 217.503906 127.585938 218.617188 128.183594 219.714844 C 128.777344 220.8125 129.40625 221.890625 130.0625 222.953125 C 130.714844 224.015625 131.402344 225.058594 132.117188 226.085938 C 132.828125 227.109375 133.570312 228.113281 134.339844 229.097656 C 135.109375 230.082031 135.90625 231.042969 136.730469 231.984375 C 137.554688 232.921875 138.402344 233.839844 139.277344 234.730469 C 140.148438 235.621094 141.046875 236.488281 141.96875 237.332031 C 142.890625 238.175781 143.835938 238.992188 144.804688 239.78125 C 145.773438 240.570312 146.761719 241.335938 147.769531 242.070312 C 148.78125 242.804688 149.808594 243.511719 150.859375 244.1875 C 151.90625 244.867188 152.972656 245.515625 154.058594 246.132812 C 155.144531 246.753906 156.246094 247.339844 157.363281 247.898438 C 158.480469 248.457031 159.613281 248.984375 160.761719 249.476562 C 161.90625 249.972656 163.066406 250.433594 164.238281 250.867188 C 165.410156 251.296875 166.59375 251.695312 167.789062 252.058594 C 168.984375 252.421875 170.1875 252.753906 171.402344 253.050781 C 172.613281 253.351562 173.835938 253.613281 175.0625 253.84375 C 176.289062 254.074219 177.523438 254.269531 178.761719 254.433594 C 180 254.59375 181.242188 254.722656 182.488281 254.8125 C 183.734375 254.90625 184.980469 254.964844 186.230469 254.988281 C 187.476562 255.011719 188.726562 255 189.972656 254.953125 C 191.222656 254.910156 192.46875 254.828125 193.710938 254.714844 C 194.957031 254.597656 196.195312 254.449219 197.429688 254.265625 C 198.667969 254.082031 199.894531 253.863281 201.121094 253.613281 C 202.34375 253.359375 203.558594 253.074219 204.765625 252.753906 C 205.972656 252.433594 207.171875 252.082031 208.359375 251.695312 C 209.546875 251.308594 210.722656 250.890625 211.886719 250.441406 C 213.050781 249.988281 214.203125 249.507812 215.339844 248.992188 C 216.480469 248.476562 217.601562 247.929688 218.710938 247.351562 C 219.816406 246.773438 220.90625 246.167969 221.980469 245.527344 C 223.054688 244.890625 224.109375 244.222656 225.148438 243.527344 C 226.183594 242.828125 227.199219 242.105469 228.195312 241.351562 C 229.191406 240.597656 230.167969 239.820312 231.121094 239.011719 C 232.074219 238.203125 233.003906 237.371094 233.910156 236.511719 C 234.816406 235.652344 235.699219 234.769531 236.558594 233.863281 C 237.417969 232.953125 238.25 232.023438 239.054688 231.070312 C 239.859375 230.117188 240.640625 229.140625 241.390625 228.144531 C 242.144531 227.144531 242.867188 226.128906 243.5625 225.089844 C 244.257812 224.054688 244.925781 222.996094 245.5625 221.921875 C 246.199219 220.847656 246.804688 219.757812 247.382812 218.648438 C 247.960938 217.542969 248.503906 216.417969 249.019531 215.28125 C 249.53125 214.140625 250.015625 212.988281 250.464844 211.824219 C 250.914062 210.660156 251.332031 209.484375 251.71875 208.296875 C 252.101562 207.105469 252.453125 205.910156 252.773438 204.699219 C 253.089844 203.492188 253.375 202.277344 253.625 201.054688 C 253.875 199.832031 254.09375 198.601562 254.273438 197.363281 C 254.457031 196.128906 254.605469 194.890625 254.71875 193.644531 C 254.832031 192.402344 254.914062 191.15625 254.957031 189.90625 C 255 188.660156 255.011719 187.410156 254.988281 186.160156 C 254.960938 184.914062 254.902344 183.667969 254.808594 182.421875 C 254.714844 181.175781 254.585938 179.933594 254.421875 178.695312 C 254.261719 177.457031 254.0625 176.222656 253.832031 174.996094 C 253.601562 173.769531 253.335938 172.546875 253.035156 171.335938 C 252.738281 170.125 252.40625 168.921875 252.039062 167.726562 C 251.671875 166.53125 251.273438 165.347656 250.84375 164.175781 C 250.410156 163.003906 249.945312 161.84375 249.449219 160.699219 C 248.957031 159.550781 248.429688 158.421875 247.867188 157.304688 C 247.308594 156.1875 246.722656 155.085938 246.101562 154 C 245.480469 152.917969 244.832031 151.851562 244.152344 150.800781 C 243.472656 149.753906 242.765625 148.726562 242.03125 147.714844 C 241.292969 146.707031 240.53125 145.71875 239.738281 144.753906 C 238.949219 143.785156 238.132812 142.84375 237.289062 141.921875 C 236.445312 141 235.574219 140.101562 234.683594 139.230469 C 233.789062 138.355469 232.871094 137.507812 231.933594 136.6875 C 230.992188 135.863281 230.03125 135.070312 229.046875 134.300781 C 228.0625 133.53125 227.054688 132.789062 226.03125 132.078125 C 225.003906 131.363281 223.960938 130.679688 222.898438 130.027344 C 221.832031 129.371094 220.753906 128.746094 219.652344 128.152344 C 218.554688 127.554688 217.441406 126.992188 216.3125 126.457031 C 215.183594 125.925781 214.039062 125.421875 212.882812 124.953125 C 211.726562 124.484375 210.554688 124.046875 209.375 123.640625 C 208.191406 123.238281 207 122.867188 205.796875 122.527344 C 204.59375 122.1875 203.386719 121.882812 202.164062 121.613281 C 200.945312 121.339844 199.722656 121.105469 198.488281 120.902344 C 197.636719 120.761719 196.808594 120.539062 196.003906 120.234375 C 195.195312 119.929688 194.425781 119.550781 193.695312 119.097656 C 192.964844 118.640625 192.28125 118.121094 191.652344 117.53125 C 191.023438 116.941406 190.460938 116.296875 189.957031 115.597656 C 189.457031 114.894531 189.027344 114.152344 188.671875 113.367188 C 188.316406 112.582031 188.039062 111.769531 187.84375 110.933594 C 187.648438 110.09375 187.535156 109.242188 187.507812 108.382812 C 187.480469 107.519531 187.535156 106.664062 187.675781 105.8125 C 187.816406 104.964844 188.039062 104.136719 188.339844 103.328125 C 188.644531 102.523438 189.023438 101.753906 189.476562 101.019531 C 189.933594 100.289062 190.457031 99.609375 191.042969 98.980469 C 191.632812 98.351562 192.277344 97.785156 192.980469 97.28125 C 193.679688 96.78125 194.421875 96.351562 195.207031 95.996094 C 195.992188 95.640625 196.804688 95.363281 197.644531 95.167969 C 198.484375 94.972656 199.332031 94.859375 200.195312 94.832031 C 201.054688 94.804688 201.910156 94.859375 202.761719 95 Z M 202.761719 95 " fill-opacity="1" fill-rule="nonzero"/></g><g fill="#ffffff" fill-opacity="1"><g transform="translate(142.968745, 202.874987)"><g><path d="M 22.640625 -15.921875 C 22.640625 -10.671875 21.679688 -6.628906 19.765625 -3.796875 C 17.847656 -0.972656 15.113281 0.4375 11.5625 0.4375 C 9.164062 0.4375 7.25 -0.0625 5.8125 -1.0625 C 4.375 -2.070312 3.34375 -3.703125 2.71875 -5.953125 L 6.453125 -6.546875 C 7.234375 -3.992188 8.957031 -2.71875 11.625 -2.71875 C 13.875 -2.71875 15.613281 -3.757812 16.84375 -5.84375 C 18.070312 -7.925781 18.71875 -10.90625 18.78125 -14.78125 C 18.195312 -13.46875 17.203125 -12.414062 15.796875 -11.625 C 14.390625 -10.84375 12.847656 -10.453125 11.171875 -10.453125 C 8.421875 -10.453125 6.21875 -11.390625 4.5625 -13.265625 C 2.914062 -15.148438 2.09375 -17.648438 2.09375 -20.765625 C 2.09375 -23.972656 2.988281 -26.492188 4.78125 -28.328125 C 6.570312 -30.160156 9.070312 -31.078125 12.28125 -31.078125 C 15.6875 -31.078125 18.265625 -29.816406 20.015625 -27.296875 C 21.765625 -24.773438 22.640625 -20.984375 22.640625 -15.921875 Z M 18.375 -19.703125 C 18.375 -22.171875 17.8125 -24.15625 16.6875 -25.65625 C 15.5625 -27.15625 14.046875 -27.90625 12.140625 -27.90625 C 10.265625 -27.90625 8.78125 -27.257812 7.6875 -25.96875 C 6.601562 -24.6875 6.0625 -22.953125 6.0625 -20.765625 C 6.0625 -18.535156 6.601562 -16.769531 7.6875 -15.46875 C 8.78125 -14.175781 10.253906 -13.53125 12.109375 -13.53125 C 13.234375 -13.53125 14.28125 -13.785156 15.25 -14.296875 C 16.21875 -14.816406 16.976562 -15.546875 17.53125 -16.484375 C 18.09375 -17.429688 18.375 -18.503906 18.375 -19.703125 Z M 18.375 -19.703125 "/></g></g></g><g fill="#ffffff" fill-opacity="1"><g transform="translate(167.715356, 202.874987)"><g><path d="M 23.015625 -15.3125 C 23.015625 -10.207031 22.109375 -6.304688 20.296875 -3.609375 C 18.492188 -0.910156 15.832031 0.4375 12.3125 0.4375 C 8.800781 0.4375 6.160156 -0.898438 4.390625 -3.578125 C 2.617188 -6.265625 1.734375 -10.175781 1.734375 -15.3125 C 1.734375 -20.570312 2.59375 -24.515625 4.3125 -27.140625 C 6.03125 -29.765625 8.742188 -31.078125 12.453125 -31.078125 C 16.054688 -31.078125 18.71875 -29.75 20.4375 -27.09375 C 22.15625 -24.445312 23.015625 -20.519531 23.015625 -15.3125 Z M 19.03125 -15.3125 C 19.03125 -19.738281 18.519531 -22.941406 17.5 -24.921875 C 16.476562 -26.910156 14.796875 -27.90625 12.453125 -27.90625 C 10.046875 -27.90625 8.316406 -26.925781 7.265625 -24.96875 C 6.210938 -23.007812 5.6875 -19.789062 5.6875 -15.3125 C 5.6875 -10.96875 6.21875 -7.789062 7.28125 -5.78125 C 8.351562 -3.769531 10.046875 -2.765625 12.359375 -2.765625 C 14.660156 -2.765625 16.347656 -3.789062 17.421875 -5.84375 C 18.492188 -7.90625 19.03125 -11.0625 19.03125 -15.3125 Z M 19.03125 -15.3125 "/></g></g></g><g fill="#ffffff" fill-opacity="1"><g transform="translate(192.461966, 202.874987)"><g><path d="M 37.984375 -9.4375 C 37.984375 -6.320312 37.394531 -3.925781 36.21875 -2.25 C 35.050781 -0.570312 33.320312 0.265625 31.03125 0.265625 C 28.769531 0.265625 27.0625 -0.546875 25.90625 -2.171875 C 24.757812 -3.804688 24.1875 -6.226562 24.1875 -9.4375 C 24.1875 -12.738281 24.738281 -15.195312 25.84375 -16.8125 C 26.957031 -18.425781 28.710938 -19.234375 31.109375 -19.234375 C 33.484375 -19.234375 35.222656 -18.398438 36.328125 -16.734375 C 37.429688 -15.078125 37.984375 -12.644531 37.984375 -9.4375 Z M 11.453125 0 L 8.078125 0 L 28.109375 -30.609375 L 31.53125 -30.609375 Z M 8.5625 -30.875 C 10.863281 -30.875 12.570312 -30.0625 13.6875 -28.4375 C 14.800781 -26.820312 15.359375 -24.40625 15.359375 -21.1875 C 15.359375 -18.039062 14.78125 -15.617188 13.625 -13.921875 C 12.476562 -12.234375 10.757812 -11.390625 8.46875 -11.390625 C 6.1875 -11.390625 4.46875 -12.226562 3.3125 -13.90625 C 2.164062 -15.582031 1.59375 -18.007812 1.59375 -21.1875 C 1.59375 -24.414062 2.148438 -26.835938 3.265625 -28.453125 C 4.378906 -30.066406 6.144531 -30.875 8.5625 -30.875 Z M 34.765625 -9.4375 C 34.765625 -12.019531 34.484375 -13.894531 33.921875 -15.0625 C 33.367188 -16.226562 32.429688 -16.8125 31.109375 -16.8125 C 29.796875 -16.8125 28.84375 -16.238281 28.25 -15.09375 C 27.664062 -13.957031 27.375 -12.070312 27.375 -9.4375 C 27.375 -6.957031 27.660156 -5.117188 28.234375 -3.921875 C 28.804688 -2.722656 29.753906 -2.125 31.078125 -2.125 C 32.347656 -2.125 33.28125 -2.726562 33.875 -3.9375 C 34.46875 -5.15625 34.765625 -6.988281 34.765625 -9.4375 Z M 12.171875 -21.1875 C 12.171875 -23.738281 11.894531 -25.597656 11.34375 -26.765625 C 10.789062 -27.941406 9.863281 -28.53125 8.5625 -28.53125 C 7.195312 -28.53125 6.222656 -27.953125 5.640625 -26.796875 C 5.066406 -25.648438 4.78125 -23.78125 4.78125 -21.1875 C 4.78125 -18.675781 5.066406 -16.820312 5.640625 -15.625 C 6.222656 -14.4375 7.179688 -13.84375 8.515625 -13.84375 C 9.773438 -13.84375 10.695312 -14.445312 11.28125 -15.65625 C 11.875 -16.875 12.171875 -18.71875 12.171875 -21.1875 Z M 12.171875 -21.1875 "/></g></g></g></svg>