<svg xmlns="http://www.w3.org/2000/svg" xmlns:xlink="http://www.w3.org/1999/xlink" width="500" zoomAndPan="magnify" viewBox="0 0 375 374.999991" height="500" preserveAspectRatio="xMidYMid meet" version="1.0"><defs><g/><clipPath id="id1"><path d="M 93.75 93.75 L 281.25 93.75 L 281.25 281.25 L 93.75 281.25 Z M 93.75 93.75 " clip-rule="nonzero"/></clipPath><clipPath id="id2"><path d="M 117 94 L 281.25 94 L 281.25 281.25 L 117 281.25 Z M 117 94 " clip-rule="nonzero"/></clipPath></defs><g clip-path="url(#id1)"><path fill="#151515" d="M 187.5 93.75 C 189.035156 93.75 190.566406 93.789062 192.101562 93.863281 C 193.632812 93.9375 195.164062 94.050781 196.6875 94.203125 C 198.214844 94.351562 199.738281 94.539062 201.257812 94.765625 C 202.773438 94.988281 204.285156 95.253906 205.789062 95.550781 C 207.292969 95.851562 208.792969 96.1875 210.28125 96.558594 C 211.769531 96.933594 213.246094 97.339844 214.714844 97.785156 C 216.183594 98.230469 217.640625 98.714844 219.082031 99.230469 C 220.527344 99.746094 221.960938 100.300781 223.375 100.886719 C 224.792969 101.472656 226.195312 102.09375 227.582031 102.75 C 228.96875 103.40625 230.339844 104.097656 231.695312 104.820312 C 233.046875 105.542969 234.382812 106.300781 235.695312 107.089844 C 237.011719 107.875 238.308594 108.699219 239.585938 109.550781 C 240.859375 110.402344 242.113281 111.285156 243.347656 112.199219 C 244.578125 113.113281 245.789062 114.058594 246.972656 115.03125 C 248.160156 116.003906 249.320312 117.003906 250.457031 118.035156 C 251.59375 119.066406 252.707031 120.125 253.792969 121.207031 C 254.875 122.292969 255.933594 123.40625 256.964844 124.542969 C 257.996094 125.679688 258.996094 126.839844 259.96875 128.027344 C 260.941406 129.210938 261.886719 130.421875 262.800781 131.652344 C 263.714844 132.886719 264.597656 134.140625 265.449219 135.414062 C 266.300781 136.691406 267.125 137.988281 267.910156 139.304688 C 268.699219 140.617188 269.457031 141.953125 270.179688 143.304688 C 270.902344 144.660156 271.59375 146.03125 272.25 147.417969 C 272.90625 148.804688 273.527344 150.207031 274.113281 151.625 C 274.699219 153.039062 275.253906 154.472656 275.769531 155.917969 C 276.285156 157.359375 276.769531 158.816406 277.214844 160.285156 C 277.660156 161.753906 278.066406 163.230469 278.441406 164.71875 C 278.8125 166.207031 279.148438 167.707031 279.449219 169.210938 C 279.746094 170.714844 280.011719 172.226562 280.234375 173.742188 C 280.460938 175.261719 280.648438 176.785156 280.796875 178.3125 C 280.949219 179.835938 281.0625 181.367188 281.136719 182.898438 C 281.210938 184.433594 281.25 185.964844 281.25 187.5 C 281.25 189.035156 281.210938 190.566406 281.136719 192.101562 C 281.0625 193.632812 280.949219 195.164062 280.796875 196.6875 C 280.648438 198.214844 280.460938 199.738281 280.234375 201.257812 C 280.011719 202.773438 279.746094 204.285156 279.449219 205.789062 C 279.148438 207.292969 278.8125 208.792969 278.441406 210.28125 C 278.066406 211.769531 277.660156 213.246094 277.214844 214.714844 C 276.769531 216.183594 276.285156 217.640625 275.769531 219.082031 C 275.253906 220.527344 274.699219 221.960938 274.113281 223.375 C 273.527344 224.792969 272.90625 226.195312 272.25 227.582031 C 271.59375 228.96875 270.902344 230.339844 270.179688 231.695312 C 269.457031 233.046875 268.699219 234.382812 267.910156 235.695312 C 267.125 237.011719 266.300781 238.308594 265.449219 239.585938 C 264.597656 240.859375 263.714844 242.113281 262.800781 243.347656 C 261.886719 244.578125 260.941406 245.789062 259.96875 246.972656 C 258.996094 248.160156 257.996094 249.320312 256.964844 250.457031 C 255.933594 251.59375 254.875 252.707031 253.792969 253.792969 C 252.707031 254.875 251.59375 255.933594 250.457031 256.964844 C 249.320312 257.996094 248.160156 258.996094 246.972656 259.96875 C 245.789062 260.941406 244.578125 261.886719 243.347656 262.800781 C 242.113281 263.714844 240.859375 264.597656 239.585938 265.449219 C 238.308594 266.300781 237.011719 267.125 235.695312 267.910156 C 234.382812 268.699219 233.046875 269.457031 231.695312 270.179688 C 230.339844 270.902344 228.96875 271.59375 227.582031 272.25 C 226.195312 272.90625 224.792969 273.527344 223.375 274.113281 C 221.960938 274.699219 220.527344 275.253906 219.082031 275.769531 C 217.640625 276.285156 216.183594 276.769531 214.714844 277.214844 C 213.246094 277.660156 211.769531 278.066406 210.28125 278.441406 C 208.792969 278.8125 207.292969 279.148438 205.789062 279.449219 C 204.285156 279.746094 202.773438 280.011719 201.257812 280.234375 C 199.738281 280.460938 198.214844 280.648438 196.6875 280.796875 C 195.164062 280.949219 193.632812 281.0625 192.101562 281.136719 C 190.566406 281.210938 189.035156 281.25 187.5 281.25 C 185.964844 281.25 184.433594 281.210938 182.898438 281.136719 C 181.367188 281.0625 179.835938 280.949219 178.3125 280.796875 C 176.785156 280.648438 175.261719 280.460938 173.742188 280.234375 C 172.226562 280.011719 170.714844 279.746094 169.210938 279.449219 C 167.707031 279.148438 166.207031 278.8125 164.71875 278.441406 C 163.230469 278.066406 161.753906 277.660156 160.285156 277.214844 C 158.816406 276.769531 157.359375 276.285156 155.917969 275.769531 C 154.472656 275.253906 153.039062 274.699219 151.625 274.113281 C 150.207031 273.527344 148.804688 272.90625 147.417969 272.25 C 146.03125 271.59375 144.660156 270.902344 143.304688 270.179688 C 141.953125 269.457031 140.617188 268.699219 139.304688 267.910156 C 137.988281 267.125 136.691406 266.300781 135.414062 265.449219 C 134.140625 264.597656 132.886719 263.714844 131.652344 262.800781 C 130.421875 261.886719 129.210938 260.941406 128.027344 259.96875 C 126.839844 258.996094 125.679688 257.996094 124.542969 256.964844 C 123.40625 255.933594 122.292969 254.875 121.207031 253.792969 C 120.125 252.707031 119.066406 251.59375 118.035156 250.457031 C 117.003906 249.320312 116.003906 248.160156 115.03125 246.972656 C 114.058594 245.789062 113.113281 244.578125 112.199219 243.347656 C 111.285156 242.113281 110.402344 240.859375 109.550781 239.585938 C 108.699219 238.308594 107.875 237.011719 107.089844 235.695312 C 106.300781 234.382812 105.542969 233.046875 104.820312 231.695312 C 104.097656 230.339844 103.40625 228.96875 102.75 227.582031 C 102.09375 226.195312 101.472656 224.792969 100.886719 223.375 C 100.300781 221.960938 99.746094 220.527344 99.230469 219.082031 C 98.714844 217.640625 98.230469 216.183594 97.785156 214.714844 C 97.339844 213.246094 96.933594 211.769531 96.558594 210.28125 C 96.1875 208.792969 95.851562 207.292969 95.550781 205.789062 C 95.253906 204.285156 94.988281 202.773438 94.765625 201.257812 C 94.539062 199.738281 94.351562 198.214844 94.203125 196.6875 C 94.050781 195.164062 93.9375 193.632812 93.863281 192.101562 C 93.789062 190.566406 93.75 189.035156 93.75 187.5 C 93.75 185.964844 93.789062 184.433594 93.863281 182.898438 C 93.9375 181.367188 94.050781 179.835938 94.203125 178.3125 C 94.351562 176.785156 94.539062 175.261719 94.765625 173.742188 C 94.988281 172.226562 95.253906 170.714844 95.550781 169.210938 C 95.851562 167.707031 96.1875 166.207031 96.558594 164.71875 C 96.933594 163.230469 97.339844 161.753906 97.785156 160.285156 C 98.230469 158.816406 98.714844 157.359375 99.230469 155.917969 C 99.746094 154.472656 100.300781 153.039062 100.886719 151.625 C 101.472656 150.207031 102.09375 148.804688 102.75 147.417969 C 103.40625 146.03125 104.097656 144.660156 104.820312 143.304688 C 105.542969 141.953125 106.300781 140.617188 107.089844 139.304688 C 107.875 137.988281 108.699219 136.691406 109.550781 135.414062 C 110.402344 134.140625 111.285156 132.886719 112.199219 131.652344 C 113.113281 130.421875 114.058594 129.210938 115.03125 128.027344 C 116.003906 126.839844 117.003906 125.679688 118.035156 124.542969 C 119.066406 123.40625 120.125 122.292969 121.207031 121.207031 C 122.292969 120.125 123.40625 119.066406 124.542969 118.035156 C 125.679688 117.003906 126.839844 116.003906 128.027344 115.03125 C 129.210938 114.058594 130.421875 113.113281 131.652344 112.199219 C 132.886719 111.285156 134.140625 110.402344 135.414062 109.550781 C 136.691406 108.699219 137.988281 107.875 139.304688 107.089844 C 140.617188 106.300781 141.953125 105.542969 143.304688 104.820312 C 144.660156 104.097656 146.03125 103.40625 147.417969 102.75 C 148.804688 102.09375 150.207031 101.472656 151.625 100.886719 C 153.039062 100.300781 154.472656 99.746094 155.917969 99.230469 C 157.359375 98.714844 158.816406 98.230469 160.285156 97.785156 C 161.753906 97.339844 163.230469 96.933594 164.71875 96.558594 C 166.207031 96.1875 167.707031 95.851562 169.210938 95.550781 C 170.714844 95.253906 172.226562 94.988281 173.742188 94.765625 C 175.261719 94.539062 176.785156 94.351562 178.3125 94.203125 C 179.835938 94.050781 181.367188 93.9375 182.898438 93.863281 C 184.433594 93.789062 185.964844 93.75 187.5 93.75 L 187.5 120 C 186.394531 120 185.292969 120.027344 184.1875 120.082031 C 183.085938 120.136719 181.984375 120.214844 180.882812 120.324219 C 179.785156 120.433594 178.6875 120.570312 177.59375 120.730469 C 176.503906 120.894531 175.414062 121.082031 174.332031 121.296875 C 173.246094 121.511719 172.171875 121.753906 171.097656 122.023438 C 170.027344 122.292969 168.960938 122.585938 167.90625 122.90625 C 166.847656 123.226562 165.800781 123.574219 164.761719 123.945312 C 163.71875 124.316406 162.691406 124.714844 161.667969 125.136719 C 160.648438 125.5625 159.636719 126.007812 158.640625 126.480469 C 157.640625 126.953125 156.65625 127.449219 155.679688 127.96875 C 154.707031 128.492188 153.746094 129.035156 152.796875 129.601562 C 151.851562 130.171875 150.917969 130.761719 150 131.375 C 149.082031 131.988281 148.175781 132.625 147.289062 133.285156 C 146.402344 133.941406 145.53125 134.621094 144.679688 135.320312 C 143.824219 136.023438 142.988281 136.742188 142.167969 137.484375 C 141.351562 138.226562 140.550781 138.988281 139.769531 139.769531 C 138.988281 140.550781 138.226562 141.351562 137.484375 142.167969 C 136.742188 142.988281 136.023438 143.824219 135.320312 144.679688 C 134.621094 145.53125 133.941406 146.402344 133.285156 147.289062 C 132.625 148.175781 131.988281 149.082031 131.375 150 C 130.761719 150.917969 130.171875 151.851562 129.601562 152.796875 C 129.035156 153.746094 128.492188 154.707031 127.96875 155.679688 C 127.449219 156.65625 126.953125 157.640625 126.480469 158.640625 C 126.007812 159.636719 125.5625 160.648438 125.136719 161.667969 C 124.714844 162.691406 124.316406 163.71875 123.945312 164.761719 C 123.574219 165.800781 123.226562 166.847656 122.90625 167.90625 C 122.585938 168.964844 122.292969 170.027344 122.023438 171.097656 C 121.753906 172.171875 121.511719 173.246094 121.296875 174.332031 C 121.082031 175.414062 120.894531 176.503906 120.730469 177.59375 C 120.570312 178.6875 120.433594 179.785156 120.324219 180.882812 C 120.214844 181.984375 120.136719 183.085938 120.082031 184.1875 C 120.027344 185.292969 120 186.394531 120 187.5 C 120 188.605469 120.027344 189.707031 120.082031 190.8125 C 120.136719 191.914062 120.214844 193.015625 120.324219 194.117188 C 120.433594 195.214844 120.570312 196.3125 120.730469 197.402344 C 120.894531 198.496094 121.082031 199.585938 121.296875 200.667969 C 121.511719 201.753906 121.753906 202.828125 122.023438 203.902344 C 122.292969 204.972656 122.585938 206.035156 122.90625 207.09375 C 123.226562 208.152344 123.574219 209.199219 123.945312 210.238281 C 124.316406 211.28125 124.714844 212.308594 125.136719 213.332031 C 125.5625 214.351562 126.007812 215.359375 126.480469 216.359375 C 126.953125 217.359375 127.449219 218.34375 127.96875 219.320312 C 128.492188 220.292969 129.035156 221.253906 129.601562 222.203125 C 130.171875 223.148438 130.761719 224.082031 131.375 225 C 131.988281 225.917969 132.625 226.824219 133.285156 227.710938 C 133.941406 228.597656 134.621094 229.46875 135.320312 230.320312 C 136.023438 231.175781 136.742188 232.011719 137.484375 232.832031 C 138.226562 233.648438 138.988281 234.449219 139.769531 235.230469 C 140.550781 236.011719 141.351562 236.773438 142.167969 237.515625 C 142.988281 238.257812 143.824219 238.976562 144.679688 239.679688 C 145.53125 240.378906 146.402344 241.058594 147.289062 241.714844 C 148.175781 242.375 149.082031 243.011719 150 243.625 C 150.917969 244.238281 151.851562 244.828125 152.796875 245.398438 C 153.746094 245.964844 154.707031 246.507812 155.679688 247.03125 C 156.65625 247.550781 157.640625 248.046875 158.640625 248.519531 C 159.636719 248.992188 160.648438 249.4375 161.667969 249.863281 C 162.691406 250.285156 163.71875 250.683594 164.761719 251.054688 C 165.800781 251.425781 166.847656 251.773438 167.90625 252.09375 C 168.964844 252.414062 170.027344 252.707031 171.097656 252.976562 C 172.171875 253.246094 173.246094 253.488281 174.332031 253.703125 C 175.414062 253.917969 176.503906 254.105469 177.59375 254.269531 C 178.6875 254.429688 179.785156 254.566406 180.882812 254.675781 C 181.984375 254.785156 183.085938 254.863281 184.1875 254.917969 C 185.292969 254.972656 186.394531 255 187.5 255 C 188.605469 255 189.707031 254.972656 190.8125 254.917969 C 191.914062 254.863281 193.015625 254.785156 194.117188 254.675781 C 195.214844 254.566406 196.3125 254.429688 197.402344 254.269531 C 198.496094 254.105469 199.585938 253.917969 200.667969 253.703125 C 201.753906 253.488281 202.828125 253.246094 203.902344 252.976562 C 204.972656 252.707031 206.035156 252.414062 207.09375 252.09375 C 208.152344 251.773438 209.199219 251.425781 210.238281 251.054688 C 211.28125 250.683594 212.308594 250.285156 213.332031 249.863281 C 214.351562 249.4375 215.359375 248.992188 216.359375 248.519531 C 217.359375 248.046875 218.34375 247.550781 219.320312 247.03125 C 220.292969 246.507812 221.253906 245.964844 222.203125 245.398438 C 223.148438 244.828125 224.082031 244.238281 225 243.625 C 225.917969 243.011719 226.824219 242.375 227.710938 241.714844 C 228.597656 241.058594 229.46875 240.378906 230.320312 239.679688 C 231.175781 238.976562 232.011719 238.257812 232.832031 237.515625 C 233.648438 236.773438 234.449219 236.011719 235.230469 235.230469 C 236.011719 234.449219 236.773438 233.648438 237.515625 232.832031 C 238.257812 232.011719 238.976562 231.175781 239.679688 230.320312 C 240.378906 229.46875 241.058594 228.597656 241.714844 227.710938 C 242.375 226.824219 243.011719 225.917969 243.625 225 C 244.238281 224.082031 244.828125 223.148438 245.398438 222.203125 C 245.964844 221.253906 246.507812 220.292969 247.03125 219.320312 C 247.550781 218.34375 248.046875 217.359375 248.519531 216.359375 C 248.992188 215.359375 249.4375 214.351562 249.863281 213.332031 C 250.285156 212.308594 250.683594 211.28125 251.054688 210.238281 C 251.425781 209.199219 251.773438 208.152344 252.09375 207.09375 C 252.414062 206.035156 252.707031 204.972656 252.976562 203.902344 C 253.246094 202.828125 253.488281 201.753906 253.703125 200.667969 C 253.917969 199.585938 254.105469 198.496094 254.269531 197.402344 C 254.429688 196.3125 254.566406 195.214844 254.675781 194.117188 C 254.785156 193.015625 254.863281 191.914062 254.917969 190.8125 C 254.972656 189.707031 255 188.605469 255 187.5 C 255 186.394531 254.972656 185.292969 254.917969 184.1875 C 254.863281 183.085938 254.785156 181.984375 254.675781 180.882812 C 254.566406 179.785156 254.429688 178.6875 254.269531 177.59375 C 254.105469 176.503906 253.917969 175.414062 253.703125 174.332031 C 253.488281 173.246094 253.246094 172.171875 252.976562 171.097656 C 252.707031 170.027344 252.414062 168.960938 252.09375 167.90625 C 251.773438 166.847656 251.425781 165.800781 251.054688 164.761719 C 250.683594 163.71875 250.285156 162.691406 249.863281 161.667969 C 249.4375 160.648438 248.992188 159.636719 248.519531 158.640625 C 248.046875 157.640625 247.550781 156.65625 247.03125 155.679688 C 246.507812 154.707031 245.964844 153.746094 245.398438 152.796875 C 244.828125 151.851562 244.238281 150.917969 243.625 150 C 243.011719 149.082031 242.375 148.175781 241.714844 147.289062 C 241.058594 146.402344 240.378906 145.53125 239.679688 144.679688 C 238.976562 143.824219 238.257812 142.988281 237.515625 142.167969 C 236.773438 141.351562 236.011719 140.550781 235.230469 139.769531 C 234.449219 138.988281 233.648438 138.226562 232.832031 137.484375 C 232.011719 136.742188 231.175781 136.023438 230.320312 135.320312 C 229.46875 134.621094 228.597656 133.941406 227.710938 133.285156 C 226.824219 132.625 225.917969 131.988281 225 131.375 C 224.082031 130.761719 223.148438 130.171875 222.203125 129.601562 C 221.253906 129.035156 220.292969 128.492188 219.320312 127.96875 C 218.34375 127.449219 217.359375 126.953125 216.359375 126.480469 C 215.359375 126.007812 214.351562 125.5625 213.332031 125.136719 C 212.308594 124.714844 211.28125 124.316406 210.238281 123.945312 C 209.199219 123.574219 208.152344 123.226562 207.09375 122.90625 C 206.035156 122.585938 204.972656 122.292969 203.902344 122.023438 C 202.828125 121.753906 201.753906 121.511719 200.667969 121.296875 C 199.585938 121.082031 198.496094 120.894531 197.402344 120.730469 C 196.3125 120.570312 195.214844 120.433594 194.117188 120.324219 C 193.015625 120.214844 191.914062 120.136719 190.8125 120.082031 C 189.707031 120.027344 188.605469 120 187.5 120 Z M 187.5 93.75 " fill-opacity="1" fill-rule="nonzero"/></g><g clip-path="url(#id2)"><path fill="#6ce5e8" d="M 202.761719 95 C 204.570312 95.300781 206.371094 95.652344 208.164062 96.054688 C 209.953125 96.460938 211.730469 96.917969 213.492188 97.425781 C 215.253906 97.933594 217 98.492188 218.730469 99.105469 C 220.460938 99.714844 222.171875 100.378906 223.863281 101.089844 C 225.554688 101.800781 227.222656 102.5625 228.871094 103.371094 C 230.519531 104.183594 232.140625 105.039062 233.734375 105.945312 C 235.332031 106.847656 236.898438 107.800781 238.441406 108.796875 C 239.980469 109.792969 241.492188 110.835938 242.96875 111.921875 C 244.449219 113.007812 245.894531 114.136719 247.308594 115.304688 C 248.722656 116.476562 250.101562 117.6875 251.441406 118.941406 C 252.785156 120.191406 254.085938 121.480469 255.355469 122.808594 C 256.621094 124.136719 257.847656 125.5 259.03125 126.902344 C 260.21875 128.300781 261.363281 129.734375 262.464844 131.203125 C 263.566406 132.671875 264.625 134.167969 265.636719 135.699219 C 266.652344 137.226562 267.621094 138.785156 268.542969 140.371094 C 269.464844 141.957031 270.339844 143.570312 271.167969 145.207031 C 271.996094 146.84375 272.773438 148.503906 273.503906 150.1875 C 274.234375 151.871094 274.917969 153.574219 275.546875 155.300781 C 276.175781 157.023438 276.757812 158.761719 277.285156 160.519531 C 277.8125 162.277344 278.289062 164.050781 278.710938 165.835938 C 279.136719 167.621094 279.507812 169.417969 279.828125 171.222656 C 280.144531 173.03125 280.410156 174.84375 280.621094 176.667969 C 280.835938 178.492188 280.992188 180.316406 281.097656 182.148438 C 281.203125 183.980469 281.253906 185.816406 281.25 187.652344 C 281.246094 189.484375 281.191406 191.320312 281.078125 193.152344 C 280.96875 194.984375 280.804688 196.808594 280.585938 198.632812 C 280.367188 200.453125 280.097656 202.269531 279.773438 204.074219 C 279.449219 205.878906 279.070312 207.675781 278.640625 209.457031 C 278.210938 211.242188 277.730469 213.011719 277.195312 214.769531 C 276.664062 216.523438 276.078125 218.261719 275.441406 219.984375 C 274.804688 221.707031 274.121094 223.40625 273.386719 225.085938 C 272.648438 226.769531 271.863281 228.425781 271.03125 230.0625 C 270.199219 231.695312 269.320312 233.304688 268.390625 234.890625 C 267.464844 236.472656 266.488281 238.027344 265.472656 239.554688 C 264.453125 241.078125 263.390625 242.574219 262.28125 244.039062 C 261.175781 245.503906 260.027344 246.933594 258.835938 248.328125 C 257.644531 249.726562 256.414062 251.085938 255.144531 252.410156 C 253.875 253.734375 252.566406 255.019531 251.21875 256.265625 C 249.875 257.511719 248.492188 258.71875 247.078125 259.886719 C 245.660156 261.050781 244.210938 262.175781 242.726562 263.257812 C 241.242188 264.335938 239.730469 265.375 238.1875 266.367188 C 236.644531 267.359375 235.070312 268.304688 233.472656 269.203125 C 231.875 270.105469 230.25 270.957031 228.601562 271.761719 C 226.949219 272.566406 225.277344 273.320312 223.585938 274.027344 C 221.890625 274.734375 220.179688 275.390625 218.445312 275.996094 C 216.714844 276.601562 214.964844 277.15625 213.203125 277.65625 C 211.4375 278.160156 209.660156 278.613281 207.867188 279.011719 C 206.078125 279.410156 204.273438 279.753906 202.464844 280.046875 C 200.652344 280.339844 198.832031 280.582031 197.007812 280.765625 C 195.183594 280.953125 193.351562 281.085938 191.519531 281.164062 C 189.6875 281.242188 187.851562 281.265625 186.019531 281.238281 C 184.183594 281.210938 182.351562 281.125 180.519531 280.988281 C 178.691406 280.851562 176.867188 280.664062 175.046875 280.417969 C 173.230469 280.175781 171.417969 279.878906 169.617188 279.527344 C 167.816406 279.179688 166.027344 278.777344 164.25 278.320312 C 162.472656 277.867188 160.707031 277.359375 158.960938 276.800781 C 157.210938 276.242188 155.484375 275.632812 153.769531 274.972656 C 152.058594 274.3125 150.367188 273.601562 148.695312 272.84375 C 147.027344 272.082031 145.378906 271.273438 143.757812 270.417969 C 142.132812 269.5625 140.535156 268.660156 138.96875 267.710938 C 137.398438 266.757812 135.855469 265.765625 134.34375 264.722656 C 132.832031 263.683594 131.351562 262.601562 129.90625 261.472656 C 128.457031 260.34375 127.042969 259.175781 125.664062 257.964844 C 124.285156 256.753906 122.941406 255.507812 121.636719 254.214844 C 121.023438 253.609375 120.476562 252.953125 119.992188 252.238281 C 119.507812 251.523438 119.097656 250.769531 118.765625 249.976562 C 118.429688 249.183594 118.175781 248.363281 118 247.519531 C 117.828125 246.675781 117.738281 245.824219 117.734375 244.960938 C 117.726562 244.097656 117.804688 243.246094 117.96875 242.398438 C 118.132812 241.550781 118.375 240.730469 118.699219 239.933594 C 119.023438 239.132812 119.425781 238.375 119.898438 237.65625 C 120.371094 236.933594 120.910156 236.269531 121.515625 235.65625 C 122.121094 235.042969 122.78125 234.492188 123.496094 234.011719 C 124.210938 233.527344 124.964844 233.117188 125.757812 232.78125 C 126.550781 232.449219 127.371094 232.195312 128.214844 232.019531 C 129.058594 231.847656 129.910156 231.757812 130.773438 231.75 C 131.636719 231.746094 132.488281 231.824219 133.335938 231.988281 C 134.183594 232.148438 135.003906 232.394531 135.800781 232.71875 C 136.601562 233.042969 137.359375 233.441406 138.078125 233.917969 C 138.800781 234.390625 139.464844 234.929688 140.078125 235.535156 C 141.019531 236.464844 141.984375 237.363281 142.980469 238.234375 C 143.972656 239.105469 144.988281 239.949219 146.03125 240.761719 C 147.074219 241.570312 148.140625 242.351562 149.226562 243.101562 C 150.316406 243.851562 151.425781 244.566406 152.554688 245.25 C 153.6875 245.933594 154.835938 246.585938 156.003906 247.203125 C 157.171875 247.816406 158.359375 248.398438 159.5625 248.945312 C 160.765625 249.492188 161.980469 250.003906 163.214844 250.480469 C 164.449219 250.957031 165.691406 251.394531 166.953125 251.796875 C 168.210938 252.199219 169.480469 252.5625 170.757812 252.890625 C 172.039062 253.21875 173.328125 253.507812 174.625 253.761719 C 175.921875 254.011719 177.226562 254.226562 178.535156 254.402344 C 179.84375 254.578125 181.15625 254.714844 182.476562 254.8125 C 183.792969 254.910156 185.113281 254.96875 186.433594 254.992188 C 187.753906 255.011719 189.074219 254.996094 190.394531 254.9375 C 191.714844 254.882812 193.03125 254.785156 194.347656 254.652344 C 195.660156 254.519531 196.96875 254.34375 198.273438 254.132812 C 199.578125 253.921875 200.875 253.675781 202.164062 253.386719 C 203.453125 253.101562 204.734375 252.777344 206.003906 252.414062 C 207.277344 252.050781 208.535156 251.652344 209.78125 251.214844 C 211.027344 250.78125 212.261719 250.308594 213.480469 249.800781 C 214.699219 249.289062 215.90625 248.746094 217.09375 248.167969 C 218.28125 247.589844 219.449219 246.976562 220.601562 246.328125 C 221.75 245.679688 222.882812 244.996094 223.996094 244.285156 C 225.105469 243.570312 226.195312 242.824219 227.261719 242.042969 C 228.332031 241.265625 229.375 240.457031 230.394531 239.617188 C 231.414062 238.777344 232.410156 237.910156 233.378906 237.011719 C 234.347656 236.113281 235.289062 235.1875 236.203125 234.234375 C 237.121094 233.28125 238.003906 232.300781 238.863281 231.296875 C 239.71875 230.292969 240.546875 229.261719 241.34375 228.207031 C 242.140625 227.152344 242.90625 226.078125 243.640625 224.976562 C 244.371094 223.878906 245.074219 222.761719 245.742188 221.621094 C 246.410156 220.480469 247.042969 219.320312 247.644531 218.144531 C 248.242188 216.96875 248.808594 215.773438 249.335938 214.5625 C 249.867188 213.351562 250.359375 212.128906 250.820312 210.886719 C 251.277344 209.648438 251.699219 208.398438 252.082031 207.132812 C 252.464844 205.867188 252.8125 204.59375 253.121094 203.308594 C 253.433594 202.027344 253.703125 200.734375 253.9375 199.433594 C 254.171875 198.132812 254.367188 196.828125 254.523438 195.515625 C 254.679688 194.203125 254.796875 192.886719 254.878906 191.570312 C 254.957031 190.25 254.996094 188.929688 255 187.609375 C 255.003906 186.289062 254.964844 184.96875 254.890625 183.648438 C 254.816406 182.328125 254.699219 181.011719 254.546875 179.699219 C 254.394531 178.390625 254.203125 177.082031 253.976562 175.78125 C 253.746094 174.480469 253.476562 173.1875 253.171875 171.902344 C 252.867188 170.617188 252.523438 169.339844 252.144531 168.074219 C 251.765625 166.808594 251.347656 165.554688 250.894531 164.316406 C 250.441406 163.074219 249.949219 161.847656 249.425781 160.636719 C 248.898438 159.425781 248.335938 158.230469 247.742188 157.050781 C 247.144531 155.871094 246.515625 154.710938 245.851562 153.566406 C 245.1875 152.425781 244.488281 151.304688 243.757812 150.203125 C 243.03125 149.101562 242.269531 148.023438 241.472656 146.964844 C 240.679688 145.910156 239.855469 144.878906 239.003906 143.871094 C 238.148438 142.859375 237.265625 141.878906 236.355469 140.921875 C 235.441406 139.964844 234.503906 139.039062 233.539062 138.136719 C 232.570312 137.234375 231.578125 136.363281 230.5625 135.519531 C 229.546875 134.675781 228.503906 133.867188 227.4375 133.082031 C 226.375 132.300781 225.285156 131.550781 224.175781 130.835938 C 223.066406 130.117188 221.9375 129.429688 220.789062 128.78125 C 219.640625 128.128906 218.472656 127.511719 217.289062 126.929688 C 216.101562 126.34375 214.898438 125.796875 213.683594 125.285156 C 212.464844 124.773438 211.234375 124.296875 209.988281 123.855469 C 208.742188 123.414062 207.484375 123.011719 206.214844 122.644531 C 204.945312 122.28125 203.664062 121.949219 202.375 121.660156 C 201.089844 121.367188 199.792969 121.117188 198.488281 120.902344 C 197.636719 120.761719 196.808594 120.539062 196.003906 120.234375 C 195.195312 119.929688 194.425781 119.550781 193.695312 119.097656 C 192.964844 118.640625 192.28125 118.121094 191.652344 117.53125 C 191.023438 116.941406 190.460938 116.296875 189.957031 115.597656 C 189.457031 114.894531 189.027344 114.152344 188.671875 113.367188 C 188.316406 112.582031 188.039062 111.769531 187.84375 110.933594 C 187.648438 110.09375 187.535156 109.242188 187.507812 108.382812 C 187.480469 107.519531 187.535156 106.664062 187.675781 105.8125 C 187.816406 104.964844 188.039062 104.136719 188.339844 103.328125 C 188.644531 102.523438 189.023438 101.753906 189.476562 101.019531 C 189.933594 100.289062 190.457031 99.609375 191.042969 98.980469 C 191.632812 98.351562 192.277344 97.785156 192.980469 97.28125 C 193.679688 96.78125 194.421875 96.351562 195.207031 95.996094 C 195.992188 95.640625 196.804688 95.363281 197.644531 95.167969 C 198.484375 94.972656 199.332031 94.859375 200.195312 94.832031 C 201.054688 94.804688 201.910156 94.859375 202.761719 95 Z M 202.761719 95 " fill-opacity="1" fill-rule="nonzero"/></g><g fill="#ffffff" fill-opacity="1"><g transform="translate(142.968745, 202.874987)"><g><path d="M 22.796875 -10.015625 C 22.796875 -6.785156 21.914062 -4.234375 20.15625 -2.359375 C 18.40625 -0.492188 15.988281 0.4375 12.90625 0.4375 C 9.457031 0.4375 6.820312 -0.84375 5 -3.40625 C 3.175781 -5.96875 2.265625 -9.703125 2.265625 -14.609375 C 2.265625 -19.898438 3.210938 -23.96875 5.109375 -26.8125 C 7.003906 -29.65625 9.707031 -31.078125 13.21875 -31.078125 C 17.832031 -31.078125 20.742188 -28.992188 21.953125 -24.828125 L 18.203125 -24.15625 C 17.441406 -26.65625 15.765625 -27.90625 13.171875 -27.90625 C 10.941406 -27.90625 9.210938 -26.863281 7.984375 -24.78125 C 6.765625 -22.695312 6.15625 -19.6875 6.15625 -15.75 C 6.863281 -17.070312 7.859375 -18.078125 9.140625 -18.765625 C 10.429688 -19.453125 11.910156 -19.796875 13.578125 -19.796875 C 16.398438 -19.796875 18.640625 -18.910156 20.296875 -17.140625 C 21.960938 -15.378906 22.796875 -13.003906 22.796875 -10.015625 Z M 18.8125 -9.84375 C 18.8125 -12.0625 18.269531 -13.769531 17.1875 -14.96875 C 16.101562 -16.175781 14.585938 -16.78125 12.640625 -16.78125 C 10.816406 -16.78125 9.34375 -16.242188 8.21875 -15.171875 C 7.101562 -14.109375 6.546875 -12.644531 6.546875 -10.78125 C 6.546875 -8.414062 7.125 -6.476562 8.28125 -4.96875 C 9.445312 -3.46875 10.945312 -2.71875 12.78125 -2.71875 C 14.65625 -2.71875 16.128906 -3.347656 17.203125 -4.609375 C 18.273438 -5.878906 18.8125 -7.625 18.8125 -9.84375 Z M 18.8125 -9.84375 "/></g></g></g><g fill="#ffffff" fill-opacity="1"><g transform="translate(167.715356, 202.874987)"><g><path d="M 22.875 -9.96875 C 22.875 -6.738281 21.914062 -4.195312 20 -2.34375 C 18.082031 -0.488281 15.421875 0.4375 12.015625 0.4375 C 9.160156 0.4375 6.859375 -0.179688 5.109375 -1.421875 C 3.359375 -2.671875 2.25 -4.476562 1.78125 -6.84375 L 5.734375 -7.296875 C 6.554688 -4.273438 8.679688 -2.765625 12.109375 -2.765625 C 14.203125 -2.765625 15.84375 -3.394531 17.03125 -4.65625 C 18.21875 -5.925781 18.8125 -7.671875 18.8125 -9.890625 C 18.8125 -11.816406 18.210938 -13.375 17.015625 -14.5625 C 15.828125 -15.75 14.21875 -16.34375 12.1875 -16.34375 C 11.132812 -16.34375 10.148438 -16.175781 9.234375 -15.84375 C 8.316406 -15.507812 7.40625 -14.941406 6.5 -14.140625 L 2.671875 -14.140625 L 3.6875 -30.609375 L 21.09375 -30.609375 L 21.09375 -27.296875 L 7.25 -27.296875 L 6.671875 -17.578125 C 8.367188 -18.878906 10.476562 -19.53125 13 -19.53125 C 16.007812 -19.53125 18.40625 -18.644531 20.1875 -16.875 C 21.976562 -15.113281 22.875 -12.8125 22.875 -9.96875 Z M 22.875 -9.96875 "/></g></g></g><g fill="#ffffff" fill-opacity="1"><g transform="translate(192.461966, 202.874987)"><g><path d="M 37.984375 -9.4375 C 37.984375 -6.320312 37.394531 -3.925781 36.21875 -2.25 C 35.050781 -0.570312 33.320312 0.265625 31.03125 0.265625 C 28.769531 0.265625 27.0625 -0.546875 25.90625 -2.171875 C 24.757812 -3.804688 24.1875 -6.226562 24.1875 -9.4375 C 24.1875 -12.738281 24.738281 -15.195312 25.84375 -16.8125 C 26.957031 -18.425781 28.710938 -19.234375 31.109375 -19.234375 C 33.484375 -19.234375 35.222656 -18.398438 36.328125 -16.734375 C 37.429688 -15.078125 37.984375 -12.644531 37.984375 -9.4375 Z M 11.453125 0 L 8.078125 0 L 28.109375 -30.609375 L 31.53125 -30.609375 Z M 8.5625 -30.875 C 10.863281 -30.875 12.570312 -30.0625 13.6875 -28.4375 C 14.800781 -26.820312 15.359375 -24.40625 15.359375 -21.1875 C 15.359375 -18.039062 14.78125 -15.617188 13.625 -13.921875 C 12.476562 -12.234375 10.757812 -11.390625 8.46875 -11.390625 C 6.1875 -11.390625 4.46875 -12.226562 3.3125 -13.90625 C 2.164062 -15.582031 1.59375 -18.007812 1.59375 -21.1875 C 1.59375 -24.414062 2.148438 -26.835938 3.265625 -28.453125 C 4.378906 -30.066406 6.144531 -30.875 8.5625 -30.875 Z M 34.765625 -9.4375 C 34.765625 -12.019531 34.484375 -13.894531 33.921875 -15.0625 C 33.367188 -16.226562 32.429688 -16.8125 31.109375 -16.8125 C 29.796875 -16.8125 28.84375 -16.238281 28.25 -15.09375 C 27.664062 -13.957031 27.375 -12.070312 27.375 -9.4375 C 27.375 -6.957031 27.660156 -5.117188 28.234375 -3.921875 C 28.804688 -2.722656 29.753906 -2.125 31.078125 -2.125 C 32.347656 -2.125 33.28125 -2.726562 33.875 -3.9375 C 34.46875 -5.15625 34.765625 -6.988281 34.765625 -9.4375 Z M 12.171875 -21.1875 C 12.171875 -23.738281 11.894531 -25.597656 11.34375 -26.765625 C 10.789062 -27.941406 9.863281 -28.53125 8.5625 -28.53125 C 7.195312 -28.53125 6.222656 -27.953125 5.640625 -26.796875 C 5.066406 -25.648438 4.78125 -23.78125 4.78125 -21.1875 C 4.78125 -18.675781 5.066406 -16.820312 5.640625 -15.625 C 6.222656 -14.4375 7.179688 -13.84375 8.515625 -13.84375 C 9.773438 -13.84375 10.695312 -14.445312 11.28125 -15.65625 C 11.875 -16.875 12.171875 -18.71875 12.171875 -21.1875 Z M 12.171875 -21.1875 "/></g></g></g></svg>