<svg xmlns="http://www.w3.org/2000/svg" xmlns:xlink="http://www.w3.org/1999/xlink" width="500" zoomAndPan="magnify" viewBox="0 0 375 374.999991" height="500" preserveAspectRatio="xMidYMid meet" version="1.0"><defs><clipPath id="id1"><path d="M 97.199219 97.199219 L 277.949219 97.199219 L 277.949219 277.949219 L 97.199219 277.949219 Z M 97.199219 97.199219 " clip-rule="nonzero"/></clipPath><clipPath id="id2"><path d="M 277.949219 187.574219 C 277.949219 189.054688 277.914062 190.53125 277.839844 192.007812 C 277.769531 193.488281 277.660156 194.960938 277.515625 196.433594 C 277.371094 197.90625 277.1875 199.371094 276.972656 200.835938 C 276.753906 202.300781 276.503906 203.753906 276.214844 205.207031 C 275.925781 206.65625 275.601562 208.101562 275.242188 209.535156 C 274.882812 210.96875 274.488281 212.394531 274.058594 213.808594 C 273.628906 215.226562 273.164062 216.628906 272.667969 218.023438 C 272.167969 219.414062 271.636719 220.792969 271.070312 222.160156 C 270.503906 223.527344 269.90625 224.878906 269.273438 226.214844 C 268.640625 227.550781 267.976562 228.875 267.277344 230.175781 C 266.582031 231.480469 265.851562 232.769531 265.09375 234.039062 C 264.332031 235.304688 263.539062 236.554688 262.71875 237.785156 C 261.898438 239.015625 261.046875 240.222656 260.164062 241.410156 C 259.285156 242.597656 258.375 243.765625 257.4375 244.910156 C 256.496094 246.050781 255.53125 247.171875 254.539062 248.265625 C 253.546875 249.363281 252.527344 250.433594 251.480469 251.480469 C 250.433594 252.527344 249.363281 253.546875 248.265625 254.539062 C 247.171875 255.53125 246.050781 256.496094 244.910156 257.4375 C 243.765625 258.375 242.597656 259.285156 241.410156 260.164062 C 240.222656 261.046875 239.015625 261.898438 237.785156 262.71875 C 236.554688 263.539062 235.304688 264.332031 234.035156 265.09375 C 232.769531 265.851562 231.480469 266.582031 230.175781 267.277344 C 228.875 267.976562 227.550781 268.640625 226.214844 269.273438 C 224.878906 269.90625 223.527344 270.503906 222.160156 271.070312 C 220.792969 271.636719 219.414062 272.167969 218.019531 272.667969 C 216.628906 273.164062 215.226562 273.628906 213.808594 274.058594 C 212.394531 274.488281 210.96875 274.882812 209.535156 275.242188 C 208.097656 275.601562 206.65625 275.925781 205.207031 276.214844 C 203.753906 276.503906 202.296875 276.753906 200.835938 276.972656 C 199.371094 277.1875 197.90625 277.371094 196.433594 277.515625 C 194.960938 277.660156 193.488281 277.769531 192.007812 277.839844 C 190.53125 277.914062 189.054688 277.949219 187.574219 277.949219 C 186.097656 277.949219 184.617188 277.914062 183.140625 277.839844 C 181.664062 277.769531 180.1875 277.660156 178.714844 277.515625 C 177.246094 277.371094 175.777344 277.1875 174.3125 276.972656 C 172.851562 276.753906 171.394531 276.503906 169.945312 276.214844 C 168.492188 275.925781 167.050781 275.601562 165.617188 275.242188 C 164.179688 274.882812 162.757812 274.488281 161.339844 274.058594 C 159.925781 273.628906 158.519531 273.164062 157.128906 272.667969 C 155.734375 272.167969 154.355469 271.636719 152.988281 271.070312 C 151.625 270.503906 150.273438 269.90625 148.933594 269.273438 C 147.597656 268.640625 146.277344 267.976562 144.972656 267.277344 C 143.667969 266.582031 142.382812 265.851562 141.113281 265.09375 C 139.84375 264.332031 138.59375 263.539062 137.367188 262.71875 C 136.136719 261.898438 134.925781 261.046875 133.738281 260.164062 C 132.550781 259.285156 131.386719 258.375 130.242188 257.4375 C 129.097656 256.496094 127.980469 255.53125 126.882812 254.539062 C 125.785156 253.546875 124.714844 252.527344 123.671875 251.480469 C 122.625 250.433594 121.605469 249.363281 120.613281 248.265625 C 119.617188 247.171875 118.652344 246.050781 117.714844 244.910156 C 116.777344 243.765625 115.867188 242.597656 114.984375 241.410156 C 114.105469 240.222656 113.253906 239.015625 112.429688 237.785156 C 111.609375 236.554688 110.816406 235.304688 110.058594 234.039062 C 109.296875 232.769531 108.570312 231.480469 107.871094 230.175781 C 107.175781 228.875 106.507812 227.550781 105.878906 226.214844 C 105.246094 224.878906 104.644531 223.527344 104.078125 222.160156 C 103.511719 220.792969 102.980469 219.414062 102.484375 218.023438 C 101.984375 216.628906 101.519531 215.226562 101.089844 213.808594 C 100.664062 212.394531 100.269531 210.96875 99.910156 209.535156 C 99.550781 208.101562 99.226562 206.65625 98.9375 205.207031 C 98.648438 203.753906 98.394531 202.300781 98.179688 200.835938 C 97.960938 199.371094 97.78125 197.90625 97.636719 196.433594 C 97.488281 194.960938 97.382812 193.488281 97.308594 192.007812 C 97.234375 190.53125 97.199219 189.054688 97.199219 187.574219 C 97.199219 186.097656 97.234375 184.617188 97.308594 183.140625 C 97.382812 181.664062 97.488281 180.1875 97.636719 178.71875 C 97.78125 177.246094 97.960938 175.777344 98.179688 174.3125 C 98.394531 172.851562 98.648438 171.394531 98.9375 169.945312 C 99.226562 168.492188 99.550781 167.050781 99.910156 165.617188 C 100.269531 164.179688 100.664062 162.757812 101.089844 161.339844 C 101.519531 159.925781 101.984375 158.519531 102.484375 157.128906 C 102.980469 155.734375 103.511719 154.355469 104.078125 152.988281 C 104.644531 151.625 105.246094 150.273438 105.878906 148.933594 C 106.507812 147.597656 107.175781 146.277344 107.871094 144.972656 C 108.570312 143.667969 109.296875 142.382812 110.058594 141.113281 C 110.816406 139.84375 111.609375 138.59375 112.429688 137.367188 C 113.253906 136.136719 114.105469 134.925781 114.984375 133.738281 C 115.867188 132.550781 116.777344 131.386719 117.714844 130.242188 C 118.652344 129.097656 119.617188 127.980469 120.613281 126.882812 C 121.605469 125.785156 122.625 124.714844 123.671875 123.671875 C 124.714844 122.625 125.785156 121.605469 126.882812 120.613281 C 127.980469 119.617188 129.097656 118.652344 130.242188 117.714844 C 131.386719 116.777344 132.550781 115.867188 133.738281 114.984375 C 134.925781 114.105469 136.136719 113.253906 137.367188 112.429688 C 138.59375 111.609375 139.84375 110.816406 141.113281 110.058594 C 142.382812 109.296875 143.667969 108.570312 144.972656 107.871094 C 146.277344 107.175781 147.597656 106.507812 148.933594 105.878906 C 150.273438 105.246094 151.625 104.644531 152.988281 104.078125 C 154.355469 103.511719 155.734375 102.980469 157.128906 102.484375 C 158.519531 101.984375 159.925781 101.519531 161.339844 101.089844 C 162.757812 100.664062 164.179688 100.269531 165.617188 99.910156 C 167.050781 99.550781 168.492188 99.226562 169.945312 98.9375 C 171.394531 98.648438 172.851562 98.394531 174.3125 98.179688 C 175.777344 97.960938 177.246094 97.78125 178.714844 97.636719 C 180.1875 97.492188 181.664062 97.382812 183.140625 97.308594 C 184.617188 97.238281 186.097656 97.199219 187.574219 97.199219 C 189.054688 97.199219 190.53125 97.238281 192.007812 97.308594 C 193.488281 97.382812 194.960938 97.492188 196.433594 97.636719 C 197.90625 97.78125 199.371094 97.960938 200.835938 98.179688 C 202.296875 98.394531 203.753906 98.648438 205.207031 98.9375 C 206.65625 99.226562 208.097656 99.550781 209.535156 99.910156 C 210.96875 100.269531 212.394531 100.664062 213.808594 101.089844 C 215.226562 101.519531 216.628906 101.984375 218.019531 102.484375 C 219.414062 102.980469 220.792969 103.511719 222.160156 104.078125 C 223.527344 104.644531 224.878906 105.246094 226.214844 105.878906 C 227.550781 106.507812 228.875 107.175781 230.175781 107.871094 C 231.480469 108.570312 232.769531 109.296875 234.035156 110.058594 C 235.304688 110.816406 236.554688 111.609375 237.785156 112.429688 C 239.015625 113.253906 240.222656 114.105469 241.410156 114.984375 C 242.597656 115.867188 243.765625 116.777344 244.910156 117.714844 C 246.050781 118.652344 247.171875 119.617188 248.265625 120.613281 C 249.363281 121.605469 250.433594 122.625 251.480469 123.671875 C 252.527344 124.714844 253.546875 125.785156 254.539062 126.882812 C 255.53125 127.980469 256.496094 129.097656 257.4375 130.242188 C 258.375 131.386719 259.285156 132.550781 260.164062 133.738281 C 261.046875 134.925781 261.898438 136.136719 262.71875 137.367188 C 263.539062 138.59375 264.332031 139.84375 265.09375 141.113281 C 265.851562 142.382812 266.582031 143.667969 267.277344 144.972656 C 267.976562 146.277344 268.640625 147.597656 269.273438 148.933594 C 269.90625 150.273438 270.503906 151.625 271.070312 152.988281 C 271.636719 154.355469 272.167969 155.734375 272.667969 157.128906 C 273.164062 158.519531 273.628906 159.925781 274.058594 161.339844 C 274.488281 162.757812 274.882812 164.179688 275.242188 165.617188 C 275.601562 167.050781 275.925781 168.492188 276.214844 169.945312 C 276.503906 171.394531 276.753906 172.851562 276.972656 174.3125 C 277.1875 175.777344 277.371094 177.246094 277.515625 178.71875 C 277.660156 180.1875 277.769531 181.664062 277.839844 183.140625 C 277.914062 184.617188 277.949219 186.097656 277.949219 187.574219 Z M 277.949219 187.574219 " clip-rule="nonzero"/></clipPath><linearGradient x1="-0.000000655048" gradientTransform="matrix(2.824219, 0, 0, 2.824219, 97.200007, 97.200108)" y1="32" x2="63.999995" gradientUnits="userSpaceOnUse" y2="32" id="id3"><stop stop-opacity="1" stop-color="rgb(100%, 94.898987%, 95.698547%)" offset="0"/><stop stop-opacity="1" stop-color="rgb(100%, 94.752502%, 95.576477%)" offset="0.015625"/><stop stop-opacity="1" stop-color="rgb(100%, 94.458008%, 95.330811%)" offset="0.03125"/><stop stop-opacity="1" stop-color="rgb(100%, 94.165039%, 95.085144%)" offset="0.046875"/><stop stop-opacity="1" stop-color="rgb(100%, 93.870544%, 94.839478%)" offset="0.0625"/><stop stop-opacity="1" stop-color="rgb(100%, 93.577576%, 94.595337%)" offset="0.078125"/><stop stop-opacity="1" stop-color="rgb(100%, 93.283081%, 94.34967%)" offset="0.09375"/><stop stop-opacity="1" stop-color="rgb(100%, 92.990112%, 94.104004%)" offset="0.109375"/><stop stop-opacity="1" stop-color="rgb(100%, 92.695618%, 93.858337%)" offset="0.125"/><stop stop-opacity="1" stop-color="rgb(100%, 92.402649%, 93.614197%)" offset="0.140625"/><stop stop-opacity="1" stop-color="rgb(100%, 92.108154%, 93.36853%)" offset="0.15625"/><stop stop-opacity="1" stop-color="rgb(100%, 91.815186%, 93.122864%)" offset="0.171875"/><stop stop-opacity="1" stop-color="rgb(100%, 91.520691%, 92.877197%)" offset="0.1875"/><stop stop-opacity="1" stop-color="rgb(100%, 91.227722%, 92.631531%)" offset="0.203125"/><stop stop-opacity="1" stop-color="rgb(100%, 90.933228%, 92.38739%)" offset="0.21875"/><stop stop-opacity="1" stop-color="rgb(100%, 90.638733%, 92.141724%)" offset="0.234375"/><stop stop-opacity="1" stop-color="rgb(100%, 90.345764%, 91.896057%)" offset="0.25"/><stop stop-opacity="1" stop-color="rgb(100%, 90.05127%, 91.650391%)" offset="0.265625"/><stop stop-opacity="1" stop-color="rgb(100%, 89.758301%, 91.40625%)" offset="0.28125"/><stop stop-opacity="1" stop-color="rgb(100%, 89.463806%, 91.160583%)" offset="0.296875"/><stop stop-opacity="1" stop-color="rgb(100%, 89.170837%, 90.914917%)" offset="0.3125"/><stop stop-opacity="1" stop-color="rgb(100%, 88.876343%, 90.66925%)" offset="0.328125"/><stop stop-opacity="1" stop-color="rgb(100%, 88.583374%, 90.42511%)" offset="0.34375"/><stop stop-opacity="1" stop-color="rgb(100%, 88.288879%, 90.179443%)" offset="0.359375"/><stop stop-opacity="1" stop-color="rgb(100%, 87.995911%, 89.933777%)" offset="0.375"/><stop stop-opacity="1" stop-color="rgb(100%, 87.701416%, 89.68811%)" offset="0.390625"/><stop stop-opacity="1" stop-color="rgb(100%, 87.408447%, 89.442444%)" offset="0.40625"/><stop stop-opacity="1" stop-color="rgb(100%, 87.113953%, 89.198303%)" offset="0.421875"/><stop stop-opacity="1" stop-color="rgb(100%, 86.820984%, 88.952637%)" offset="0.4375"/><stop stop-opacity="1" stop-color="rgb(100%, 86.526489%, 88.70697%)" offset="0.453125"/><stop stop-opacity="1" stop-color="rgb(100%, 86.233521%, 88.461304%)" offset="0.46875"/><stop stop-opacity="1" stop-color="rgb(100%, 85.939026%, 88.217163%)" offset="0.484375"/><stop stop-opacity="1" stop-color="rgb(100%, 85.646057%, 87.971497%)" offset="0.5"/><stop stop-opacity="1" stop-color="rgb(100%, 85.351562%, 87.72583%)" offset="0.515625"/><stop stop-opacity="1" stop-color="rgb(100%, 85.058594%, 87.480164%)" offset="0.53125"/><stop stop-opacity="1" stop-color="rgb(100%, 84.764099%, 87.236023%)" offset="0.546875"/><stop stop-opacity="1" stop-color="rgb(100%, 84.47113%, 86.990356%)" offset="0.5625"/><stop stop-opacity="1" stop-color="rgb(100%, 84.176636%, 86.74469%)" offset="0.578125"/><stop stop-opacity="1" stop-color="rgb(100%, 83.883667%, 86.499023%)" offset="0.59375"/><stop stop-opacity="1" stop-color="rgb(100%, 83.589172%, 86.254883%)" offset="0.609375"/><stop stop-opacity="1" stop-color="rgb(100%, 83.296204%, 86.009216%)" offset="0.625"/><stop stop-opacity="1" stop-color="rgb(100%, 83.001709%, 85.76355%)" offset="0.640625"/><stop stop-opacity="1" stop-color="rgb(100%, 82.70874%, 85.517883%)" offset="0.65625"/><stop stop-opacity="1" stop-color="rgb(100%, 82.414246%, 85.272217%)" offset="0.671875"/><stop stop-opacity="1" stop-color="rgb(100%, 82.121277%, 85.028076%)" offset="0.6875"/><stop stop-opacity="1" stop-color="rgb(100%, 81.826782%, 84.78241%)" offset="0.703125"/><stop stop-opacity="1" stop-color="rgb(100%, 81.533813%, 84.536743%)" offset="0.71875"/><stop stop-opacity="1" stop-color="rgb(100%, 81.239319%, 84.291077%)" offset="0.734375"/><stop stop-opacity="1" stop-color="rgb(100%, 80.94635%, 84.046936%)" offset="0.75"/><stop stop-opacity="1" stop-color="rgb(100%, 80.651855%, 83.80127%)" offset="0.765625"/><stop stop-opacity="1" stop-color="rgb(100%, 80.358887%, 83.555603%)" offset="0.78125"/><stop stop-opacity="1" stop-color="rgb(100%, 80.064392%, 83.309937%)" offset="0.796875"/><stop stop-opacity="1" stop-color="rgb(100%, 79.771423%, 83.065796%)" offset="0.8125"/><stop stop-opacity="1" stop-color="rgb(100%, 79.476929%, 82.820129%)" offset="0.828125"/><stop stop-opacity="1" stop-color="rgb(100%, 79.18396%, 82.574463%)" offset="0.84375"/><stop stop-opacity="1" stop-color="rgb(100%, 78.889465%, 82.328796%)" offset="0.859375"/><stop stop-opacity="1" stop-color="rgb(100%, 78.594971%, 82.08313%)" offset="0.875"/><stop stop-opacity="1" stop-color="rgb(100%, 78.302002%, 81.838989%)" offset="0.890625"/><stop stop-opacity="1" stop-color="rgb(100%, 78.007507%, 81.593323%)" offset="0.90625"/><stop stop-opacity="1" stop-color="rgb(100%, 77.714539%, 81.347656%)" offset="0.921875"/><stop stop-opacity="1" stop-color="rgb(100%, 77.420044%, 81.10199%)" offset="0.9375"/><stop stop-opacity="1" stop-color="rgb(100%, 77.127075%, 80.857849%)" offset="0.953125"/><stop stop-opacity="1" stop-color="rgb(100%, 76.832581%, 80.612183%)" offset="0.96875"/><stop stop-opacity="1" stop-color="rgb(100%, 76.539612%, 80.366516%)" offset="0.984375"/><stop stop-opacity="1" stop-color="rgb(100%, 76.245117%, 80.12085%)" offset="1"/></linearGradient><clipPath id="id4"><path d="M 131 131 L 245 131 L 245 244 L 131 244 Z M 131 131 " clip-rule="nonzero"/></clipPath><clipPath id="id5"><path d="M 232.414062 229.019531 L 228.195312 237.441406 C 225.5 242.863281 220.125 243.953125 214.292969 243.808594 C 201.957031 243.808594 179.375 238.707031 154.542969 208.167969 C 153.597656 207.242188 128.625 181.6875 131.277344 156.996094 C 131.457031 155.488281 131.929688 154.082031 132.695312 152.769531 C 133.460938 151.460938 134.453125 150.359375 135.675781 149.460938 L 144.035156 143.230469 C 144.464844 142.910156 144.921875 142.632812 145.40625 142.402344 C 145.890625 142.171875 146.394531 141.992188 146.914062 141.863281 C 147.4375 141.734375 147.964844 141.65625 148.503906 141.632812 C 149.039062 141.609375 149.574219 141.640625 150.101562 141.726562 C 150.632812 141.808594 151.148438 141.945312 151.652344 142.132812 C 152.15625 142.324219 152.636719 142.558594 153.089844 142.84375 C 153.546875 143.128906 153.96875 143.457031 154.359375 143.824219 C 154.75 144.195312 155.097656 144.601562 155.40625 145.039062 L 168.242188 163.261719 C 168.546875 163.695312 168.800781 164.152344 169.015625 164.636719 C 169.226562 165.117188 169.386719 165.617188 169.503906 166.128906 C 169.617188 166.644531 169.679688 167.164062 169.691406 167.691406 C 169.703125 168.21875 169.664062 168.742188 169.574219 169.261719 C 169.484375 169.777344 169.34375 170.285156 169.15625 170.777344 C 168.964844 171.265625 168.730469 171.734375 168.449219 172.179688 C 168.167969 172.625 167.84375 173.039062 167.484375 173.421875 C 167.121094 173.804688 166.726562 174.148438 166.292969 174.453125 L 160.851562 178.3125 C 160.433594 178.601562 160.085938 178.957031 159.804688 179.378906 C 159.523438 179.800781 159.328125 180.261719 159.222656 180.757812 C 159.117188 181.253906 159.105469 181.753906 159.1875 182.253906 C 159.273438 182.753906 159.445312 183.21875 159.703125 183.65625 C 163.492188 190.21875 168.066406 196.179688 173.421875 201.542969 C 178.773438 206.902344 184.730469 211.480469 191.289062 215.277344 C 191.699219 215.503906 192.136719 215.652344 192.597656 215.722656 C 193.0625 215.796875 193.523438 215.789062 193.984375 215.699219 C 194.441406 215.613281 194.875 215.449219 195.277344 215.210938 C 195.679688 214.972656 196.03125 214.675781 196.332031 214.316406 L 201.375 208.246094 C 201.691406 207.867188 202.039062 207.515625 202.421875 207.199219 C 202.800781 206.882812 203.210938 206.605469 203.640625 206.363281 C 204.074219 206.121094 204.527344 205.921875 204.996094 205.761719 C 205.464844 205.605469 205.945312 205.492188 206.4375 205.421875 C 206.929688 205.355469 207.421875 205.332031 207.914062 205.351562 C 208.410156 205.375 208.898438 205.441406 209.382812 205.554688 C 209.867188 205.667969 210.332031 205.824219 210.789062 206.023438 C 211.242188 206.222656 211.671875 206.460938 212.082031 206.742188 L 229.742188 218.773438 C 230.140625 219.046875 230.511719 219.355469 230.855469 219.691406 C 231.195312 220.03125 231.507812 220.398438 231.785156 220.792969 C 232.0625 221.1875 232.300781 221.605469 232.503906 222.042969 C 232.707031 222.480469 232.867188 222.933594 232.992188 223.398438 C 233.113281 223.867188 233.191406 224.339844 233.226562 224.820312 C 233.265625 225.300781 233.257812 225.78125 233.210938 226.261719 C 233.160156 226.742188 233.070312 227.214844 232.9375 227.675781 C 232.800781 228.140625 232.628906 228.589844 232.414062 229.019531 Z M 243.785156 135.214844 C 243.183594 135.765625 206.109375 164.199219 204.148438 165.773438 C 203.457031 166.3125 202.695312 166.726562 201.863281 167.011719 C 201.035156 167.296875 200.183594 167.441406 199.304688 167.441406 C 198.425781 167.441406 197.574219 167.296875 196.746094 167.011719 C 195.914062 166.726562 195.15625 166.3125 194.464844 165.773438 L 155.464844 133.910156 C 154.855469 134.835938 154.554688 135.855469 154.5625 136.964844 L 154.5625 139.074219 C 156.234375 139.960938 157.613281 141.179688 158.699219 142.730469 L 171.519531 160.953125 C 171.972656 161.601562 172.359375 162.285156 172.675781 163.007812 C 172.996094 163.730469 173.242188 164.480469 173.414062 165.25 C 173.585938 166.023438 173.683594 166.804688 173.703125 167.59375 C 173.722656 168.382812 173.664062 169.167969 173.53125 169.945312 C 173.394531 170.726562 173.1875 171.484375 172.90625 172.222656 C 172.621094 172.960938 172.269531 173.664062 171.851562 174.332031 C 171.429688 175.003906 170.949219 175.625 170.40625 176.199219 C 169.863281 176.773438 169.269531 177.289062 168.625 177.75 L 163.160156 181.605469 C 164.988281 184.691406 166.988281 187.660156 169.167969 190.507812 L 238.421875 190.507812 C 238.792969 190.503906 239.160156 190.46875 239.519531 190.394531 C 239.882812 190.320312 240.234375 190.214844 240.578125 190.070312 C 240.917969 189.929688 241.242188 189.753906 241.550781 189.546875 C 241.855469 189.339844 242.140625 189.109375 242.402344 188.84375 C 242.664062 188.582031 242.894531 188.296875 243.101562 187.992188 C 243.304688 187.683594 243.480469 187.359375 243.621094 187.015625 C 243.761719 186.675781 243.867188 186.324219 243.941406 185.960938 C 244.011719 185.597656 244.046875 185.230469 244.046875 184.859375 L 244.046875 136.964844 C 244.042969 136.367188 243.957031 135.785156 243.785156 135.214844 Z M 196.972656 162.621094 C 197.3125 162.878906 197.683594 163.078125 198.085938 163.214844 C 198.488281 163.351562 198.902344 163.417969 199.328125 163.417969 C 199.753906 163.414062 200.167969 163.34375 200.570312 163.203125 C 200.972656 163.0625 201.339844 162.863281 201.675781 162.601562 C 204.175781 160.65625 239.761719 133.261719 241.253906 132.101562 C 240.382812 131.578125 239.441406 131.316406 238.421875 131.316406 L 160.207031 131.316406 C 159.742188 131.316406 159.289062 131.378906 158.839844 131.5 Z M 196.972656 162.621094 " clip-rule="nonzero"/></clipPath><linearGradient x1="11.126618" gradientTransform="matrix(2.824219, 0, 0, 2.824219, 97.200007, 97.200108)" y1="31.997999" x2="51.995876" gradientUnits="userSpaceOnUse" y2="31.997999" id="id6"><stop stop-opacity="1" stop-color="rgb(100%, 65.098572%, 55.299377%)" offset="0"/><stop stop-opacity="1" stop-color="rgb(100%, 65.098572%, 55.299377%)" offset="0.015625"/><stop stop-opacity="1" stop-color="rgb(99.998474%, 65.05127%, 55.2948%)" offset="0.0234375"/><stop stop-opacity="1" stop-color="rgb(99.993896%, 64.836121%, 55.278015%)" offset="0.03125"/><stop stop-opacity="1" stop-color="rgb(99.987793%, 64.497375%, 55.249023%)" offset="0.0390625"/><stop stop-opacity="1" stop-color="rgb(99.981689%, 64.15863%, 55.221558%)" offset="0.046875"/><stop stop-opacity="1" stop-color="rgb(99.975586%, 63.821411%, 55.194092%)" offset="0.0546875"/><stop stop-opacity="1" stop-color="rgb(99.967957%, 63.482666%, 55.1651%)" offset="0.0625"/><stop stop-opacity="1" stop-color="rgb(99.961853%, 63.143921%, 55.137634%)" offset="0.0703125"/><stop stop-opacity="1" stop-color="rgb(99.95575%, 62.805176%, 55.110168%)" offset="0.078125"/><stop stop-opacity="1" stop-color="rgb(99.949646%, 62.466431%, 55.081177%)" offset="0.0859375"/><stop stop-opacity="1" stop-color="rgb(99.943542%, 62.129211%, 55.053711%)" offset="0.09375"/><stop stop-opacity="1" stop-color="rgb(99.935913%, 61.790466%, 55.026245%)" offset="0.101562"/><stop stop-opacity="1" stop-color="rgb(99.92981%, 61.451721%, 54.997253%)" offset="0.109375"/><stop stop-opacity="1" stop-color="rgb(99.923706%, 61.112976%, 54.969788%)" offset="0.117187"/><stop stop-opacity="1" stop-color="rgb(99.917603%, 60.774231%, 54.942322%)" offset="0.125"/><stop stop-opacity="1" stop-color="rgb(99.911499%, 60.435486%, 54.914856%)" offset="0.132812"/><stop stop-opacity="1" stop-color="rgb(99.905396%, 60.098267%, 54.885864%)" offset="0.140625"/><stop stop-opacity="1" stop-color="rgb(99.897766%, 59.759521%, 54.858398%)" offset="0.148438"/><stop stop-opacity="1" stop-color="rgb(99.891663%, 59.420776%, 54.830933%)" offset="0.15625"/><stop stop-opacity="1" stop-color="rgb(99.885559%, 59.082031%, 54.801941%)" offset="0.164062"/><stop stop-opacity="1" stop-color="rgb(99.879456%, 58.743286%, 54.774475%)" offset="0.171875"/><stop stop-opacity="1" stop-color="rgb(99.873352%, 58.406067%, 54.747009%)" offset="0.179688"/><stop stop-opacity="1" stop-color="rgb(99.865723%, 58.067322%, 54.718018%)" offset="0.1875"/><stop stop-opacity="1" stop-color="rgb(99.859619%, 57.728577%, 54.690552%)" offset="0.195313"/><stop stop-opacity="1" stop-color="rgb(99.853516%, 57.389832%, 54.663086%)" offset="0.203125"/><stop stop-opacity="1" stop-color="rgb(99.847412%, 57.051086%, 54.634094%)" offset="0.210938"/><stop stop-opacity="1" stop-color="rgb(99.841309%, 56.713867%, 54.606628%)" offset="0.21875"/><stop stop-opacity="1" stop-color="rgb(99.835205%, 56.375122%, 54.579163%)" offset="0.226562"/><stop stop-opacity="1" stop-color="rgb(99.827576%, 56.036377%, 54.550171%)" offset="0.234375"/><stop stop-opacity="1" stop-color="rgb(99.821472%, 55.697632%, 54.522705%)" offset="0.242188"/><stop stop-opacity="1" stop-color="rgb(99.815369%, 55.358887%, 54.495239%)" offset="0.25"/><stop stop-opacity="1" stop-color="rgb(99.809265%, 55.021667%, 54.467773%)" offset="0.257812"/><stop stop-opacity="1" stop-color="rgb(99.803162%, 54.682922%, 54.438782%)" offset="0.265625"/><stop stop-opacity="1" stop-color="rgb(99.795532%, 54.344177%, 54.411316%)" offset="0.273438"/><stop stop-opacity="1" stop-color="rgb(99.789429%, 54.005432%, 54.38385%)" offset="0.28125"/><stop stop-opacity="1" stop-color="rgb(99.783325%, 53.666687%, 54.354858%)" offset="0.289062"/><stop stop-opacity="1" stop-color="rgb(99.777222%, 53.329468%, 54.327393%)" offset="0.296875"/><stop stop-opacity="1" stop-color="rgb(99.771118%, 52.990723%, 54.299927%)" offset="0.304687"/><stop stop-opacity="1" stop-color="rgb(99.763489%, 52.651978%, 54.270935%)" offset="0.3125"/><stop stop-opacity="1" stop-color="rgb(99.757385%, 52.313232%, 54.243469%)" offset="0.320312"/><stop stop-opacity="1" stop-color="rgb(99.751282%, 51.974487%, 54.216003%)" offset="0.328125"/><stop stop-opacity="1" stop-color="rgb(99.745178%, 51.637268%, 54.187012%)" offset="0.335938"/><stop stop-opacity="1" stop-color="rgb(99.739075%, 51.298523%, 54.159546%)" offset="0.34375"/><stop stop-opacity="1" stop-color="rgb(99.732971%, 50.959778%, 54.13208%)" offset="0.351562"/><stop stop-opacity="1" stop-color="rgb(99.725342%, 50.621033%, 54.104614%)" offset="0.359375"/><stop stop-opacity="1" stop-color="rgb(99.719238%, 50.282288%, 54.075623%)" offset="0.367188"/><stop stop-opacity="1" stop-color="rgb(99.713135%, 49.945068%, 54.048157%)" offset="0.375"/><stop stop-opacity="1" stop-color="rgb(99.707031%, 49.606323%, 54.020691%)" offset="0.382812"/><stop stop-opacity="1" stop-color="rgb(99.700928%, 49.267578%, 53.991699%)" offset="0.390625"/><stop stop-opacity="1" stop-color="rgb(99.693298%, 48.928833%, 53.964233%)" offset="0.398438"/><stop stop-opacity="1" stop-color="rgb(99.687195%, 48.590088%, 53.936768%)" offset="0.40625"/><stop stop-opacity="1" stop-color="rgb(99.681091%, 48.251343%, 53.907776%)" offset="0.414062"/><stop stop-opacity="1" stop-color="rgb(99.674988%, 47.914124%, 53.88031%)" offset="0.421875"/><stop stop-opacity="1" stop-color="rgb(99.668884%, 47.575378%, 53.852844%)" offset="0.429688"/><stop stop-opacity="1" stop-color="rgb(99.662781%, 47.236633%, 53.823853%)" offset="0.4375"/><stop stop-opacity="1" stop-color="rgb(99.655151%, 46.897888%, 53.796387%)" offset="0.445312"/><stop stop-opacity="1" stop-color="rgb(99.649048%, 46.559143%, 53.768921%)" offset="0.453125"/><stop stop-opacity="1" stop-color="rgb(99.642944%, 46.221924%, 53.741455%)" offset="0.460938"/><stop stop-opacity="1" stop-color="rgb(99.636841%, 45.883179%, 53.712463%)" offset="0.46875"/><stop stop-opacity="1" stop-color="rgb(99.630737%, 45.544434%, 53.684998%)" offset="0.476562"/><stop stop-opacity="1" stop-color="rgb(99.623108%, 45.205688%, 53.657532%)" offset="0.484375"/><stop stop-opacity="1" stop-color="rgb(99.617004%, 44.866943%, 53.62854%)" offset="0.492187"/><stop stop-opacity="1" stop-color="rgb(99.610901%, 44.529724%, 53.601074%)" offset="0.5"/><stop stop-opacity="1" stop-color="rgb(99.604797%, 44.190979%, 53.573608%)" offset="0.507812"/><stop stop-opacity="1" stop-color="rgb(99.598694%, 43.852234%, 53.544617%)" offset="0.515625"/><stop stop-opacity="1" stop-color="rgb(99.591064%, 43.513489%, 53.517151%)" offset="0.523437"/><stop stop-opacity="1" stop-color="rgb(99.584961%, 43.174744%, 53.489685%)" offset="0.53125"/><stop stop-opacity="1" stop-color="rgb(99.578857%, 42.837524%, 53.460693%)" offset="0.539062"/><stop stop-opacity="1" stop-color="rgb(99.572754%, 42.498779%, 53.433228%)" offset="0.546875"/><stop stop-opacity="1" stop-color="rgb(99.56665%, 42.160034%, 53.405762%)" offset="0.554687"/><stop stop-opacity="1" stop-color="rgb(99.560547%, 41.821289%, 53.37677%)" offset="0.5625"/><stop stop-opacity="1" stop-color="rgb(99.552917%, 41.482544%, 53.349304%)" offset="0.570312"/><stop stop-opacity="1" stop-color="rgb(99.546814%, 41.145325%, 53.321838%)" offset="0.578125"/><stop stop-opacity="1" stop-color="rgb(99.54071%, 40.80658%, 53.294373%)" offset="0.585938"/><stop stop-opacity="1" stop-color="rgb(99.534607%, 40.467834%, 53.265381%)" offset="0.59375"/><stop stop-opacity="1" stop-color="rgb(99.528503%, 40.129089%, 53.237915%)" offset="0.601562"/><stop stop-opacity="1" stop-color="rgb(99.520874%, 39.790344%, 53.210449%)" offset="0.609375"/><stop stop-opacity="1" stop-color="rgb(99.514771%, 39.453125%, 53.181458%)" offset="0.617187"/><stop stop-opacity="1" stop-color="rgb(99.508667%, 39.11438%, 53.153992%)" offset="0.625"/><stop stop-opacity="1" stop-color="rgb(99.502563%, 38.775635%, 53.126526%)" offset="0.632813"/><stop stop-opacity="1" stop-color="rgb(99.49646%, 38.43689%, 53.097534%)" offset="0.640625"/><stop stop-opacity="1" stop-color="rgb(99.490356%, 38.098145%, 53.070068%)" offset="0.648438"/><stop stop-opacity="1" stop-color="rgb(99.482727%, 37.760925%, 53.042603%)" offset="0.65625"/><stop stop-opacity="1" stop-color="rgb(99.476624%, 37.42218%, 53.013611%)" offset="0.664062"/><stop stop-opacity="1" stop-color="rgb(99.47052%, 37.083435%, 52.986145%)" offset="0.671875"/><stop stop-opacity="1" stop-color="rgb(99.464417%, 36.74469%, 52.958679%)" offset="0.679687"/><stop stop-opacity="1" stop-color="rgb(99.458313%, 36.405945%, 52.931213%)" offset="0.6875"/><stop stop-opacity="1" stop-color="rgb(99.450684%, 36.0672%, 52.902222%)" offset="0.695312"/><stop stop-opacity="1" stop-color="rgb(99.44458%, 35.72998%, 52.874756%)" offset="0.703125"/><stop stop-opacity="1" stop-color="rgb(99.438477%, 35.391235%, 52.84729%)" offset="0.710937"/><stop stop-opacity="1" stop-color="rgb(99.432373%, 35.05249%, 52.818298%)" offset="0.71875"/><stop stop-opacity="1" stop-color="rgb(99.42627%, 34.713745%, 52.790833%)" offset="0.726562"/><stop stop-opacity="1" stop-color="rgb(99.420166%, 34.375%, 52.763367%)" offset="0.734375"/><stop stop-opacity="1" stop-color="rgb(99.412537%, 34.037781%, 52.734375%)" offset="0.742188"/><stop stop-opacity="1" stop-color="rgb(99.406433%, 33.699036%, 52.706909%)" offset="0.75"/><stop stop-opacity="1" stop-color="rgb(99.40033%, 33.360291%, 52.679443%)" offset="0.757812"/><stop stop-opacity="1" stop-color="rgb(99.394226%, 33.021545%, 52.650452%)" offset="0.765625"/><stop stop-opacity="1" stop-color="rgb(99.388123%, 32.6828%, 52.622986%)" offset="0.773437"/><stop stop-opacity="1" stop-color="rgb(99.380493%, 32.345581%, 52.59552%)" offset="0.78125"/><stop stop-opacity="1" stop-color="rgb(99.37439%, 32.006836%, 52.568054%)" offset="0.789062"/><stop stop-opacity="1" stop-color="rgb(99.368286%, 31.668091%, 52.539062%)" offset="0.796875"/><stop stop-opacity="1" stop-color="rgb(99.362183%, 31.329346%, 52.511597%)" offset="0.804688"/><stop stop-opacity="1" stop-color="rgb(99.356079%, 30.990601%, 52.484131%)" offset="0.8125"/><stop stop-opacity="1" stop-color="rgb(99.34845%, 30.653381%, 52.455139%)" offset="0.820312"/><stop stop-opacity="1" stop-color="rgb(99.342346%, 30.314636%, 52.427673%)" offset="0.828125"/><stop stop-opacity="1" stop-color="rgb(99.336243%, 29.975891%, 52.400208%)" offset="0.835937"/><stop stop-opacity="1" stop-color="rgb(99.330139%, 29.637146%, 52.371216%)" offset="0.84375"/><stop stop-opacity="1" stop-color="rgb(99.324036%, 29.298401%, 52.34375%)" offset="0.851562"/><stop stop-opacity="1" stop-color="rgb(99.317932%, 28.961182%, 52.316284%)" offset="0.859375"/><stop stop-opacity="1" stop-color="rgb(99.310303%, 28.622437%, 52.287292%)" offset="0.867187"/><stop stop-opacity="1" stop-color="rgb(99.304199%, 28.283691%, 52.259827%)" offset="0.875"/><stop stop-opacity="1" stop-color="rgb(99.298096%, 27.944946%, 52.232361%)" offset="0.882812"/><stop stop-opacity="1" stop-color="rgb(99.291992%, 27.606201%, 52.203369%)" offset="0.890625"/><stop stop-opacity="1" stop-color="rgb(99.285889%, 27.268982%, 52.175903%)" offset="0.898438"/><stop stop-opacity="1" stop-color="rgb(99.278259%, 26.930237%, 52.148438%)" offset="0.90625"/><stop stop-opacity="1" stop-color="rgb(99.272156%, 26.591492%, 52.120972%)" offset="0.914062"/><stop stop-opacity="1" stop-color="rgb(99.266052%, 26.252747%, 52.09198%)" offset="0.921875"/><stop stop-opacity="1" stop-color="rgb(99.259949%, 25.914001%, 52.064514%)" offset="0.929687"/><stop stop-opacity="1" stop-color="rgb(99.253845%, 25.576782%, 52.037048%)" offset="0.9375"/><stop stop-opacity="1" stop-color="rgb(99.247742%, 25.238037%, 52.008057%)" offset="0.945312"/><stop stop-opacity="1" stop-color="rgb(99.240112%, 24.899292%, 51.980591%)" offset="0.953125"/><stop stop-opacity="1" stop-color="rgb(99.234009%, 24.560547%, 51.953125%)" offset="0.960937"/><stop stop-opacity="1" stop-color="rgb(99.227905%, 24.221802%, 51.924133%)" offset="0.96875"/><stop stop-opacity="1" stop-color="rgb(99.221802%, 23.883057%, 51.896667%)" offset="0.976562"/><stop stop-opacity="1" stop-color="rgb(99.215698%, 23.545837%, 51.869202%)" offset="0.984375"/><stop stop-opacity="1" stop-color="rgb(99.208069%, 23.207092%, 51.84021%)" offset="0.992188"/><stop stop-opacity="1" stop-color="rgb(99.201965%, 22.868347%, 51.812744%)" offset="1"/></linearGradient></defs><g clip-path="url(#id1)"><g clip-path="url(#id2)"><path fill="url(#id3)" d="M 97.199219 97.199219 L 97.199219 277.949219 L 277.949219 277.949219 L 277.949219 97.199219 Z M 97.199219 97.199219 " fill-rule="nonzero"/></g></g><g clip-path="url(#id4)"><g clip-path="url(#id5)"><path fill="url(#id6)" d="M 128.625 131.316406 L 128.625 243.953125 L 244.046875 243.953125 L 244.046875 131.316406 Z M 128.625 131.316406 " fill-rule="nonzero"/></g></g></svg>