<svg xmlns="http://www.w3.org/2000/svg" xmlns:xlink="http://www.w3.org/1999/xlink" width="500" zoomAndPan="magnify" viewBox="0 0 375 374.999991" height="500" preserveAspectRatio="xMidYMid meet" version="1.0"><defs><g/><clipPath id="id1"><path d="M 93.75 93.75 L 281.25 93.75 L 281.25 281.25 L 93.75 281.25 Z M 93.75 93.75 " clip-rule="nonzero"/></clipPath><clipPath id="id2"><path d="M 93.75 94 L 281.25 94 L 281.25 281.25 L 93.75 281.25 Z M 93.75 94 " clip-rule="nonzero"/></clipPath></defs><g clip-path="url(#id1)"><path fill="#151515" d="M 187.5 93.75 C 189.035156 93.75 190.566406 93.789062 192.101562 93.863281 C 193.632812 93.9375 195.164062 94.050781 196.6875 94.203125 C 198.214844 94.351562 199.738281 94.539062 201.257812 94.765625 C 202.773438 94.988281 204.285156 95.253906 205.789062 95.550781 C 207.292969 95.851562 208.792969 96.1875 210.28125 96.558594 C 211.769531 96.933594 213.246094 97.339844 214.714844 97.785156 C 216.183594 98.230469 217.640625 98.714844 219.082031 99.230469 C 220.527344 99.746094 221.960938 100.300781 223.375 100.886719 C 224.792969 101.472656 226.195312 102.09375 227.582031 102.75 C 228.96875 103.40625 230.339844 104.097656 231.695312 104.820312 C 233.046875 105.542969 234.382812 106.300781 235.695312 107.089844 C 237.011719 107.875 238.308594 108.699219 239.585938 109.550781 C 240.859375 110.402344 242.113281 111.285156 243.347656 112.199219 C 244.578125 113.113281 245.789062 114.058594 246.972656 115.03125 C 248.160156 116.003906 249.320312 117.003906 250.457031 118.035156 C 251.59375 119.066406 252.707031 120.125 253.792969 121.207031 C 254.875 122.292969 255.933594 123.40625 256.964844 124.542969 C 257.996094 125.679688 258.996094 126.839844 259.96875 128.027344 C 260.941406 129.210938 261.886719 130.421875 262.800781 131.652344 C 263.714844 132.886719 264.597656 134.140625 265.449219 135.414062 C 266.300781 136.691406 267.125 137.988281 267.910156 139.304688 C 268.699219 140.617188 269.457031 141.953125 270.179688 143.304688 C 270.902344 144.660156 271.59375 146.03125 272.25 147.417969 C 272.90625 148.804688 273.527344 150.207031 274.113281 151.625 C 274.699219 153.039062 275.253906 154.472656 275.769531 155.917969 C 276.285156 157.359375 276.769531 158.816406 277.214844 160.285156 C 277.660156 161.753906 278.066406 163.230469 278.441406 164.71875 C 278.8125 166.207031 279.148438 167.707031 279.449219 169.210938 C 279.746094 170.714844 280.011719 172.226562 280.234375 173.742188 C 280.460938 175.261719 280.648438 176.785156 280.796875 178.3125 C 280.949219 179.835938 281.0625 181.367188 281.136719 182.898438 C 281.210938 184.433594 281.25 185.964844 281.25 187.5 C 281.25 189.035156 281.210938 190.566406 281.136719 192.101562 C 281.0625 193.632812 280.949219 195.164062 280.796875 196.6875 C 280.648438 198.214844 280.460938 199.738281 280.234375 201.257812 C 280.011719 202.773438 279.746094 204.285156 279.449219 205.789062 C 279.148438 207.292969 278.8125 208.792969 278.441406 210.28125 C 278.066406 211.769531 277.660156 213.246094 277.214844 214.714844 C 276.769531 216.183594 276.285156 217.640625 275.769531 219.082031 C 275.253906 220.527344 274.699219 221.960938 274.113281 223.375 C 273.527344 224.792969 272.90625 226.195312 272.25 227.582031 C 271.59375 228.96875 270.902344 230.339844 270.179688 231.695312 C 269.457031 233.046875 268.699219 234.382812 267.910156 235.695312 C 267.125 237.011719 266.300781 238.308594 265.449219 239.585938 C 264.597656 240.859375 263.714844 242.113281 262.800781 243.347656 C 261.886719 244.578125 260.941406 245.789062 259.96875 246.972656 C 258.996094 248.160156 257.996094 249.320312 256.964844 250.457031 C 255.933594 251.59375 254.875 252.707031 253.792969 253.792969 C 252.707031 254.875 251.59375 255.933594 250.457031 256.964844 C 249.320312 257.996094 248.160156 258.996094 246.972656 259.96875 C 245.789062 260.941406 244.578125 261.886719 243.347656 262.800781 C 242.113281 263.714844 240.859375 264.597656 239.585938 265.449219 C 238.308594 266.300781 237.011719 267.125 235.695312 267.910156 C 234.382812 268.699219 233.046875 269.457031 231.695312 270.179688 C 230.339844 270.902344 228.96875 271.59375 227.582031 272.25 C 226.195312 272.90625 224.792969 273.527344 223.375 274.113281 C 221.960938 274.699219 220.527344 275.253906 219.082031 275.769531 C 217.640625 276.285156 216.183594 276.769531 214.714844 277.214844 C 213.246094 277.660156 211.769531 278.066406 210.28125 278.441406 C 208.792969 278.8125 207.292969 279.148438 205.789062 279.449219 C 204.285156 279.746094 202.773438 280.011719 201.257812 280.234375 C 199.738281 280.460938 198.214844 280.648438 196.6875 280.796875 C 195.164062 280.949219 193.632812 281.0625 192.101562 281.136719 C 190.566406 281.210938 189.035156 281.25 187.5 281.25 C 185.964844 281.25 184.433594 281.210938 182.898438 281.136719 C 181.367188 281.0625 179.835938 280.949219 178.3125 280.796875 C 176.785156 280.648438 175.261719 280.460938 173.742188 280.234375 C 172.226562 280.011719 170.714844 279.746094 169.210938 279.449219 C 167.707031 279.148438 166.207031 278.8125 164.71875 278.441406 C 163.230469 278.066406 161.753906 277.660156 160.285156 277.214844 C 158.816406 276.769531 157.359375 276.285156 155.917969 275.769531 C 154.472656 275.253906 153.039062 274.699219 151.625 274.113281 C 150.207031 273.527344 148.804688 272.90625 147.417969 272.25 C 146.03125 271.59375 144.660156 270.902344 143.304688 270.179688 C 141.953125 269.457031 140.617188 268.699219 139.304688 267.910156 C 137.988281 267.125 136.691406 266.300781 135.414062 265.449219 C 134.140625 264.597656 132.886719 263.714844 131.652344 262.800781 C 130.421875 261.886719 129.210938 260.941406 128.027344 259.96875 C 126.839844 258.996094 125.679688 257.996094 124.542969 256.964844 C 123.40625 255.933594 122.292969 254.875 121.207031 253.792969 C 120.125 252.707031 119.066406 251.59375 118.035156 250.457031 C 117.003906 249.320312 116.003906 248.160156 115.03125 246.972656 C 114.058594 245.789062 113.113281 244.578125 112.199219 243.347656 C 111.285156 242.113281 110.402344 240.859375 109.550781 239.585938 C 108.699219 238.308594 107.875 237.011719 107.089844 235.695312 C 106.300781 234.382812 105.542969 233.046875 104.820312 231.695312 C 104.097656 230.339844 103.40625 228.96875 102.75 227.582031 C 102.09375 226.195312 101.472656 224.792969 100.886719 223.375 C 100.300781 221.960938 99.746094 220.527344 99.230469 219.082031 C 98.714844 217.640625 98.230469 216.183594 97.785156 214.714844 C 97.339844 213.246094 96.933594 211.769531 96.558594 210.28125 C 96.1875 208.792969 95.851562 207.292969 95.550781 205.789062 C 95.253906 204.285156 94.988281 202.773438 94.765625 201.257812 C 94.539062 199.738281 94.351562 198.214844 94.203125 196.6875 C 94.050781 195.164062 93.9375 193.632812 93.863281 192.101562 C 93.789062 190.566406 93.75 189.035156 93.75 187.5 C 93.75 185.964844 93.789062 184.433594 93.863281 182.898438 C 93.9375 181.367188 94.050781 179.835938 94.203125 178.3125 C 94.351562 176.785156 94.539062 175.261719 94.765625 173.742188 C 94.988281 172.226562 95.253906 170.714844 95.550781 169.210938 C 95.851562 167.707031 96.1875 166.207031 96.558594 164.71875 C 96.933594 163.230469 97.339844 161.753906 97.785156 160.285156 C 98.230469 158.816406 98.714844 157.359375 99.230469 155.917969 C 99.746094 154.472656 100.300781 153.039062 100.886719 151.625 C 101.472656 150.207031 102.09375 148.804688 102.75 147.417969 C 103.40625 146.03125 104.097656 144.660156 104.820312 143.304688 C 105.542969 141.953125 106.300781 140.617188 107.089844 139.304688 C 107.875 137.988281 108.699219 136.691406 109.550781 135.414062 C 110.402344 134.140625 111.285156 132.886719 112.199219 131.652344 C 113.113281 130.421875 114.058594 129.210938 115.03125 128.027344 C 116.003906 126.839844 117.003906 125.679688 118.035156 124.542969 C 119.066406 123.40625 120.125 122.292969 121.207031 121.207031 C 122.292969 120.125 123.40625 119.066406 124.542969 118.035156 C 125.679688 117.003906 126.839844 116.003906 128.027344 115.03125 C 129.210938 114.058594 130.421875 113.113281 131.652344 112.199219 C 132.886719 111.285156 134.140625 110.402344 135.414062 109.550781 C 136.691406 108.699219 137.988281 107.875 139.304688 107.089844 C 140.617188 106.300781 141.953125 105.542969 143.304688 104.820312 C 144.660156 104.097656 146.03125 103.40625 147.417969 102.75 C 148.804688 102.09375 150.207031 101.472656 151.625 100.886719 C 153.039062 100.300781 154.472656 99.746094 155.917969 99.230469 C 157.359375 98.714844 158.816406 98.230469 160.285156 97.785156 C 161.753906 97.339844 163.230469 96.933594 164.71875 96.558594 C 166.207031 96.1875 167.707031 95.851562 169.210938 95.550781 C 170.714844 95.253906 172.226562 94.988281 173.742188 94.765625 C 175.261719 94.539062 176.785156 94.351562 178.3125 94.203125 C 179.835938 94.050781 181.367188 93.9375 182.898438 93.863281 C 184.433594 93.789062 185.964844 93.75 187.5 93.75 L 187.5 120 C 186.394531 120 185.292969 120.027344 184.1875 120.082031 C 183.085938 120.136719 181.984375 120.214844 180.882812 120.324219 C 179.785156 120.433594 178.6875 120.570312 177.59375 120.730469 C 176.503906 120.894531 175.414062 121.082031 174.332031 121.296875 C 173.246094 121.511719 172.171875 121.753906 171.097656 122.023438 C 170.027344 122.292969 168.960938 122.585938 167.90625 122.90625 C 166.847656 123.226562 165.800781 123.574219 164.761719 123.945312 C 163.71875 124.316406 162.691406 124.714844 161.667969 125.136719 C 160.648438 125.5625 159.636719 126.007812 158.640625 126.480469 C 157.640625 126.953125 156.65625 127.449219 155.679688 127.96875 C 154.707031 128.492188 153.746094 129.035156 152.796875 129.601562 C 151.851562 130.171875 150.917969 130.761719 150 131.375 C 149.082031 131.988281 148.175781 132.625 147.289062 133.285156 C 146.402344 133.941406 145.53125 134.621094 144.679688 135.320312 C 143.824219 136.023438 142.988281 136.742188 142.167969 137.484375 C 141.351562 138.226562 140.550781 138.988281 139.769531 139.769531 C 138.988281 140.550781 138.226562 141.351562 137.484375 142.167969 C 136.742188 142.988281 136.023438 143.824219 135.320312 144.679688 C 134.621094 145.53125 133.941406 146.402344 133.285156 147.289062 C 132.625 148.175781 131.988281 149.082031 131.375 150 C 130.761719 150.917969 130.171875 151.851562 129.601562 152.796875 C 129.035156 153.746094 128.492188 154.707031 127.96875 155.679688 C 127.449219 156.65625 126.953125 157.640625 126.480469 158.640625 C 126.007812 159.636719 125.5625 160.648438 125.136719 161.667969 C 124.714844 162.691406 124.316406 163.71875 123.945312 164.761719 C 123.574219 165.800781 123.226562 166.847656 122.90625 167.90625 C 122.585938 168.964844 122.292969 170.027344 122.023438 171.097656 C 121.753906 172.171875 121.511719 173.246094 121.296875 174.332031 C 121.082031 175.414062 120.894531 176.503906 120.730469 177.59375 C 120.570312 178.6875 120.433594 179.785156 120.324219 180.882812 C 120.214844 181.984375 120.136719 183.085938 120.082031 184.1875 C 120.027344 185.292969 120 186.394531 120 187.5 C 120 188.605469 120.027344 189.707031 120.082031 190.8125 C 120.136719 191.914062 120.214844 193.015625 120.324219 194.117188 C 120.433594 195.214844 120.570312 196.3125 120.730469 197.402344 C 120.894531 198.496094 121.082031 199.585938 121.296875 200.667969 C 121.511719 201.753906 121.753906 202.828125 122.023438 203.902344 C 122.292969 204.972656 122.585938 206.035156 122.90625 207.09375 C 123.226562 208.152344 123.574219 209.199219 123.945312 210.238281 C 124.316406 211.28125 124.714844 212.308594 125.136719 213.332031 C 125.5625 214.351562 126.007812 215.359375 126.480469 216.359375 C 126.953125 217.359375 127.449219 218.34375 127.96875 219.320312 C 128.492188 220.292969 129.035156 221.253906 129.601562 222.203125 C 130.171875 223.148438 130.761719 224.082031 131.375 225 C 131.988281 225.917969 132.625 226.824219 133.285156 227.710938 C 133.941406 228.597656 134.621094 229.46875 135.320312 230.320312 C 136.023438 231.175781 136.742188 232.011719 137.484375 232.832031 C 138.226562 233.648438 138.988281 234.449219 139.769531 235.230469 C 140.550781 236.011719 141.351562 236.773438 142.167969 237.515625 C 142.988281 238.257812 143.824219 238.976562 144.679688 239.679688 C 145.53125 240.378906 146.402344 241.058594 147.289062 241.714844 C 148.175781 242.375 149.082031 243.011719 150 243.625 C 150.917969 244.238281 151.851562 244.828125 152.796875 245.398438 C 153.746094 245.964844 154.707031 246.507812 155.679688 247.03125 C 156.65625 247.550781 157.640625 248.046875 158.640625 248.519531 C 159.636719 248.992188 160.648438 249.4375 161.667969 249.863281 C 162.691406 250.285156 163.71875 250.683594 164.761719 251.054688 C 165.800781 251.425781 166.847656 251.773438 167.90625 252.09375 C 168.964844 252.414062 170.027344 252.707031 171.097656 252.976562 C 172.171875 253.246094 173.246094 253.488281 174.332031 253.703125 C 175.414062 253.917969 176.503906 254.105469 177.59375 254.269531 C 178.6875 254.429688 179.785156 254.566406 180.882812 254.675781 C 181.984375 254.785156 183.085938 254.863281 184.1875 254.917969 C 185.292969 254.972656 186.394531 255 187.5 255 C 188.605469 255 189.707031 254.972656 190.8125 254.917969 C 191.914062 254.863281 193.015625 254.785156 194.117188 254.675781 C 195.214844 254.566406 196.3125 254.429688 197.402344 254.269531 C 198.496094 254.105469 199.585938 253.917969 200.667969 253.703125 C 201.753906 253.488281 202.828125 253.246094 203.902344 252.976562 C 204.972656 252.707031 206.035156 252.414062 207.09375 252.09375 C 208.152344 251.773438 209.199219 251.425781 210.238281 251.054688 C 211.28125 250.683594 212.308594 250.285156 213.332031 249.863281 C 214.351562 249.4375 215.359375 248.992188 216.359375 248.519531 C 217.359375 248.046875 218.34375 247.550781 219.320312 247.03125 C 220.292969 246.507812 221.253906 245.964844 222.203125 245.398438 C 223.148438 244.828125 224.082031 244.238281 225 243.625 C 225.917969 243.011719 226.824219 242.375 227.710938 241.714844 C 228.597656 241.058594 229.46875 240.378906 230.320312 239.679688 C 231.175781 238.976562 232.011719 238.257812 232.832031 237.515625 C 233.648438 236.773438 234.449219 236.011719 235.230469 235.230469 C 236.011719 234.449219 236.773438 233.648438 237.515625 232.832031 C 238.257812 232.011719 238.976562 231.175781 239.679688 230.320312 C 240.378906 229.46875 241.058594 228.597656 241.714844 227.710938 C 242.375 226.824219 243.011719 225.917969 243.625 225 C 244.238281 224.082031 244.828125 223.148438 245.398438 222.203125 C 245.964844 221.253906 246.507812 220.292969 247.03125 219.320312 C 247.550781 218.34375 248.046875 217.359375 248.519531 216.359375 C 248.992188 215.359375 249.4375 214.351562 249.863281 213.332031 C 250.285156 212.308594 250.683594 211.28125 251.054688 210.238281 C 251.425781 209.199219 251.773438 208.152344 252.09375 207.09375 C 252.414062 206.035156 252.707031 204.972656 252.976562 203.902344 C 253.246094 202.828125 253.488281 201.753906 253.703125 200.667969 C 253.917969 199.585938 254.105469 198.496094 254.269531 197.402344 C 254.429688 196.3125 254.566406 195.214844 254.675781 194.117188 C 254.785156 193.015625 254.863281 191.914062 254.917969 190.8125 C 254.972656 189.707031 255 188.605469 255 187.5 C 255 186.394531 254.972656 185.292969 254.917969 184.1875 C 254.863281 183.085938 254.785156 181.984375 254.675781 180.882812 C 254.566406 179.785156 254.429688 178.6875 254.269531 177.59375 C 254.105469 176.503906 253.917969 175.414062 253.703125 174.332031 C 253.488281 173.246094 253.246094 172.171875 252.976562 171.097656 C 252.707031 170.027344 252.414062 168.960938 252.09375 167.90625 C 251.773438 166.847656 251.425781 165.800781 251.054688 164.761719 C 250.683594 163.71875 250.285156 162.691406 249.863281 161.667969 C 249.4375 160.648438 248.992188 159.636719 248.519531 158.640625 C 248.046875 157.640625 247.550781 156.65625 247.03125 155.679688 C 246.507812 154.707031 245.964844 153.746094 245.398438 152.796875 C 244.828125 151.851562 244.238281 150.917969 243.625 150 C 243.011719 149.082031 242.375 148.175781 241.714844 147.289062 C 241.058594 146.402344 240.378906 145.53125 239.679688 144.679688 C 238.976562 143.824219 238.257812 142.988281 237.515625 142.167969 C 236.773438 141.351562 236.011719 140.550781 235.230469 139.769531 C 234.449219 138.988281 233.648438 138.226562 232.832031 137.484375 C 232.011719 136.742188 231.175781 136.023438 230.320312 135.320312 C 229.46875 134.621094 228.597656 133.941406 227.710938 133.285156 C 226.824219 132.625 225.917969 131.988281 225 131.375 C 224.082031 130.761719 223.148438 130.171875 222.203125 129.601562 C 221.253906 129.035156 220.292969 128.492188 219.320312 127.96875 C 218.34375 127.449219 217.359375 126.953125 216.359375 126.480469 C 215.359375 126.007812 214.351562 125.5625 213.332031 125.136719 C 212.308594 124.714844 211.28125 124.316406 210.238281 123.945312 C 209.199219 123.574219 208.152344 123.226562 207.09375 122.90625 C 206.035156 122.585938 204.972656 122.292969 203.902344 122.023438 C 202.828125 121.753906 201.753906 121.511719 200.667969 121.296875 C 199.585938 121.082031 198.496094 120.894531 197.402344 120.730469 C 196.3125 120.570312 195.214844 120.433594 194.117188 120.324219 C 193.015625 120.214844 191.914062 120.136719 190.8125 120.082031 C 189.707031 120.027344 188.605469 120 187.5 120 Z M 187.5 93.75 " fill-opacity="1" fill-rule="nonzero"/></g><g clip-path="url(#id2)"><path fill="#6ce5e8" d="M 202.761719 95 C 204.371094 95.265625 205.976562 95.574219 207.570312 95.921875 C 209.164062 96.273438 210.75 96.664062 212.324219 97.097656 C 213.898438 97.527344 215.457031 98 217.007812 98.515625 C 218.558594 99.027344 220.09375 99.582031 221.613281 100.175781 C 223.132812 100.769531 224.636719 101.402344 226.125 102.078125 C 227.613281 102.75 229.082031 103.460938 230.53125 104.210938 C 231.980469 104.957031 233.410156 105.746094 234.820312 106.570312 C 236.230469 107.394531 237.617188 108.253906 238.980469 109.148438 C 240.34375 110.046875 241.683594 110.976562 243 111.945312 C 244.316406 112.910156 245.605469 113.910156 246.871094 114.945312 C 248.132812 115.976562 249.367188 117.042969 250.574219 118.140625 C 251.785156 119.242188 252.960938 120.371094 254.109375 121.53125 C 255.257812 122.691406 256.375 123.878906 257.464844 125.097656 C 258.550781 126.316406 259.605469 127.5625 260.625 128.835938 C 261.648438 130.105469 262.636719 131.40625 263.589844 132.730469 C 264.542969 134.054688 265.460938 135.40625 266.34375 136.777344 C 267.226562 138.152344 268.074219 139.546875 268.882812 140.964844 C 269.695312 142.378906 270.46875 143.816406 271.203125 145.273438 C 271.9375 146.730469 272.632812 148.207031 273.292969 149.703125 C 273.949219 151.195312 274.570312 152.707031 275.148438 154.230469 C 275.726562 155.757812 276.265625 157.296875 276.765625 158.851562 C 277.265625 160.40625 277.722656 161.972656 278.140625 163.550781 C 278.554688 165.128906 278.933594 166.71875 279.265625 168.316406 C 279.601562 169.914062 279.890625 171.519531 280.140625 173.132812 C 280.394531 174.746094 280.601562 176.363281 280.765625 177.988281 C 280.933594 179.613281 281.054688 181.238281 281.136719 182.871094 C 281.214844 184.5 281.253906 186.132812 281.25 187.765625 C 281.246094 189.398438 281.199219 191.027344 281.109375 192.65625 C 281.019531 194.289062 280.886719 195.914062 280.710938 197.539062 C 280.535156 199.160156 280.320312 200.777344 280.058594 202.390625 C 279.800781 204 279.5 205.605469 279.15625 207.199219 C 278.8125 208.796875 278.429688 210.382812 278.003906 211.957031 C 277.578125 213.535156 277.109375 215.097656 276.601562 216.648438 C 276.09375 218.203125 275.546875 219.738281 274.960938 221.261719 C 274.371094 222.785156 273.746094 224.289062 273.078125 225.78125 C 272.410156 227.269531 271.707031 228.742188 270.964844 230.195312 C 270.21875 231.648438 269.4375 233.082031 268.621094 234.496094 C 267.800781 235.90625 266.949219 237.296875 266.058594 238.664062 C 265.164062 240.03125 264.238281 241.375 263.277344 242.695312 C 262.316406 244.015625 261.324219 245.308594 260.292969 246.578125 C 259.265625 247.84375 258.203125 249.085938 257.109375 250.296875 C 256.015625 251.507812 254.894531 252.691406 253.738281 253.84375 C 252.582031 254.996094 251.398438 256.121094 250.183594 257.210938 C 248.96875 258.304688 247.730469 259.363281 246.460938 260.390625 C 245.191406 261.414062 243.894531 262.410156 242.574219 263.367188 C 241.253906 264.328125 239.90625 265.25 238.539062 266.140625 C 237.167969 267.027344 235.777344 267.878906 234.363281 268.695312 C 232.949219 269.511719 231.515625 270.289062 230.0625 271.03125 C 228.605469 271.773438 227.132812 272.476562 225.644531 273.140625 C 224.152344 273.804688 222.644531 274.429688 221.121094 275.015625 C 219.597656 275.597656 218.058594 276.144531 216.507812 276.648438 C 214.953125 277.15625 213.390625 277.621094 211.8125 278.042969 C 210.234375 278.464844 208.648438 278.847656 207.054688 279.1875 C 205.457031 279.527344 203.851562 279.828125 202.238281 280.082031 C 200.628906 280.339844 199.011719 280.554688 197.386719 280.726562 C 195.765625 280.898438 194.136719 281.027344 192.507812 281.117188 C 190.875 281.203125 189.246094 281.246094 187.613281 281.25 C 185.980469 281.25 184.347656 281.210938 182.71875 281.128906 C 181.089844 281.042969 179.460938 280.917969 177.839844 280.75 C 176.214844 280.582031 174.597656 280.371094 172.984375 280.121094 C 171.371094 279.867188 169.765625 279.570312 168.167969 279.234375 C 166.570312 278.898438 164.984375 278.519531 163.40625 278.101562 C 161.828125 277.679688 160.261719 277.222656 158.710938 276.71875 C 157.15625 276.21875 155.617188 275.675781 154.089844 275.09375 C 152.566406 274.511719 151.054688 273.890625 149.5625 273.230469 C 148.070312 272.570312 146.597656 271.871094 145.140625 271.132812 C 143.683594 270.398438 142.246094 269.621094 140.832031 268.808594 C 139.417969 267.996094 138.023438 267.148438 136.652344 266.261719 C 135.28125 265.375 133.933594 264.457031 132.609375 263.5 C 131.285156 262.542969 129.988281 261.554688 128.714844 260.53125 C 127.445312 259.507812 126.199219 258.453125 124.984375 257.363281 C 123.769531 256.273438 122.582031 255.15625 121.421875 254.003906 C 120.265625 252.855469 119.136719 251.671875 118.039062 250.464844 C 116.945312 249.253906 115.878906 248.015625 114.847656 246.753906 C 113.816406 245.488281 112.820312 244.195312 111.855469 242.878906 C 110.890625 241.5625 109.960938 240.21875 109.066406 238.855469 C 108.171875 237.488281 107.316406 236.101562 106.492188 234.691406 C 105.671875 233.28125 104.886719 231.847656 104.140625 230.398438 C 103.394531 228.945312 102.683594 227.476562 102.015625 225.988281 C 101.34375 224.5 100.714844 222.992188 100.121094 221.472656 C 99.53125 219.949219 98.980469 218.414062 98.46875 216.863281 C 97.957031 215.3125 97.484375 213.75 97.054688 212.175781 C 96.625 210.601562 96.238281 209.015625 95.890625 207.421875 C 95.542969 205.828125 95.238281 204.222656 94.976562 202.613281 C 94.714844 201 94.492188 199.382812 94.3125 197.761719 C 94.132812 196.140625 94 194.511719 93.90625 192.882812 C 93.8125 191.253906 93.761719 189.621094 93.75 187.992188 C 93.742188 186.359375 93.777344 184.726562 93.851562 183.097656 C 93.929688 181.464844 94.050781 179.835938 94.210938 178.214844 C 94.371094 176.589844 94.578125 174.96875 94.824219 173.355469 C 95.070312 171.742188 95.359375 170.136719 95.6875 168.539062 C 96.019531 166.9375 96.390625 165.351562 96.804688 163.769531 C 97.214844 162.191406 97.671875 160.625 98.164062 159.070312 C 98.660156 157.511719 99.195312 155.972656 99.769531 154.445312 C 100.347656 152.917969 100.960938 151.40625 101.617188 149.910156 C 102.269531 148.414062 102.964844 146.9375 103.695312 145.476562 C 104.082031 144.707031 104.539062 143.980469 105.070312 143.300781 C 105.597656 142.621094 106.1875 142 106.839844 141.433594 C 107.492188 140.871094 108.191406 140.375 108.941406 139.949219 C 109.691406 139.523438 110.472656 139.175781 111.292969 138.902344 C 112.109375 138.632812 112.945312 138.441406 113.800781 138.335938 C 114.65625 138.230469 115.515625 138.207031 116.375 138.269531 C 117.234375 138.332031 118.078125 138.476562 118.910156 138.707031 C 119.742188 138.933594 120.542969 139.242188 121.3125 139.628906 C 122.082031 140.015625 122.808594 140.472656 123.488281 141 C 124.167969 141.53125 124.789062 142.121094 125.355469 142.773438 C 125.917969 143.425781 126.414062 144.125 126.839844 144.875 C 127.265625 145.621094 127.613281 146.40625 127.882812 147.222656 C 128.15625 148.042969 128.34375 148.878906 128.453125 149.734375 C 128.558594 150.589844 128.582031 151.445312 128.519531 152.304688 C 128.457031 153.164062 128.3125 154.011719 128.082031 154.839844 C 127.855469 155.671875 127.546875 156.472656 127.160156 157.242188 C 126.632812 158.292969 126.136719 159.359375 125.664062 160.433594 C 125.191406 161.511719 124.75 162.597656 124.335938 163.699219 C 123.921875 164.800781 123.535156 165.910156 123.179688 167.027344 C 122.824219 168.148438 122.496094 169.277344 122.199219 170.414062 C 121.902344 171.550781 121.632812 172.695312 121.394531 173.847656 C 121.15625 175 120.949219 176.15625 120.773438 177.316406 C 120.59375 178.476562 120.449219 179.644531 120.332031 180.8125 C 120.214844 181.984375 120.128906 183.15625 120.074219 184.328125 C 120.019531 185.503906 119.996094 186.679688 120 187.851562 C 120.007812 189.027344 120.042969 190.203125 120.113281 191.375 C 120.179688 192.550781 120.277344 193.71875 120.40625 194.890625 C 120.535156 196.058594 120.691406 197.222656 120.882812 198.382812 C 121.070312 199.542969 121.292969 200.695312 121.542969 201.84375 C 121.792969 202.992188 122.070312 204.132812 122.378906 205.265625 C 122.691406 206.402344 123.027344 207.527344 123.398438 208.644531 C 123.765625 209.757812 124.160156 210.863281 124.585938 211.960938 C 125.011719 213.054688 125.46875 214.140625 125.949219 215.210938 C 126.433594 216.28125 126.941406 217.339844 127.480469 218.386719 C 128.019531 219.429688 128.582031 220.460938 129.175781 221.476562 C 129.765625 222.492188 130.382812 223.492188 131.027344 224.476562 C 131.671875 225.457031 132.339844 226.425781 133.035156 227.371094 C 133.730469 228.320312 134.449219 229.25 135.191406 230.160156 C 135.933594 231.074219 136.699219 231.964844 137.488281 232.835938 C 138.277344 233.707031 139.089844 234.554688 139.925781 235.382812 C 140.757812 236.210938 141.613281 237.019531 142.488281 237.800781 C 143.363281 238.585938 144.261719 239.34375 145.175781 240.082031 C 146.089844 240.820312 147.027344 241.53125 147.976562 242.21875 C 148.929688 242.910156 149.902344 243.570312 150.890625 244.207031 C 151.875 244.847656 152.878906 245.457031 153.898438 246.042969 C 154.917969 246.628906 155.953125 247.1875 157 247.714844 C 158.050781 248.246094 159.109375 248.75 160.1875 249.226562 C 161.261719 249.703125 162.347656 250.148438 163.445312 250.570312 C 164.542969 250.988281 165.652344 251.378906 166.769531 251.738281 C 167.890625 252.097656 169.015625 252.429688 170.152344 252.734375 C 171.289062 253.035156 172.429688 253.308594 173.582031 253.550781 C 174.730469 253.792969 175.886719 254.003906 177.046875 254.1875 C 178.210938 254.367188 179.375 254.519531 180.542969 254.640625 C 181.710938 254.761719 182.882812 254.851562 184.058594 254.914062 C 185.230469 254.972656 186.40625 255 187.582031 255 C 188.757812 255 189.929688 254.964844 191.105469 254.902344 C 192.277344 254.839844 193.449219 254.746094 194.617188 254.625 C 195.789062 254.5 196.953125 254.34375 198.113281 254.160156 C 199.273438 253.976562 200.429688 253.761719 201.578125 253.515625 C 202.726562 253.269531 203.871094 252.996094 205.003906 252.691406 C 206.140625 252.386719 207.265625 252.050781 208.382812 251.6875 C 209.503906 251.324219 210.609375 250.933594 211.707031 250.511719 C 212.804688 250.089844 213.890625 249.640625 214.964844 249.160156 C 216.035156 248.683594 217.097656 248.175781 218.144531 247.644531 C 219.191406 247.109375 220.222656 246.546875 221.242188 245.960938 C 222.261719 245.375 223.261719 244.761719 224.246094 244.121094 C 225.234375 243.480469 226.203125 242.816406 227.152344 242.125 C 228.105469 241.433594 229.039062 240.71875 229.949219 239.980469 C 230.863281 239.242188 231.757812 238.476562 232.632812 237.691406 C 233.507812 236.90625 234.359375 236.097656 235.191406 235.269531 C 236.023438 234.4375 236.832031 233.585938 237.621094 232.714844 C 238.40625 231.839844 239.171875 230.949219 239.910156 230.035156 C 240.652344 229.121094 241.367188 228.191406 242.0625 227.242188 C 242.753906 226.292969 243.417969 225.324219 244.0625 224.339844 C 244.703125 223.355469 245.316406 222.351562 245.90625 221.335938 C 246.496094 220.320312 247.058594 219.289062 247.59375 218.242188 C 248.128906 217.195312 248.636719 216.136719 249.117188 215.0625 C 249.597656 213.988281 250.046875 212.90625 250.472656 211.808594 C 250.894531 210.710938 251.289062 209.605469 251.652344 208.488281 C 252.019531 207.371094 252.355469 206.246094 252.664062 205.109375 C 252.96875 203.976562 253.246094 202.832031 253.492188 201.683594 C 253.738281 200.535156 253.957031 199.378906 254.144531 198.21875 C 254.328125 197.058594 254.484375 195.894531 254.613281 194.726562 C 254.738281 193.558594 254.832031 192.386719 254.898438 191.214844 C 254.960938 190.039062 254.996094 188.867188 255 187.691406 C 255.003906 186.515625 254.976562 185.339844 254.917969 184.167969 C 254.859375 182.992188 254.769531 181.820312 254.652344 180.652344 C 254.53125 179.480469 254.382812 178.316406 254.203125 177.15625 C 254.023438 175.992188 253.8125 174.839844 253.570312 173.6875 C 253.332031 172.535156 253.0625 171.394531 252.761719 170.257812 C 252.460938 169.121094 252.128906 167.992188 251.769531 166.875 C 251.414062 165.753906 251.023438 164.644531 250.605469 163.546875 C 250.191406 162.449219 249.746094 161.359375 249.269531 160.285156 C 248.796875 159.210938 248.296875 158.148438 247.765625 157.097656 C 247.238281 156.046875 246.679688 155.011719 246.097656 153.992188 C 245.511719 152.972656 244.902344 151.96875 244.265625 150.980469 C 243.632812 149.992188 242.96875 149.019531 242.285156 148.066406 C 241.597656 147.113281 240.886719 146.175781 240.152344 145.261719 C 239.414062 144.34375 238.65625 143.445312 237.875 142.570312 C 237.089844 141.691406 236.285156 140.835938 235.460938 140 C 234.632812 139.167969 233.785156 138.351562 232.914062 137.5625 C 232.046875 136.773438 231.15625 136.003906 230.246094 135.261719 C 229.335938 134.515625 228.40625 133.796875 227.460938 133.101562 C 226.511719 132.402344 225.546875 131.734375 224.566406 131.085938 C 223.585938 130.441406 222.585938 129.824219 221.570312 129.230469 C 220.554688 128.636719 219.527344 128.070312 218.484375 127.53125 C 217.4375 126.992188 216.382812 126.480469 215.308594 125.996094 C 214.238281 125.511719 213.15625 125.054688 212.0625 124.628906 C 210.964844 124.199219 209.863281 123.800781 208.746094 123.429688 C 207.628906 123.0625 206.503906 122.71875 205.371094 122.410156 C 204.238281 122.097656 203.097656 121.816406 201.949219 121.566406 C 200.800781 121.3125 199.648438 121.089844 198.488281 120.902344 C 197.636719 120.761719 196.808594 120.539062 196.003906 120.234375 C 195.195312 119.929688 194.425781 119.550781 193.695312 119.097656 C 192.964844 118.640625 192.28125 118.121094 191.652344 117.53125 C 191.023438 116.941406 190.460938 116.296875 189.957031 115.597656 C 189.457031 114.894531 189.027344 114.152344 188.671875 113.367188 C 188.316406 112.582031 188.039062 111.769531 187.84375 110.933594 C 187.648438 110.09375 187.535156 109.242188 187.507812 108.382812 C 187.480469 107.519531 187.535156 106.664062 187.675781 105.8125 C 187.816406 104.964844 188.039062 104.136719 188.339844 103.328125 C 188.644531 102.523438 189.023438 101.753906 189.476562 101.019531 C 189.933594 100.289062 190.457031 99.609375 191.042969 98.980469 C 191.632812 98.351562 192.277344 97.785156 192.980469 97.28125 C 193.679688 96.78125 194.421875 96.351562 195.207031 95.996094 C 195.992188 95.640625 196.804688 95.363281 197.644531 95.167969 C 198.484375 94.972656 199.332031 94.859375 200.195312 94.832031 C 201.054688 94.804688 201.910156 94.859375 202.761719 95 Z M 202.761719 95 " fill-opacity="1" fill-rule="nonzero"/></g><g fill="#ffffff" fill-opacity="1"><g transform="translate(142.968745, 202.874987)"><g><path d="M 22.8125 -8.546875 C 22.8125 -5.710938 21.910156 -3.503906 20.109375 -1.921875 C 18.316406 -0.347656 15.742188 0.4375 12.390625 0.4375 C 9.109375 0.4375 6.546875 -0.335938 4.703125 -1.890625 C 2.859375 -3.441406 1.9375 -5.644531 1.9375 -8.5 C 1.9375 -10.5 2.503906 -12.175781 3.640625 -13.53125 C 4.785156 -14.894531 6.253906 -15.722656 8.046875 -16.015625 L 8.046875 -16.09375 C 6.378906 -16.488281 5.0625 -17.335938 4.09375 -18.640625 C 3.132812 -19.941406 2.65625 -21.472656 2.65625 -23.234375 C 2.65625 -25.554688 3.523438 -27.441406 5.265625 -28.890625 C 7.015625 -30.347656 9.359375 -31.078125 12.296875 -31.078125 C 15.304688 -31.078125 17.679688 -30.363281 19.421875 -28.9375 C 21.171875 -27.519531 22.046875 -25.601562 22.046875 -23.1875 C 22.046875 -21.4375 21.5625 -19.90625 20.59375 -18.59375 C 19.625 -17.289062 18.300781 -16.472656 16.625 -16.140625 L 16.625 -16.0625 C 18.582031 -15.738281 20.101562 -14.90625 21.1875 -13.5625 C 22.269531 -12.226562 22.8125 -10.554688 22.8125 -8.546875 Z M 17.984375 -22.96875 C 17.984375 -26.425781 16.085938 -28.15625 12.296875 -28.15625 C 10.453125 -28.15625 9.050781 -27.71875 8.09375 -26.84375 C 7.132812 -25.976562 6.65625 -24.6875 6.65625 -22.96875 C 6.65625 -21.21875 7.148438 -19.878906 8.140625 -18.953125 C 9.128906 -18.035156 10.53125 -17.578125 12.34375 -17.578125 C 14.175781 -17.578125 15.570312 -18 16.53125 -18.84375 C 17.5 -19.695312 17.984375 -21.070312 17.984375 -22.96875 Z M 18.75 -8.90625 C 18.75 -10.800781 18.179688 -12.226562 17.046875 -13.1875 C 15.921875 -14.15625 14.335938 -14.640625 12.296875 -14.640625 C 10.316406 -14.640625 8.765625 -14.117188 7.640625 -13.078125 C 6.523438 -12.046875 5.96875 -10.628906 5.96875 -8.828125 C 5.96875 -4.609375 8.117188 -2.5 12.421875 -2.5 C 14.554688 -2.5 16.144531 -3.007812 17.1875 -4.03125 C 18.226562 -5.050781 18.75 -6.675781 18.75 -8.90625 Z M 18.75 -8.90625 "/></g></g></g><g fill="#ffffff" fill-opacity="1"><g transform="translate(167.715356, 202.874987)"><g><path d="M 22.875 -9.96875 C 22.875 -6.738281 21.914062 -4.195312 20 -2.34375 C 18.082031 -0.488281 15.421875 0.4375 12.015625 0.4375 C 9.160156 0.4375 6.859375 -0.179688 5.109375 -1.421875 C 3.359375 -2.671875 2.25 -4.476562 1.78125 -6.84375 L 5.734375 -7.296875 C 6.554688 -4.273438 8.679688 -2.765625 12.109375 -2.765625 C 14.203125 -2.765625 15.84375 -3.394531 17.03125 -4.65625 C 18.21875 -5.925781 18.8125 -7.671875 18.8125 -9.890625 C 18.8125 -11.816406 18.210938 -13.375 17.015625 -14.5625 C 15.828125 -15.75 14.21875 -16.34375 12.1875 -16.34375 C 11.132812 -16.34375 10.148438 -16.175781 9.234375 -15.84375 C 8.316406 -15.507812 7.40625 -14.941406 6.5 -14.140625 L 2.671875 -14.140625 L 3.6875 -30.609375 L 21.09375 -30.609375 L 21.09375 -27.296875 L 7.25 -27.296875 L 6.671875 -17.578125 C 8.367188 -18.878906 10.476562 -19.53125 13 -19.53125 C 16.007812 -19.53125 18.40625 -18.644531 20.1875 -16.875 C 21.976562 -15.113281 22.875 -12.8125 22.875 -9.96875 Z M 22.875 -9.96875 "/></g></g></g><g fill="#ffffff" fill-opacity="1"><g transform="translate(192.461966, 202.874987)"><g><path d="M 37.984375 -9.4375 C 37.984375 -6.320312 37.394531 -3.925781 36.21875 -2.25 C 35.050781 -0.570312 33.320312 0.265625 31.03125 0.265625 C 28.769531 0.265625 27.0625 -0.546875 25.90625 -2.171875 C 24.757812 -3.804688 24.1875 -6.226562 24.1875 -9.4375 C 24.1875 -12.738281 24.738281 -15.195312 25.84375 -16.8125 C 26.957031 -18.425781 28.710938 -19.234375 31.109375 -19.234375 C 33.484375 -19.234375 35.222656 -18.398438 36.328125 -16.734375 C 37.429688 -15.078125 37.984375 -12.644531 37.984375 -9.4375 Z M 11.453125 0 L 8.078125 0 L 28.109375 -30.609375 L 31.53125 -30.609375 Z M 8.5625 -30.875 C 10.863281 -30.875 12.570312 -30.0625 13.6875 -28.4375 C 14.800781 -26.820312 15.359375 -24.40625 15.359375 -21.1875 C 15.359375 -18.039062 14.78125 -15.617188 13.625 -13.921875 C 12.476562 -12.234375 10.757812 -11.390625 8.46875 -11.390625 C 6.1875 -11.390625 4.46875 -12.226562 3.3125 -13.90625 C 2.164062 -15.582031 1.59375 -18.007812 1.59375 -21.1875 C 1.59375 -24.414062 2.148438 -26.835938 3.265625 -28.453125 C 4.378906 -30.066406 6.144531 -30.875 8.5625 -30.875 Z M 34.765625 -9.4375 C 34.765625 -12.019531 34.484375 -13.894531 33.921875 -15.0625 C 33.367188 -16.226562 32.429688 -16.8125 31.109375 -16.8125 C 29.796875 -16.8125 28.84375 -16.238281 28.25 -15.09375 C 27.664062 -13.957031 27.375 -12.070312 27.375 -9.4375 C 27.375 -6.957031 27.660156 -5.117188 28.234375 -3.921875 C 28.804688 -2.722656 29.753906 -2.125 31.078125 -2.125 C 32.347656 -2.125 33.28125 -2.726562 33.875 -3.9375 C 34.46875 -5.15625 34.765625 -6.988281 34.765625 -9.4375 Z M 12.171875 -21.1875 C 12.171875 -23.738281 11.894531 -25.597656 11.34375 -26.765625 C 10.789062 -27.941406 9.863281 -28.53125 8.5625 -28.53125 C 7.195312 -28.53125 6.222656 -27.953125 5.640625 -26.796875 C 5.066406 -25.648438 4.78125 -23.78125 4.78125 -21.1875 C 4.78125 -18.675781 5.066406 -16.820312 5.640625 -15.625 C 6.222656 -14.4375 7.179688 -13.84375 8.515625 -13.84375 C 9.773438 -13.84375 10.695312 -14.445312 11.28125 -15.65625 C 11.875 -16.875 12.171875 -18.71875 12.171875 -21.1875 Z M 12.171875 -21.1875 "/></g></g></g></svg>