<svg xmlns="http://www.w3.org/2000/svg" xmlns:xlink="http://www.w3.org/1999/xlink" width="500" zoomAndPan="magnify" viewBox="0 0 375 374.999991" height="500" preserveAspectRatio="xMidYMid meet" version="1.0"><defs><clipPath id="id1"><path d="M 140.589844 210 L 188 210 L 188 258 L 140.589844 258 Z M 140.589844 210 " clip-rule="nonzero"/></clipPath><clipPath id="id2"><path d="M 140.589844 163 L 188 163 L 188 211 L 140.589844 211 Z M 140.589844 163 " clip-rule="nonzero"/></clipPath><clipPath id="id3"><path d="M 140.589844 116 L 188 116 L 188 164 L 140.589844 164 Z M 140.589844 116 " clip-rule="nonzero"/></clipPath><clipPath id="id4"><path d="M 187 116 L 234.339844 116 L 234.339844 164 L 187 164 Z M 187 116 " clip-rule="nonzero"/></clipPath><clipPath id="id5"><path d="M 187 163 L 234.339844 163 L 234.339844 211 L 187 211 Z M 187 163 " clip-rule="nonzero"/></clipPath></defs><g clip-path="url(#id1)"><path fill="#0acf83" d="M 163.753906 257.949219 C 164.523438 257.949219 165.292969 257.910156 166.058594 257.835938 C 166.824219 257.757812 167.585938 257.644531 168.34375 257.496094 C 169.097656 257.34375 169.84375 257.160156 170.582031 256.933594 C 171.320312 256.710938 172.046875 256.453125 172.757812 256.15625 C 173.46875 255.859375 174.164062 255.53125 174.84375 255.167969 C 175.523438 254.804688 176.183594 254.410156 176.824219 253.980469 C 177.464844 253.550781 178.082031 253.09375 178.679688 252.605469 C 179.273438 252.113281 179.84375 251.597656 180.390625 251.050781 C 180.933594 250.507812 181.453125 249.9375 181.941406 249.339844 C 182.429688 248.746094 182.886719 248.125 183.316406 247.484375 C 183.746094 246.84375 184.140625 246.183594 184.503906 245.503906 C 184.867188 244.824219 185.195312 244.125 185.492188 243.414062 C 185.785156 242.703125 186.046875 241.976562 186.269531 241.238281 C 186.492188 240.5 186.679688 239.753906 186.828125 238.996094 C 186.980469 238.242188 187.09375 237.480469 187.167969 236.710938 C 187.246094 235.945312 187.28125 235.175781 187.28125 234.402344 L 187.28125 210.859375 L 163.753906 210.859375 C 162.980469 210.859375 162.214844 210.898438 161.445312 210.972656 C 160.679688 211.050781 159.917969 211.164062 159.164062 211.3125 C 158.40625 211.464844 157.660156 211.648438 156.921875 211.875 C 156.183594 212.097656 155.460938 212.355469 154.75 212.652344 C 154.035156 212.949219 153.339844 213.277344 152.660156 213.640625 C 151.980469 214.003906 151.320312 214.398438 150.679688 214.828125 C 150.039062 215.257812 149.421875 215.714844 148.824219 216.203125 C 148.230469 216.695312 147.660156 217.210938 147.113281 217.757812 C 146.570312 218.300781 146.054688 218.871094 145.5625 219.46875 C 145.074219 220.0625 144.617188 220.683594 144.1875 221.324219 C 143.761719 221.964844 143.363281 222.625 143 223.304688 C 142.636719 223.984375 142.308594 224.683594 142.015625 225.394531 C 141.71875 226.105469 141.460938 226.832031 141.238281 227.570312 C 141.011719 228.308594 140.824219 229.054688 140.675781 229.8125 C 140.523438 230.566406 140.410156 231.328125 140.335938 232.097656 C 140.261719 232.863281 140.222656 233.632812 140.222656 234.402344 C 140.222656 235.175781 140.261719 235.945312 140.335938 236.710938 C 140.410156 237.480469 140.523438 238.242188 140.675781 238.996094 C 140.824219 239.753906 141.011719 240.5 141.238281 241.238281 C 141.460938 241.976562 141.71875 242.703125 142.015625 243.414062 C 142.308594 244.125 142.636719 244.824219 143 245.503906 C 143.363281 246.183594 143.761719 246.84375 144.1875 247.484375 C 144.617188 248.125 145.074219 248.746094 145.5625 249.339844 C 146.054688 249.9375 146.570312 250.507812 147.113281 251.050781 C 147.660156 251.597656 148.230469 252.113281 148.824219 252.605469 C 149.421875 253.09375 150.039062 253.550781 150.679688 253.980469 C 151.320312 254.410156 151.980469 254.804688 152.660156 255.167969 C 153.339844 255.53125 154.035156 255.859375 154.75 256.15625 C 155.460938 256.453125 156.183594 256.710938 156.921875 256.933594 C 157.660156 257.160156 158.40625 257.34375 159.164062 257.496094 C 159.917969 257.644531 160.679688 257.757812 161.445312 257.835938 C 162.214844 257.910156 162.980469 257.949219 163.753906 257.949219 Z M 163.753906 257.949219 " fill-opacity="1" fill-rule="nonzero"/></g><g clip-path="url(#id2)"><path fill="#a259ff" d="M 140.222656 187.316406 C 140.222656 186.546875 140.261719 185.777344 140.335938 185.007812 C 140.410156 184.242188 140.523438 183.480469 140.675781 182.722656 C 140.824219 181.964844 141.011719 181.21875 141.238281 180.480469 C 141.460938 179.742188 141.71875 179.019531 142.015625 178.304688 C 142.308594 177.59375 142.636719 176.898438 143 176.21875 C 143.363281 175.539062 143.761719 174.875 144.1875 174.234375 C 144.617188 173.59375 145.074219 172.976562 145.5625 172.378906 C 146.054688 171.785156 146.570312 171.214844 147.113281 170.667969 C 147.660156 170.121094 148.230469 169.605469 148.824219 169.117188 C 149.421875 168.628906 150.039062 168.167969 150.679688 167.738281 C 151.320312 167.3125 151.980469 166.914062 152.660156 166.550781 C 153.339844 166.1875 154.035156 165.859375 154.75 165.5625 C 155.460938 165.269531 156.183594 165.007812 156.921875 164.785156 C 157.660156 164.5625 158.40625 164.375 159.164062 164.222656 C 159.917969 164.074219 160.679688 163.960938 161.445312 163.886719 C 162.214844 163.808594 162.980469 163.773438 163.753906 163.773438 L 187.28125 163.773438 L 187.28125 210.859375 L 163.753906 210.859375 C 162.980469 210.859375 162.214844 210.824219 161.445312 210.746094 C 160.679688 210.671875 159.917969 210.558594 159.164062 210.40625 C 158.40625 210.257812 157.660156 210.070312 156.921875 209.847656 C 156.183594 209.621094 155.460938 209.363281 154.75 209.066406 C 154.035156 208.773438 153.339844 208.445312 152.660156 208.082031 C 151.980469 207.714844 151.320312 207.320312 150.679688 206.890625 C 150.039062 206.464844 149.421875 206.003906 148.824219 205.515625 C 148.230469 205.027344 147.660156 204.507812 147.113281 203.964844 C 146.570312 203.417969 146.054688 202.847656 145.5625 202.253906 C 145.074219 201.65625 144.617188 201.039062 144.1875 200.394531 C 143.761719 199.753906 143.363281 199.09375 143 198.414062 C 142.636719 197.734375 142.308594 197.039062 142.015625 196.324219 C 141.71875 195.613281 141.460938 194.886719 141.238281 194.152344 C 141.011719 193.414062 140.824219 192.664062 140.675781 191.910156 C 140.523438 191.152344 140.410156 190.390625 140.335938 189.625 C 140.261719 188.855469 140.222656 188.085938 140.222656 187.316406 Z M 140.222656 187.316406 " fill-opacity="1" fill-rule="nonzero"/></g><g clip-path="url(#id3)"><path fill="#f24e1e" d="M 140.222656 140.226562 C 140.222656 139.457031 140.261719 138.6875 140.335938 137.921875 C 140.410156 137.152344 140.523438 136.394531 140.675781 135.636719 C 140.824219 134.882812 141.011719 134.132812 141.234375 133.398438 C 141.457031 132.660156 141.71875 131.933594 142.011719 131.222656 C 142.308594 130.511719 142.636719 129.8125 143 129.132812 C 143.363281 128.453125 143.757812 127.792969 144.183594 127.152344 C 144.613281 126.511719 145.070312 125.894531 145.558594 125.296875 C 146.046875 124.703125 146.5625 124.132812 147.109375 123.585938 C 147.652344 123.039062 148.222656 122.523438 148.816406 122.035156 C 149.414062 121.546875 150.03125 121.085938 150.671875 120.65625 C 151.3125 120.230469 151.972656 119.832031 152.648438 119.46875 C 153.328125 119.105469 154.023438 118.777344 154.734375 118.480469 C 155.445312 118.1875 156.171875 117.925781 156.90625 117.703125 C 157.644531 117.476562 158.390625 117.289062 159.148438 117.140625 C 159.902344 116.988281 160.664062 116.875 161.429688 116.796875 C 162.195312 116.722656 162.964844 116.683594 163.734375 116.683594 L 187.265625 116.683594 L 187.265625 163.773438 L 163.753906 163.773438 C 162.980469 163.773438 162.214844 163.734375 161.445312 163.660156 C 160.679688 163.582031 159.917969 163.46875 159.164062 163.320312 C 158.40625 163.167969 157.660156 162.980469 156.921875 162.757812 C 156.183594 162.535156 155.460938 162.273438 154.75 161.980469 C 154.035156 161.683594 153.339844 161.355469 152.660156 160.992188 C 151.980469 160.628906 151.320312 160.234375 150.679688 159.804688 C 150.039062 159.375 149.421875 158.917969 148.824219 158.425781 C 148.230469 157.9375 147.660156 157.421875 147.113281 156.875 C 146.570312 156.332031 146.054688 155.761719 145.5625 155.164062 C 145.074219 154.566406 144.617188 153.949219 144.1875 153.308594 C 143.761719 152.667969 143.363281 152.007812 143 151.328125 C 142.636719 150.644531 142.308594 149.949219 142.015625 149.238281 C 141.71875 148.523438 141.460938 147.800781 141.238281 147.0625 C 141.011719 146.324219 140.824219 145.578125 140.675781 144.820312 C 140.523438 144.066406 140.410156 143.304688 140.335938 142.535156 C 140.261719 141.769531 140.222656 141 140.222656 140.226562 Z M 140.222656 140.226562 " fill-opacity="1" fill-rule="nonzero"/></g><g clip-path="url(#id4)"><path fill="#ff7262" d="M 187.28125 116.683594 L 210.8125 116.683594 C 211.582031 116.683594 212.351562 116.722656 213.117188 116.796875 C 213.882812 116.871094 214.644531 116.984375 215.402344 117.136719 C 216.15625 117.285156 216.902344 117.472656 217.640625 117.699219 C 218.378906 117.921875 219.105469 118.179688 219.816406 118.476562 C 220.527344 118.769531 221.222656 119.101562 221.902344 119.464844 C 222.582031 119.828125 223.242188 120.222656 223.882812 120.652344 C 224.523438 121.078125 225.144531 121.539062 225.738281 122.027344 C 226.335938 122.515625 226.90625 123.035156 227.449219 123.578125 C 227.996094 124.125 228.511719 124.695312 229 125.292969 C 229.488281 125.886719 229.949219 126.507812 230.375 127.148438 C 230.804688 127.789062 231.199219 128.449219 231.5625 129.128906 C 231.925781 129.808594 232.253906 130.503906 232.550781 131.21875 C 232.84375 131.929688 233.105469 132.65625 233.328125 133.394531 C 233.550781 134.132812 233.738281 134.878906 233.890625 135.632812 C 234.039062 136.390625 234.152344 137.152344 234.226562 137.921875 C 234.304688 138.6875 234.339844 139.457031 234.339844 140.226562 C 234.339844 141 234.304688 141.769531 234.226562 142.535156 C 234.152344 143.304688 234.039062 144.066406 233.890625 144.820312 C 233.738281 145.578125 233.550781 146.324219 233.328125 147.0625 C 233.105469 147.800781 232.84375 148.523438 232.550781 149.238281 C 232.253906 149.949219 231.925781 150.644531 231.5625 151.328125 C 231.199219 152.007812 230.804688 152.667969 230.375 153.308594 C 229.949219 153.949219 229.488281 154.566406 229 155.164062 C 228.511719 155.761719 227.996094 156.332031 227.449219 156.875 C 226.90625 157.421875 226.335938 157.9375 225.738281 158.425781 C 225.144531 158.917969 224.523438 159.375 223.882812 159.804688 C 223.242188 160.234375 222.582031 160.628906 221.902344 160.992188 C 221.222656 161.355469 220.527344 161.683594 219.816406 161.980469 C 219.105469 162.273438 218.378906 162.535156 217.640625 162.757812 C 216.902344 162.980469 216.15625 163.167969 215.402344 163.320312 C 214.644531 163.46875 213.882812 163.582031 213.117188 163.660156 C 212.351562 163.734375 211.582031 163.773438 210.8125 163.773438 L 187.28125 163.773438 Z M 187.28125 116.683594 " fill-opacity="1" fill-rule="nonzero"/></g><g clip-path="url(#id5)"><path fill="#1abcfe" d="M 234.339844 187.316406 C 234.339844 188.085938 234.304688 188.855469 234.226562 189.625 C 234.152344 190.390625 234.039062 191.152344 233.890625 191.910156 C 233.738281 192.664062 233.550781 193.414062 233.328125 194.152344 C 233.105469 194.886719 232.84375 195.613281 232.550781 196.324219 C 232.253906 197.039062 231.925781 197.734375 231.5625 198.414062 C 231.199219 199.09375 230.804688 199.753906 230.375 200.394531 C 229.949219 201.039062 229.488281 201.65625 229 202.253906 C 228.511719 202.847656 227.996094 203.417969 227.449219 203.964844 C 226.90625 204.507812 226.335938 205.027344 225.738281 205.515625 C 225.144531 206.003906 224.523438 206.464844 223.882812 206.890625 C 223.242188 207.320312 222.582031 207.714844 221.902344 208.082031 C 221.222656 208.445312 220.527344 208.773438 219.816406 209.066406 C 219.105469 209.363281 218.378906 209.621094 217.640625 209.847656 C 216.902344 210.070312 216.15625 210.257812 215.402344 210.40625 C 214.644531 210.558594 213.882812 210.671875 213.117188 210.746094 C 212.351562 210.824219 211.582031 210.859375 210.8125 210.859375 C 210.039062 210.859375 209.273438 210.824219 208.503906 210.746094 C 207.738281 210.671875 206.976562 210.558594 206.222656 210.40625 C 205.464844 210.257812 204.71875 210.070312 203.980469 209.847656 C 203.242188 209.621094 202.519531 209.363281 201.808594 209.066406 C 201.09375 208.773438 200.398438 208.445312 199.71875 208.082031 C 199.039062 207.714844 198.378906 207.320312 197.738281 206.890625 C 197.097656 206.464844 196.480469 206.003906 195.882812 205.515625 C 195.289062 205.027344 194.71875 204.507812 194.171875 203.964844 C 193.628906 203.417969 193.113281 202.847656 192.621094 202.253906 C 192.132812 201.65625 191.675781 201.039062 191.246094 200.394531 C 190.820312 199.753906 190.421875 199.09375 190.058594 198.414062 C 189.695312 197.734375 189.367188 197.039062 189.074219 196.324219 C 188.777344 195.613281 188.519531 194.886719 188.296875 194.152344 C 188.070312 193.414062 187.882812 192.664062 187.734375 191.910156 C 187.582031 191.152344 187.472656 190.390625 187.394531 189.625 C 187.320312 188.855469 187.28125 188.085938 187.28125 187.316406 C 187.28125 186.546875 187.320312 185.777344 187.394531 185.007812 C 187.472656 184.242188 187.582031 183.480469 187.734375 182.722656 C 187.882812 181.964844 188.070312 181.21875 188.296875 180.480469 C 188.519531 179.742188 188.777344 179.019531 189.074219 178.304688 C 189.367188 177.59375 189.695312 176.898438 190.058594 176.21875 C 190.421875 175.539062 190.820312 174.875 191.246094 174.234375 C 191.675781 173.59375 192.132812 172.976562 192.621094 172.378906 C 193.113281 171.785156 193.628906 171.214844 194.171875 170.667969 C 194.71875 170.121094 195.289062 169.605469 195.882812 169.117188 C 196.480469 168.628906 197.097656 168.167969 197.738281 167.738281 C 198.378906 167.3125 199.039062 166.914062 199.71875 166.550781 C 200.398438 166.1875 201.09375 165.859375 201.808594 165.5625 C 202.519531 165.269531 203.242188 165.007812 203.980469 164.785156 C 204.71875 164.5625 205.464844 164.375 206.222656 164.222656 C 206.976562 164.074219 207.738281 163.960938 208.503906 163.886719 C 209.273438 163.808594 210.039062 163.773438 210.8125 163.773438 C 211.582031 163.773438 212.351562 163.808594 213.117188 163.886719 C 213.882812 163.960938 214.644531 164.074219 215.402344 164.222656 C 216.15625 164.375 216.902344 164.5625 217.640625 164.785156 C 218.378906 165.007812 219.105469 165.269531 219.816406 165.5625 C 220.527344 165.859375 221.222656 166.1875 221.902344 166.550781 C 222.582031 166.914062 223.242188 167.3125 223.882812 167.738281 C 224.523438 168.167969 225.144531 168.628906 225.738281 169.117188 C 226.335938 169.605469 226.90625 170.121094 227.449219 170.667969 C 227.996094 171.214844 228.511719 171.785156 229 172.378906 C 229.488281 172.976562 229.949219 173.59375 230.375 174.234375 C 230.804688 174.875 231.199219 175.539062 231.5625 176.21875 C 231.925781 176.898438 232.253906 177.59375 232.550781 178.304688 C 232.84375 179.019531 233.105469 179.742188 233.328125 180.480469 C 233.550781 181.21875 233.738281 181.964844 233.890625 182.722656 C 234.039062 183.480469 234.152344 184.242188 234.226562 185.007812 C 234.304688 185.777344 234.339844 186.546875 234.339844 187.316406 Z M 234.339844 187.316406 " fill-opacity="1" fill-rule="nonzero"/></g></svg>