<svg xmlns="http://www.w3.org/2000/svg" xmlns:xlink="http://www.w3.org/1999/xlink" width="500" zoomAndPan="magnify" viewBox="0 0 375 374.999991" height="500" preserveAspectRatio="xMidYMid meet" version="1.0"><defs><clipPath id="id1"><path d="M 112.5 114 L 262.5 114 L 262.5 261 L 112.5 261 Z M 112.5 114 " clip-rule="nonzero"/></clipPath></defs><g clip-path="url(#id1)"><path fill="#ffffff" d="M 187.5 114.050781 C 146.085938 114.050781 112.5 147.632812 112.5 189.050781 C 112.5 222.191406 133.988281 250.304688 163.789062 260.21875 C 167.539062 260.917969 168.914062 258.589844 168.914062 256.609375 C 168.914062 254.824219 168.84375 248.917969 168.8125 242.648438 C 147.949219 247.1875 143.542969 233.800781 143.542969 233.800781 C 140.132812 225.128906 135.214844 222.824219 135.214844 222.824219 C 128.414062 218.171875 135.730469 218.265625 135.730469 218.265625 C 143.261719 218.792969 147.226562 225.996094 147.226562 225.996094 C 153.917969 237.460938 164.773438 234.144531 169.050781 232.230469 C 169.726562 227.382812 171.667969 224.074219 173.8125 222.199219 C 157.15625 220.304688 139.644531 213.871094 139.644531 185.136719 C 139.644531 176.945312 142.574219 170.257812 147.371094 165.003906 C 146.59375 163.117188 144.023438 155.488281 148.097656 145.15625 C 148.097656 145.15625 154.394531 143.140625 168.726562 152.84375 C 174.707031 151.183594 181.125 150.351562 187.5 150.320312 C 193.875 150.351562 200.296875 151.183594 206.289062 152.84375 C 220.605469 143.140625 226.890625 145.15625 226.890625 145.15625 C 230.976562 155.488281 228.410156 163.117188 227.628906 165.003906 C 232.433594 170.257812 235.347656 176.945312 235.347656 185.136719 C 235.347656 213.941406 217.804688 220.28125 201.097656 222.140625 C 203.789062 224.464844 206.191406 229.03125 206.191406 236.03125 C 206.191406 246.0625 206.105469 254.144531 206.105469 256.609375 C 206.105469 258.609375 207.453125 260.945312 211.253906 260.207031 C 241.035156 250.28125 262.5 222.179688 262.5 189.050781 C 262.5 147.632812 228.917969 114.050781 187.5 114.050781 Z M 140.589844 220.890625 C 140.425781 221.265625 139.839844 221.378906 139.304688 221.121094 C 138.761719 220.875 138.457031 220.371094 138.632812 219.996094 C 138.792969 219.609375 139.378906 219.503906 139.921875 219.761719 C 140.46875 220.007812 140.777344 220.515625 140.589844 220.890625 Z M 144.28125 224.183594 C 143.921875 224.511719 143.222656 224.359375 142.746094 223.839844 C 142.257812 223.3125 142.164062 222.613281 142.527344 222.28125 C 142.898438 221.945312 143.574219 222.105469 144.066406 222.625 C 144.558594 223.152344 144.652344 223.851562 144.28125 224.183594 Z M 146.808594 228.398438 C 146.351562 228.714844 145.597656 228.414062 145.136719 227.746094 C 144.675781 227.078125 144.675781 226.28125 145.144531 225.960938 C 145.609375 225.636719 146.351562 225.929688 146.820312 226.59375 C 147.28125 227.265625 147.28125 228.070312 146.808594 228.398438 Z M 151.089844 233.273438 C 150.679688 233.722656 149.804688 233.605469 149.164062 232.984375 C 148.507812 232.382812 148.324219 231.519531 148.738281 231.070312 C 149.152344 230.617188 150.035156 230.742188 150.679688 231.355469 C 151.328125 231.960938 151.527344 232.828125 151.089844 233.273438 Z M 156.621094 234.917969 C 156.441406 235.503906 155.597656 235.773438 154.75 235.523438 C 153.898438 235.269531 153.34375 234.578125 153.515625 233.988281 C 153.691406 233.394531 154.539062 233.113281 155.394531 233.382812 C 156.242188 233.640625 156.800781 234.320312 156.621094 234.917969 Z M 162.917969 235.617188 C 162.9375 236.238281 162.21875 236.746094 161.328125 236.757812 C 160.429688 236.78125 159.703125 236.277344 159.695312 235.667969 C 159.695312 235.046875 160.398438 234.539062 161.296875 234.527344 C 162.1875 234.507812 162.917969 235 162.917969 235.617188 Z M 169.101562 235.382812 C 169.210938 235.984375 168.589844 236.605469 167.703125 236.769531 C 166.832031 236.929688 166.027344 236.554688 165.917969 235.957031 C 165.808594 235.339844 166.441406 234.71875 167.308594 234.5625 C 168.195312 234.402344 168.988281 234.765625 169.101562 235.382812 Z M 169.101562 235.382812 " fill-opacity="1" fill-rule="nonzero"/></g></svg>