<svg xmlns="http://www.w3.org/2000/svg" xmlns:xlink="http://www.w3.org/1999/xlink" width="500" zoomAndPan="magnify" viewBox="0 0 375 374.999991" height="500" preserveAspectRatio="xMidYMid meet" version="1.0"><defs><g/><clipPath id="id1"><path d="M 93.75 93.75 L 281.25 93.75 L 281.25 281.25 L 93.75 281.25 Z M 93.75 93.75 " clip-rule="nonzero"/></clipPath><clipPath id="id2"><path d="M 93.75 94 L 281.25 94 L 281.25 281.25 L 93.75 281.25 Z M 93.75 94 " clip-rule="nonzero"/></clipPath></defs><g clip-path="url(#id1)"><path fill="#151515" d="M 187.5 93.75 C 189.035156 93.75 190.566406 93.789062 192.101562 93.863281 C 193.632812 93.9375 195.164062 94.050781 196.6875 94.203125 C 198.214844 94.351562 199.738281 94.539062 201.257812 94.765625 C 202.773438 94.988281 204.285156 95.253906 205.789062 95.550781 C 207.292969 95.851562 208.792969 96.1875 210.28125 96.558594 C 211.769531 96.933594 213.246094 97.339844 214.714844 97.785156 C 216.183594 98.230469 217.640625 98.714844 219.082031 99.230469 C 220.527344 99.746094 221.960938 100.300781 223.375 100.886719 C 224.792969 101.472656 226.195312 102.09375 227.582031 102.75 C 228.96875 103.40625 230.339844 104.097656 231.695312 104.820312 C 233.046875 105.542969 234.382812 106.300781 235.695312 107.089844 C 237.011719 107.875 238.308594 108.699219 239.585938 109.550781 C 240.859375 110.402344 242.113281 111.285156 243.347656 112.199219 C 244.578125 113.113281 245.789062 114.058594 246.972656 115.03125 C 248.160156 116.003906 249.320312 117.003906 250.457031 118.035156 C 251.59375 119.066406 252.707031 120.125 253.792969 121.207031 C 254.875 122.292969 255.933594 123.40625 256.964844 124.542969 C 257.996094 125.679688 258.996094 126.839844 259.96875 128.027344 C 260.941406 129.210938 261.886719 130.421875 262.800781 131.652344 C 263.714844 132.886719 264.597656 134.140625 265.449219 135.414062 C 266.300781 136.691406 267.125 137.988281 267.910156 139.304688 C 268.699219 140.617188 269.457031 141.953125 270.179688 143.304688 C 270.902344 144.660156 271.59375 146.03125 272.25 147.417969 C 272.90625 148.804688 273.527344 150.207031 274.113281 151.625 C 274.699219 153.039062 275.253906 154.472656 275.769531 155.917969 C 276.285156 157.359375 276.769531 158.816406 277.214844 160.285156 C 277.660156 161.753906 278.066406 163.230469 278.441406 164.71875 C 278.8125 166.207031 279.148438 167.707031 279.449219 169.210938 C 279.746094 170.714844 280.011719 172.226562 280.234375 173.742188 C 280.460938 175.261719 280.648438 176.785156 280.796875 178.3125 C 280.949219 179.835938 281.0625 181.367188 281.136719 182.898438 C 281.210938 184.433594 281.25 185.964844 281.25 187.5 C 281.25 189.035156 281.210938 190.566406 281.136719 192.101562 C 281.0625 193.632812 280.949219 195.164062 280.796875 196.6875 C 280.648438 198.214844 280.460938 199.738281 280.234375 201.257812 C 280.011719 202.773438 279.746094 204.285156 279.449219 205.789062 C 279.148438 207.292969 278.8125 208.792969 278.441406 210.28125 C 278.066406 211.769531 277.660156 213.246094 277.214844 214.714844 C 276.769531 216.183594 276.285156 217.640625 275.769531 219.082031 C 275.253906 220.527344 274.699219 221.960938 274.113281 223.375 C 273.527344 224.792969 272.90625 226.195312 272.25 227.582031 C 271.59375 228.96875 270.902344 230.339844 270.179688 231.695312 C 269.457031 233.046875 268.699219 234.382812 267.910156 235.695312 C 267.125 237.011719 266.300781 238.308594 265.449219 239.585938 C 264.597656 240.859375 263.714844 242.113281 262.800781 243.347656 C 261.886719 244.578125 260.941406 245.789062 259.96875 246.972656 C 258.996094 248.160156 257.996094 249.320312 256.964844 250.457031 C 255.933594 251.59375 254.875 252.707031 253.792969 253.792969 C 252.707031 254.875 251.59375 255.933594 250.457031 256.964844 C 249.320312 257.996094 248.160156 258.996094 246.972656 259.96875 C 245.789062 260.941406 244.578125 261.886719 243.347656 262.800781 C 242.113281 263.714844 240.859375 264.597656 239.585938 265.449219 C 238.308594 266.300781 237.011719 267.125 235.695312 267.910156 C 234.382812 268.699219 233.046875 269.457031 231.695312 270.179688 C 230.339844 270.902344 228.96875 271.59375 227.582031 272.25 C 226.195312 272.90625 224.792969 273.527344 223.375 274.113281 C 221.960938 274.699219 220.527344 275.253906 219.082031 275.769531 C 217.640625 276.285156 216.183594 276.769531 214.714844 277.214844 C 213.246094 277.660156 211.769531 278.066406 210.28125 278.441406 C 208.792969 278.8125 207.292969 279.148438 205.789062 279.449219 C 204.285156 279.746094 202.773438 280.011719 201.257812 280.234375 C 199.738281 280.460938 198.214844 280.648438 196.6875 280.796875 C 195.164062 280.949219 193.632812 281.0625 192.101562 281.136719 C 190.566406 281.210938 189.035156 281.25 187.5 281.25 C 185.964844 281.25 184.433594 281.210938 182.898438 281.136719 C 181.367188 281.0625 179.835938 280.949219 178.3125 280.796875 C 176.785156 280.648438 175.261719 280.460938 173.742188 280.234375 C 172.226562 280.011719 170.714844 279.746094 169.210938 279.449219 C 167.707031 279.148438 166.207031 278.8125 164.71875 278.441406 C 163.230469 278.066406 161.753906 277.660156 160.285156 277.214844 C 158.816406 276.769531 157.359375 276.285156 155.917969 275.769531 C 154.472656 275.253906 153.039062 274.699219 151.625 274.113281 C 150.207031 273.527344 148.804688 272.90625 147.417969 272.25 C 146.03125 271.59375 144.660156 270.902344 143.304688 270.179688 C 141.953125 269.457031 140.617188 268.699219 139.304688 267.910156 C 137.988281 267.125 136.691406 266.300781 135.414062 265.449219 C 134.140625 264.597656 132.886719 263.714844 131.652344 262.800781 C 130.421875 261.886719 129.210938 260.941406 128.027344 259.96875 C 126.839844 258.996094 125.679688 257.996094 124.542969 256.964844 C 123.40625 255.933594 122.292969 254.875 121.207031 253.792969 C 120.125 252.707031 119.066406 251.59375 118.035156 250.457031 C 117.003906 249.320312 116.003906 248.160156 115.03125 246.972656 C 114.058594 245.789062 113.113281 244.578125 112.199219 243.347656 C 111.285156 242.113281 110.402344 240.859375 109.550781 239.585938 C 108.699219 238.308594 107.875 237.011719 107.089844 235.695312 C 106.300781 234.382812 105.542969 233.046875 104.820312 231.695312 C 104.097656 230.339844 103.40625 228.96875 102.75 227.582031 C 102.09375 226.195312 101.472656 224.792969 100.886719 223.375 C 100.300781 221.960938 99.746094 220.527344 99.230469 219.082031 C 98.714844 217.640625 98.230469 216.183594 97.785156 214.714844 C 97.339844 213.246094 96.933594 211.769531 96.558594 210.28125 C 96.1875 208.792969 95.851562 207.292969 95.550781 205.789062 C 95.253906 204.285156 94.988281 202.773438 94.765625 201.257812 C 94.539062 199.738281 94.351562 198.214844 94.203125 196.6875 C 94.050781 195.164062 93.9375 193.632812 93.863281 192.101562 C 93.789062 190.566406 93.75 189.035156 93.75 187.5 C 93.75 185.964844 93.789062 184.433594 93.863281 182.898438 C 93.9375 181.367188 94.050781 179.835938 94.203125 178.3125 C 94.351562 176.785156 94.539062 175.261719 94.765625 173.742188 C 94.988281 172.226562 95.253906 170.714844 95.550781 169.210938 C 95.851562 167.707031 96.1875 166.207031 96.558594 164.71875 C 96.933594 163.230469 97.339844 161.753906 97.785156 160.285156 C 98.230469 158.816406 98.714844 157.359375 99.230469 155.917969 C 99.746094 154.472656 100.300781 153.039062 100.886719 151.625 C 101.472656 150.207031 102.09375 148.804688 102.75 147.417969 C 103.40625 146.03125 104.097656 144.660156 104.820312 143.304688 C 105.542969 141.953125 106.300781 140.617188 107.089844 139.304688 C 107.875 137.988281 108.699219 136.691406 109.550781 135.414062 C 110.402344 134.140625 111.285156 132.886719 112.199219 131.652344 C 113.113281 130.421875 114.058594 129.210938 115.03125 128.027344 C 116.003906 126.839844 117.003906 125.679688 118.035156 124.542969 C 119.066406 123.40625 120.125 122.292969 121.207031 121.207031 C 122.292969 120.125 123.40625 119.066406 124.542969 118.035156 C 125.679688 117.003906 126.839844 116.003906 128.027344 115.03125 C 129.210938 114.058594 130.421875 113.113281 131.652344 112.199219 C 132.886719 111.285156 134.140625 110.402344 135.414062 109.550781 C 136.691406 108.699219 137.988281 107.875 139.304688 107.089844 C 140.617188 106.300781 141.953125 105.542969 143.304688 104.820312 C 144.660156 104.097656 146.03125 103.40625 147.417969 102.75 C 148.804688 102.09375 150.207031 101.472656 151.625 100.886719 C 153.039062 100.300781 154.472656 99.746094 155.917969 99.230469 C 157.359375 98.714844 158.816406 98.230469 160.285156 97.785156 C 161.753906 97.339844 163.230469 96.933594 164.71875 96.558594 C 166.207031 96.1875 167.707031 95.851562 169.210938 95.550781 C 170.714844 95.253906 172.226562 94.988281 173.742188 94.765625 C 175.261719 94.539062 176.785156 94.351562 178.3125 94.203125 C 179.835938 94.050781 181.367188 93.9375 182.898438 93.863281 C 184.433594 93.789062 185.964844 93.75 187.5 93.75 L 187.5 120 C 186.394531 120 185.292969 120.027344 184.1875 120.082031 C 183.085938 120.136719 181.984375 120.214844 180.882812 120.324219 C 179.785156 120.433594 178.6875 120.570312 177.59375 120.730469 C 176.503906 120.894531 175.414062 121.082031 174.332031 121.296875 C 173.246094 121.511719 172.171875 121.753906 171.097656 122.023438 C 170.027344 122.292969 168.960938 122.585938 167.90625 122.90625 C 166.847656 123.226562 165.800781 123.574219 164.761719 123.945312 C 163.71875 124.316406 162.691406 124.714844 161.667969 125.136719 C 160.648438 125.5625 159.636719 126.007812 158.640625 126.480469 C 157.640625 126.953125 156.65625 127.449219 155.679688 127.96875 C 154.707031 128.492188 153.746094 129.035156 152.796875 129.601562 C 151.851562 130.171875 150.917969 130.761719 150 131.375 C 149.082031 131.988281 148.175781 132.625 147.289062 133.285156 C 146.402344 133.941406 145.53125 134.621094 144.679688 135.320312 C 143.824219 136.023438 142.988281 136.742188 142.167969 137.484375 C 141.351562 138.226562 140.550781 138.988281 139.769531 139.769531 C 138.988281 140.550781 138.226562 141.351562 137.484375 142.167969 C 136.742188 142.988281 136.023438 143.824219 135.320312 144.679688 C 134.621094 145.53125 133.941406 146.402344 133.285156 147.289062 C 132.625 148.175781 131.988281 149.082031 131.375 150 C 130.761719 150.917969 130.171875 151.851562 129.601562 152.796875 C 129.035156 153.746094 128.492188 154.707031 127.96875 155.679688 C 127.449219 156.65625 126.953125 157.640625 126.480469 158.640625 C 126.007812 159.636719 125.5625 160.648438 125.136719 161.667969 C 124.714844 162.691406 124.316406 163.71875 123.945312 164.761719 C 123.574219 165.800781 123.226562 166.847656 122.90625 167.90625 C 122.585938 168.964844 122.292969 170.027344 122.023438 171.097656 C 121.753906 172.171875 121.511719 173.246094 121.296875 174.332031 C 121.082031 175.414062 120.894531 176.503906 120.730469 177.59375 C 120.570312 178.6875 120.433594 179.785156 120.324219 180.882812 C 120.214844 181.984375 120.136719 183.085938 120.082031 184.1875 C 120.027344 185.292969 120 186.394531 120 187.5 C 120 188.605469 120.027344 189.707031 120.082031 190.8125 C 120.136719 191.914062 120.214844 193.015625 120.324219 194.117188 C 120.433594 195.214844 120.570312 196.3125 120.730469 197.402344 C 120.894531 198.496094 121.082031 199.585938 121.296875 200.667969 C 121.511719 201.753906 121.753906 202.828125 122.023438 203.902344 C 122.292969 204.972656 122.585938 206.035156 122.90625 207.09375 C 123.226562 208.152344 123.574219 209.199219 123.945312 210.238281 C 124.316406 211.28125 124.714844 212.308594 125.136719 213.332031 C 125.5625 214.351562 126.007812 215.359375 126.480469 216.359375 C 126.953125 217.359375 127.449219 218.34375 127.96875 219.320312 C 128.492188 220.292969 129.035156 221.253906 129.601562 222.203125 C 130.171875 223.148438 130.761719 224.082031 131.375 225 C 131.988281 225.917969 132.625 226.824219 133.285156 227.710938 C 133.941406 228.597656 134.621094 229.46875 135.320312 230.320312 C 136.023438 231.175781 136.742188 232.011719 137.484375 232.832031 C 138.226562 233.648438 138.988281 234.449219 139.769531 235.230469 C 140.550781 236.011719 141.351562 236.773438 142.167969 237.515625 C 142.988281 238.257812 143.824219 238.976562 144.679688 239.679688 C 145.53125 240.378906 146.402344 241.058594 147.289062 241.714844 C 148.175781 242.375 149.082031 243.011719 150 243.625 C 150.917969 244.238281 151.851562 244.828125 152.796875 245.398438 C 153.746094 245.964844 154.707031 246.507812 155.679688 247.03125 C 156.65625 247.550781 157.640625 248.046875 158.640625 248.519531 C 159.636719 248.992188 160.648438 249.4375 161.667969 249.863281 C 162.691406 250.285156 163.71875 250.683594 164.761719 251.054688 C 165.800781 251.425781 166.847656 251.773438 167.90625 252.09375 C 168.964844 252.414062 170.027344 252.707031 171.097656 252.976562 C 172.171875 253.246094 173.246094 253.488281 174.332031 253.703125 C 175.414062 253.917969 176.503906 254.105469 177.59375 254.269531 C 178.6875 254.429688 179.785156 254.566406 180.882812 254.675781 C 181.984375 254.785156 183.085938 254.863281 184.1875 254.917969 C 185.292969 254.972656 186.394531 255 187.5 255 C 188.605469 255 189.707031 254.972656 190.8125 254.917969 C 191.914062 254.863281 193.015625 254.785156 194.117188 254.675781 C 195.214844 254.566406 196.3125 254.429688 197.402344 254.269531 C 198.496094 254.105469 199.585938 253.917969 200.667969 253.703125 C 201.753906 253.488281 202.828125 253.246094 203.902344 252.976562 C 204.972656 252.707031 206.035156 252.414062 207.09375 252.09375 C 208.152344 251.773438 209.199219 251.425781 210.238281 251.054688 C 211.28125 250.683594 212.308594 250.285156 213.332031 249.863281 C 214.351562 249.4375 215.359375 248.992188 216.359375 248.519531 C 217.359375 248.046875 218.34375 247.550781 219.320312 247.03125 C 220.292969 246.507812 221.253906 245.964844 222.203125 245.398438 C 223.148438 244.828125 224.082031 244.238281 225 243.625 C 225.917969 243.011719 226.824219 242.375 227.710938 241.714844 C 228.597656 241.058594 229.46875 240.378906 230.320312 239.679688 C 231.175781 238.976562 232.011719 238.257812 232.832031 237.515625 C 233.648438 236.773438 234.449219 236.011719 235.230469 235.230469 C 236.011719 234.449219 236.773438 233.648438 237.515625 232.832031 C 238.257812 232.011719 238.976562 231.175781 239.679688 230.320312 C 240.378906 229.46875 241.058594 228.597656 241.714844 227.710938 C 242.375 226.824219 243.011719 225.917969 243.625 225 C 244.238281 224.082031 244.828125 223.148438 245.398438 222.203125 C 245.964844 221.253906 246.507812 220.292969 247.03125 219.320312 C 247.550781 218.34375 248.046875 217.359375 248.519531 216.359375 C 248.992188 215.359375 249.4375 214.351562 249.863281 213.332031 C 250.285156 212.308594 250.683594 211.28125 251.054688 210.238281 C 251.425781 209.199219 251.773438 208.152344 252.09375 207.09375 C 252.414062 206.035156 252.707031 204.972656 252.976562 203.902344 C 253.246094 202.828125 253.488281 201.753906 253.703125 200.667969 C 253.917969 199.585938 254.105469 198.496094 254.269531 197.402344 C 254.429688 196.3125 254.566406 195.214844 254.675781 194.117188 C 254.785156 193.015625 254.863281 191.914062 254.917969 190.8125 C 254.972656 189.707031 255 188.605469 255 187.5 C 255 186.394531 254.972656 185.292969 254.917969 184.1875 C 254.863281 183.085938 254.785156 181.984375 254.675781 180.882812 C 254.566406 179.785156 254.429688 178.6875 254.269531 177.59375 C 254.105469 176.503906 253.917969 175.414062 253.703125 174.332031 C 253.488281 173.246094 253.246094 172.171875 252.976562 171.097656 C 252.707031 170.027344 252.414062 168.960938 252.09375 167.90625 C 251.773438 166.847656 251.425781 165.800781 251.054688 164.761719 C 250.683594 163.71875 250.285156 162.691406 249.863281 161.667969 C 249.4375 160.648438 248.992188 159.636719 248.519531 158.640625 C 248.046875 157.640625 247.550781 156.65625 247.03125 155.679688 C 246.507812 154.707031 245.964844 153.746094 245.398438 152.796875 C 244.828125 151.851562 244.238281 150.917969 243.625 150 C 243.011719 149.082031 242.375 148.175781 241.714844 147.289062 C 241.058594 146.402344 240.378906 145.53125 239.679688 144.679688 C 238.976562 143.824219 238.257812 142.988281 237.515625 142.167969 C 236.773438 141.351562 236.011719 140.550781 235.230469 139.769531 C 234.449219 138.988281 233.648438 138.226562 232.832031 137.484375 C 232.011719 136.742188 231.175781 136.023438 230.320312 135.320312 C 229.46875 134.621094 228.597656 133.941406 227.710938 133.285156 C 226.824219 132.625 225.917969 131.988281 225 131.375 C 224.082031 130.761719 223.148438 130.171875 222.203125 129.601562 C 221.253906 129.035156 220.292969 128.492188 219.320312 127.96875 C 218.34375 127.449219 217.359375 126.953125 216.359375 126.480469 C 215.359375 126.007812 214.351562 125.5625 213.332031 125.136719 C 212.308594 124.714844 211.28125 124.316406 210.238281 123.945312 C 209.199219 123.574219 208.152344 123.226562 207.09375 122.90625 C 206.035156 122.585938 204.972656 122.292969 203.902344 122.023438 C 202.828125 121.753906 201.753906 121.511719 200.667969 121.296875 C 199.585938 121.082031 198.496094 120.894531 197.402344 120.730469 C 196.3125 120.570312 195.214844 120.433594 194.117188 120.324219 C 193.015625 120.214844 191.914062 120.136719 190.8125 120.082031 C 189.707031 120.027344 188.605469 120 187.5 120 Z M 187.5 93.75 " fill-opacity="1" fill-rule="nonzero"/></g><g clip-path="url(#id2)"><path fill="#6ce5e8" d="M 202.761719 95 C 204.574219 95.300781 206.375 95.652344 208.167969 96.058594 C 209.960938 96.460938 211.738281 96.917969 213.503906 97.429688 C 215.269531 97.9375 217.015625 98.5 218.75 99.113281 C 220.480469 99.722656 222.195312 100.386719 223.886719 101.097656 C 225.582031 101.8125 227.25 102.574219 228.898438 103.386719 C 230.546875 104.195312 232.171875 105.054688 233.769531 105.960938 C 235.367188 106.871094 236.9375 107.824219 238.476562 108.820312 C 240.019531 109.820312 241.53125 110.863281 243.011719 111.953125 C 244.492188 113.039062 245.9375 114.167969 247.351562 115.34375 C 248.765625 116.515625 250.144531 117.730469 251.488281 118.984375 C 252.832031 120.238281 254.136719 121.527344 255.402344 122.859375 C 256.667969 124.191406 257.894531 125.554688 259.082031 126.960938 C 260.265625 128.363281 261.410156 129.796875 262.511719 131.269531 C 263.617188 132.738281 264.671875 134.238281 265.6875 135.769531 C 266.699219 137.304688 267.667969 138.863281 268.589844 140.453125 C 269.511719 142.042969 270.386719 143.65625 271.214844 145.296875 C 272.039062 146.9375 272.820312 148.601562 273.546875 150.289062 C 274.277344 151.972656 274.957031 153.679688 275.585938 155.40625 C 276.214844 157.132812 276.792969 158.875 277.316406 160.636719 C 277.84375 162.394531 278.320312 164.167969 278.742188 165.957031 C 279.164062 167.746094 279.53125 169.542969 279.847656 171.351562 C 280.164062 173.164062 280.429688 174.980469 280.636719 176.804688 C 280.847656 178.628906 281.003906 180.460938 281.105469 182.292969 C 281.207031 184.128906 281.253906 185.964844 281.25 187.800781 C 281.242188 189.640625 281.183594 191.472656 281.070312 193.308594 C 280.957031 195.140625 280.789062 196.96875 280.566406 198.792969 C 280.347656 200.617188 280.070312 202.433594 279.742188 204.242188 C 279.414062 206.046875 279.035156 207.84375 278.601562 209.628906 C 278.167969 211.414062 277.679688 213.1875 277.144531 214.941406 C 276.605469 216.699219 276.015625 218.4375 275.375 220.160156 C 274.738281 221.882812 274.046875 223.585938 273.308594 225.265625 C 272.566406 226.949219 271.777344 228.605469 270.941406 230.242188 C 270.101562 231.875 269.21875 233.484375 268.285156 235.066406 C 267.355469 236.652344 266.375 238.207031 265.351562 239.730469 C 264.328125 241.257812 263.261719 242.75 262.148438 244.214844 C 261.039062 245.675781 259.886719 247.105469 258.691406 248.5 C 257.496094 249.894531 256.257812 251.253906 254.984375 252.578125 C 253.707031 253.898438 252.394531 255.183594 251.046875 256.429688 C 249.695312 257.671875 248.308594 258.878906 246.886719 260.042969 C 245.464844 261.207031 244.011719 262.328125 242.523438 263.40625 C 241.035156 264.484375 239.519531 265.515625 237.96875 266.503906 C 236.421875 267.496094 234.847656 268.4375 233.242188 269.332031 C 231.640625 270.230469 230.011719 271.078125 228.355469 271.878906 C 226.703125 272.679688 225.027344 273.429688 223.328125 274.132812 C 221.632812 274.835938 219.914062 275.488281 218.179688 276.089844 C 216.445312 276.6875 214.691406 277.238281 212.921875 277.738281 C 211.15625 278.234375 209.375 278.679688 207.578125 279.074219 C 205.785156 279.46875 203.980469 279.808594 202.164062 280.097656 C 200.351562 280.382812 198.53125 280.617188 196.703125 280.796875 C 194.875 280.976562 193.042969 281.105469 191.207031 281.175781 C 189.371094 281.25 187.535156 281.269531 185.695312 281.234375 C 183.859375 281.199219 182.027344 281.109375 180.195312 280.964844 C 178.363281 280.820312 176.539062 280.625 174.71875 280.375 C 172.898438 280.125 171.085938 279.820312 169.285156 279.464844 C 167.480469 279.105469 165.691406 278.695312 163.914062 278.234375 C 162.136719 277.773438 160.375 277.257812 158.625 276.691406 C 156.878906 276.125 155.148438 275.511719 153.4375 274.84375 C 151.726562 274.175781 150.035156 273.457031 148.363281 272.691406 C 146.695312 271.925781 145.050781 271.109375 143.429688 270.246094 C 141.808594 269.382812 140.210938 268.472656 138.644531 267.515625 C 137.078125 266.554688 135.539062 265.554688 134.027344 264.507812 C 132.519531 263.457031 131.042969 262.367188 129.597656 261.230469 C 128.152344 260.097656 126.742188 258.921875 125.367188 257.703125 C 123.992188 256.488281 122.652344 255.230469 121.351562 253.933594 C 120.050781 252.636719 118.785156 251.304688 117.5625 249.933594 C 116.339844 248.5625 115.15625 247.15625 114.015625 245.71875 C 112.875 244.277344 111.777344 242.804688 110.722656 241.300781 C 109.671875 239.796875 108.660156 238.261719 107.695312 236.699219 C 106.734375 235.132812 105.816406 233.542969 104.945312 231.925781 C 104.074219 230.308594 103.25 228.667969 102.476562 227 C 101.703125 225.335938 100.980469 223.648438 100.304688 221.9375 C 99.628906 220.230469 99.003906 218.503906 98.433594 216.757812 C 97.859375 215.011719 97.335938 213.25 96.867188 211.476562 C 96.398438 209.699219 95.980469 207.910156 95.617188 206.109375 C 95.25 204.308594 94.941406 202.5 94.679688 200.679688 C 94.421875 198.863281 94.21875 197.039062 94.066406 195.207031 C 93.917969 193.375 93.820312 191.542969 93.777344 189.707031 C 93.734375 187.867188 93.742188 186.03125 93.808594 184.195312 C 93.871094 182.359375 93.992188 180.527344 94.164062 178.699219 C 94.335938 176.871094 94.5625 175.046875 94.84375 173.230469 C 95.121094 171.417969 95.453125 169.609375 95.839844 167.8125 C 96.226562 166.019531 96.664062 164.234375 97.15625 162.464844 C 97.644531 160.695312 98.1875 158.9375 98.78125 157.199219 C 99.375 155.460938 100.019531 153.742188 100.714844 152.042969 C 101.410156 150.339844 102.152344 148.664062 102.945312 147.003906 C 103.738281 145.347656 104.582031 143.714844 105.472656 142.109375 C 106.359375 140.5 107.296875 138.921875 108.277344 137.371094 C 109.261719 135.816406 110.289062 134.292969 111.359375 132.804688 C 112.433594 131.3125 113.546875 129.851562 114.703125 128.425781 C 115.863281 127 117.058594 125.605469 118.300781 124.25 C 119.539062 122.894531 120.816406 121.578125 122.132812 120.296875 C 123.453125 119.015625 124.804688 117.773438 126.195312 116.574219 C 127.585938 115.371094 129.007812 114.210938 130.464844 113.09375 C 131.925781 111.976562 133.414062 110.902344 134.933594 109.871094 C 136.457031 108.84375 138.007812 107.859375 139.585938 106.917969 C 141.164062 105.980469 142.769531 105.089844 144.402344 104.242188 C 145.167969 103.847656 145.964844 103.53125 146.792969 103.289062 C 147.621094 103.050781 148.460938 102.894531 149.320312 102.820312 C 150.179688 102.75 151.039062 102.761719 151.894531 102.855469 C 152.75 102.953125 153.589844 103.128906 154.410156 103.390625 C 155.230469 103.652344 156.019531 103.992188 156.773438 104.40625 C 157.527344 104.824219 158.234375 105.308594 158.894531 105.863281 C 159.554688 106.421875 160.152344 107.035156 160.691406 107.707031 C 161.226562 108.382812 161.695312 109.101562 162.089844 109.867188 C 162.488281 110.632812 162.804688 111.429688 163.042969 112.253906 C 163.285156 113.082031 163.441406 113.925781 163.511719 114.785156 C 163.585938 115.644531 163.574219 116.503906 163.480469 117.359375 C 163.382812 118.214844 163.203125 119.054688 162.945312 119.875 C 162.683594 120.695312 162.34375 121.484375 161.929688 122.238281 C 161.511719 122.992188 161.027344 123.699219 160.46875 124.359375 C 159.914062 125.019531 159.300781 125.617188 158.628906 126.15625 C 157.953125 126.691406 157.234375 127.160156 156.46875 127.554688 C 155.292969 128.164062 154.136719 128.804688 153 129.480469 C 151.863281 130.15625 150.75 130.867188 149.652344 131.609375 C 148.558594 132.351562 147.484375 133.125 146.4375 133.929688 C 145.386719 134.734375 144.359375 135.566406 143.359375 136.433594 C 142.359375 137.296875 141.386719 138.191406 140.4375 139.113281 C 139.488281 140.035156 138.566406 140.984375 137.675781 141.960938 C 136.785156 142.9375 135.921875 143.9375 135.085938 144.964844 C 134.253906 145.992188 133.449219 147.042969 132.679688 148.117188 C 131.90625 149.191406 131.167969 150.289062 130.460938 151.40625 C 129.753906 152.523438 129.078125 153.660156 128.4375 154.820312 C 127.796875 155.976562 127.191406 157.152344 126.621094 158.34375 C 126.050781 159.539062 125.515625 160.746094 125.015625 161.96875 C 124.515625 163.195312 124.050781 164.433594 123.621094 165.683594 C 123.195312 166.9375 122.804688 168.199219 122.453125 169.472656 C 122.097656 170.75 121.78125 172.03125 121.503906 173.324219 C 121.226562 174.621094 120.988281 175.917969 120.785156 177.226562 C 120.585938 178.535156 120.421875 179.847656 120.296875 181.164062 C 120.175781 182.480469 120.089844 183.800781 120.042969 185.121094 C 119.996094 186.441406 119.988281 187.765625 120.019531 189.085938 C 120.050781 190.410156 120.121094 191.730469 120.226562 193.046875 C 120.335938 194.367188 120.484375 195.679688 120.671875 196.992188 C 120.855469 198.300781 121.082031 199.601562 121.34375 200.898438 C 121.605469 202.195312 121.90625 203.484375 122.246094 204.761719 C 122.582031 206.039062 122.957031 207.308594 123.371094 208.566406 C 123.785156 209.820312 124.234375 211.066406 124.71875 212.296875 C 125.207031 213.527344 125.726562 214.742188 126.285156 215.941406 C 126.839844 217.140625 127.433594 218.320312 128.058594 219.488281 C 128.6875 220.652344 129.347656 221.796875 130.042969 222.921875 C 130.734375 224.050781 131.460938 225.152344 132.222656 226.238281 C 132.980469 227.320312 133.769531 228.378906 134.59375 229.417969 C 135.414062 230.453125 136.265625 231.464844 137.144531 232.453125 C 138.027344 233.4375 138.933594 234.398438 139.871094 235.332031 C 140.808594 236.265625 141.773438 237.171875 142.765625 238.046875 C 143.753906 238.921875 144.769531 239.769531 145.8125 240.585938 C 146.851562 241.402344 147.914062 242.191406 149 242.945312 C 150.085938 243.699219 151.195312 244.421875 152.324219 245.109375 C 153.453125 245.800781 154.601562 246.453125 155.769531 247.078125 C 156.9375 247.699219 158.121094 248.285156 159.324219 248.835938 C 160.523438 249.390625 161.742188 249.90625 162.972656 250.386719 C 164.207031 250.867188 165.453125 251.3125 166.710938 251.71875 C 167.96875 252.125 169.238281 252.496094 170.519531 252.828125 C 171.796875 253.160156 173.085938 253.457031 174.382812 253.714844 C 175.683594 253.96875 176.984375 254.1875 178.296875 254.371094 C 179.605469 254.550781 180.921875 254.691406 182.238281 254.792969 C 183.558594 254.898438 184.878906 254.960938 186.203125 254.988281 C 187.523438 255.011719 188.847656 255 190.167969 254.945312 C 191.488281 254.894531 192.808594 254.804688 194.125 254.675781 C 195.441406 254.542969 196.753906 254.375 198.058594 254.167969 C 199.367188 253.960938 200.664062 253.71875 201.957031 253.433594 C 203.25 253.148438 204.53125 252.828125 205.804688 252.46875 C 207.078125 252.113281 208.339844 251.714844 209.589844 251.285156 C 210.839844 250.851562 212.074219 250.382812 213.296875 249.875 C 214.519531 249.371094 215.726562 248.828125 216.917969 248.253906 C 218.105469 247.675781 219.28125 247.066406 220.433594 246.421875 C 221.589844 245.773438 222.722656 245.097656 223.839844 244.382812 C 224.953125 243.671875 226.046875 242.925781 227.117188 242.152344 C 228.1875 241.375 229.234375 240.566406 230.257812 239.730469 C 231.28125 238.890625 232.28125 238.023438 233.253906 237.128906 C 234.226562 236.230469 235.171875 235.308594 236.089844 234.355469 C 237.007812 233.402344 237.894531 232.425781 238.757812 231.421875 C 239.617188 230.414062 240.449219 229.386719 241.246094 228.332031 C 242.046875 227.28125 242.816406 226.203125 243.554688 225.105469 C 244.289062 224.007812 244.996094 222.890625 245.664062 221.75 C 246.335938 220.609375 246.972656 219.449219 247.578125 218.273438 C 248.179688 217.097656 248.746094 215.902344 249.28125 214.691406 C 249.8125 213.480469 250.308594 212.253906 250.769531 211.015625 C 251.230469 209.777344 251.65625 208.523438 252.042969 207.257812 C 252.429688 205.992188 252.78125 204.71875 253.09375 203.433594 C 253.40625 202.148438 253.679688 200.855469 253.914062 199.554688 C 254.152344 198.25 254.347656 196.945312 254.507812 195.632812 C 254.667969 194.320312 254.789062 193 254.871094 191.683594 C 254.953125 190.363281 254.996094 189.039062 255 187.71875 C 255.003906 186.394531 254.96875 185.074219 254.894531 183.753906 C 254.824219 182.429688 254.710938 181.113281 254.558594 179.800781 C 254.410156 178.484375 254.21875 177.175781 253.992188 175.875 C 253.761719 174.570312 253.496094 173.277344 253.195312 171.988281 C 252.890625 170.703125 252.546875 169.425781 252.167969 168.15625 C 251.789062 166.890625 251.375 165.636719 250.921875 164.390625 C 250.46875 163.148438 249.980469 161.921875 249.453125 160.707031 C 248.929688 159.492188 248.371094 158.296875 247.773438 157.113281 C 247.179688 155.933594 246.550781 154.769531 245.886719 153.625 C 245.222656 152.480469 244.523438 151.359375 243.792969 150.253906 C 243.066406 149.152344 242.304688 148.070312 241.511719 147.011719 C 240.714844 145.953125 239.894531 144.921875 239.039062 143.910156 C 238.183594 142.902344 237.300781 141.917969 236.390625 140.957031 C 235.476562 140 234.539062 139.070312 233.570312 138.167969 C 232.605469 137.265625 231.613281 136.390625 230.59375 135.546875 C 229.574219 134.703125 228.535156 133.886719 227.46875 133.105469 C 226.402344 132.320312 225.3125 131.570312 224.203125 130.851562 C 223.09375 130.132812 221.964844 129.445312 220.8125 128.792969 C 219.664062 128.140625 218.496094 127.523438 217.308594 126.9375 C 216.121094 126.355469 214.917969 125.804688 213.699219 125.292969 C 212.480469 124.777344 211.246094 124.300781 210 123.859375 C 208.753906 123.417969 207.492188 123.015625 206.222656 122.648438 C 204.953125 122.28125 203.671875 121.953125 202.382812 121.660156 C 201.089844 121.371094 199.792969 121.117188 198.488281 120.902344 C 197.636719 120.761719 196.808594 120.539062 196.003906 120.234375 C 195.195312 119.929688 194.425781 119.550781 193.695312 119.097656 C 192.964844 118.640625 192.28125 118.121094 191.652344 117.53125 C 191.023438 116.941406 190.460938 116.296875 189.957031 115.597656 C 189.457031 114.894531 189.027344 114.152344 188.671875 113.367188 C 188.316406 112.582031 188.039062 111.769531 187.84375 110.933594 C 187.648438 110.09375 187.535156 109.242188 187.507812 108.382812 C 187.480469 107.519531 187.535156 106.664062 187.675781 105.8125 C 187.816406 104.964844 188.039062 104.136719 188.339844 103.328125 C 188.644531 102.523438 189.023438 101.753906 189.476562 101.019531 C 189.933594 100.289062 190.457031 99.609375 191.042969 98.980469 C 191.632812 98.351562 192.277344 97.785156 192.980469 97.28125 C 193.679688 96.78125 194.421875 96.351562 195.207031 95.996094 C 195.992188 95.640625 196.804688 95.363281 197.644531 95.167969 C 198.484375 94.972656 199.332031 94.859375 200.195312 94.832031 C 201.054688 94.804688 201.910156 94.859375 202.761719 95 Z M 202.761719 95 " fill-opacity="1" fill-rule="nonzero"/></g><g fill="#ffffff" fill-opacity="1"><g transform="translate(142.968745, 202.874987)"><g><path d="M 22.640625 -15.921875 C 22.640625 -10.671875 21.679688 -6.628906 19.765625 -3.796875 C 17.847656 -0.972656 15.113281 0.4375 11.5625 0.4375 C 9.164062 0.4375 7.25 -0.0625 5.8125 -1.0625 C 4.375 -2.070312 3.34375 -3.703125 2.71875 -5.953125 L 6.453125 -6.546875 C 7.234375 -3.992188 8.957031 -2.71875 11.625 -2.71875 C 13.875 -2.71875 15.613281 -3.757812 16.84375 -5.84375 C 18.070312 -7.925781 18.71875 -10.90625 18.78125 -14.78125 C 18.195312 -13.46875 17.203125 -12.414062 15.796875 -11.625 C 14.390625 -10.84375 12.847656 -10.453125 11.171875 -10.453125 C 8.421875 -10.453125 6.21875 -11.390625 4.5625 -13.265625 C 2.914062 -15.148438 2.09375 -17.648438 2.09375 -20.765625 C 2.09375 -23.972656 2.988281 -26.492188 4.78125 -28.328125 C 6.570312 -30.160156 9.070312 -31.078125 12.28125 -31.078125 C 15.6875 -31.078125 18.265625 -29.816406 20.015625 -27.296875 C 21.765625 -24.773438 22.640625 -20.984375 22.640625 -15.921875 Z M 18.375 -19.703125 C 18.375 -22.171875 17.8125 -24.15625 16.6875 -25.65625 C 15.5625 -27.15625 14.046875 -27.90625 12.140625 -27.90625 C 10.265625 -27.90625 8.78125 -27.257812 7.6875 -25.96875 C 6.601562 -24.6875 6.0625 -22.953125 6.0625 -20.765625 C 6.0625 -18.535156 6.601562 -16.769531 7.6875 -15.46875 C 8.78125 -14.175781 10.253906 -13.53125 12.109375 -13.53125 C 13.234375 -13.53125 14.28125 -13.785156 15.25 -14.296875 C 16.21875 -14.816406 16.976562 -15.546875 17.53125 -16.484375 C 18.09375 -17.429688 18.375 -18.503906 18.375 -19.703125 Z M 18.375 -19.703125 "/></g></g></g><g fill="#ffffff" fill-opacity="1"><g transform="translate(167.715356, 202.874987)"><g><path d="M 22.875 -9.96875 C 22.875 -6.738281 21.914062 -4.195312 20 -2.34375 C 18.082031 -0.488281 15.421875 0.4375 12.015625 0.4375 C 9.160156 0.4375 6.859375 -0.179688 5.109375 -1.421875 C 3.359375 -2.671875 2.25 -4.476562 1.78125 -6.84375 L 5.734375 -7.296875 C 6.554688 -4.273438 8.679688 -2.765625 12.109375 -2.765625 C 14.203125 -2.765625 15.84375 -3.394531 17.03125 -4.65625 C 18.21875 -5.925781 18.8125 -7.671875 18.8125 -9.890625 C 18.8125 -11.816406 18.210938 -13.375 17.015625 -14.5625 C 15.828125 -15.75 14.21875 -16.34375 12.1875 -16.34375 C 11.132812 -16.34375 10.148438 -16.175781 9.234375 -15.84375 C 8.316406 -15.507812 7.40625 -14.941406 6.5 -14.140625 L 2.671875 -14.140625 L 3.6875 -30.609375 L 21.09375 -30.609375 L 21.09375 -27.296875 L 7.25 -27.296875 L 6.671875 -17.578125 C 8.367188 -18.878906 10.476562 -19.53125 13 -19.53125 C 16.007812 -19.53125 18.40625 -18.644531 20.1875 -16.875 C 21.976562 -15.113281 22.875 -12.8125 22.875 -9.96875 Z M 22.875 -9.96875 "/></g></g></g><g fill="#ffffff" fill-opacity="1"><g transform="translate(192.461966, 202.874987)"><g><path d="M 37.984375 -9.4375 C 37.984375 -6.320312 37.394531 -3.925781 36.21875 -2.25 C 35.050781 -0.570312 33.320312 0.265625 31.03125 0.265625 C 28.769531 0.265625 27.0625 -0.546875 25.90625 -2.171875 C 24.757812 -3.804688 24.1875 -6.226562 24.1875 -9.4375 C 24.1875 -12.738281 24.738281 -15.195312 25.84375 -16.8125 C 26.957031 -18.425781 28.710938 -19.234375 31.109375 -19.234375 C 33.484375 -19.234375 35.222656 -18.398438 36.328125 -16.734375 C 37.429688 -15.078125 37.984375 -12.644531 37.984375 -9.4375 Z M 11.453125 0 L 8.078125 0 L 28.109375 -30.609375 L 31.53125 -30.609375 Z M 8.5625 -30.875 C 10.863281 -30.875 12.570312 -30.0625 13.6875 -28.4375 C 14.800781 -26.820312 15.359375 -24.40625 15.359375 -21.1875 C 15.359375 -18.039062 14.78125 -15.617188 13.625 -13.921875 C 12.476562 -12.234375 10.757812 -11.390625 8.46875 -11.390625 C 6.1875 -11.390625 4.46875 -12.226562 3.3125 -13.90625 C 2.164062 -15.582031 1.59375 -18.007812 1.59375 -21.1875 C 1.59375 -24.414062 2.148438 -26.835938 3.265625 -28.453125 C 4.378906 -30.066406 6.144531 -30.875 8.5625 -30.875 Z M 34.765625 -9.4375 C 34.765625 -12.019531 34.484375 -13.894531 33.921875 -15.0625 C 33.367188 -16.226562 32.429688 -16.8125 31.109375 -16.8125 C 29.796875 -16.8125 28.84375 -16.238281 28.25 -15.09375 C 27.664062 -13.957031 27.375 -12.070312 27.375 -9.4375 C 27.375 -6.957031 27.660156 -5.117188 28.234375 -3.921875 C 28.804688 -2.722656 29.753906 -2.125 31.078125 -2.125 C 32.347656 -2.125 33.28125 -2.726562 33.875 -3.9375 C 34.46875 -5.15625 34.765625 -6.988281 34.765625 -9.4375 Z M 12.171875 -21.1875 C 12.171875 -23.738281 11.894531 -25.597656 11.34375 -26.765625 C 10.789062 -27.941406 9.863281 -28.53125 8.5625 -28.53125 C 7.195312 -28.53125 6.222656 -27.953125 5.640625 -26.796875 C 5.066406 -25.648438 4.78125 -23.78125 4.78125 -21.1875 C 4.78125 -18.675781 5.066406 -16.820312 5.640625 -15.625 C 6.222656 -14.4375 7.179688 -13.84375 8.515625 -13.84375 C 9.773438 -13.84375 10.695312 -14.445312 11.28125 -15.65625 C 11.875 -16.875 12.171875 -18.71875 12.171875 -21.1875 Z M 12.171875 -21.1875 "/></g></g></g></svg>