<svg xmlns="http://www.w3.org/2000/svg" xmlns:xlink="http://www.w3.org/1999/xlink" width="500" zoomAndPan="magnify" viewBox="0 0 375 374.999991" height="500" preserveAspectRatio="xMidYMid meet" version="1.0"><defs><g/><clipPath id="id1"><path d="M 93.75 93.75 L 281.25 93.75 L 281.25 281.25 L 93.75 281.25 Z M 93.75 93.75 " clip-rule="nonzero"/></clipPath><clipPath id="id2"><path d="M 93.75 94 L 281.25 94 L 281.25 281.25 L 93.75 281.25 Z M 93.75 94 " clip-rule="nonzero"/></clipPath></defs><g clip-path="url(#id1)"><path fill="#151515" d="M 187.5 93.75 C 189.035156 93.75 190.566406 93.789062 192.101562 93.863281 C 193.632812 93.9375 195.164062 94.050781 196.6875 94.203125 C 198.214844 94.351562 199.738281 94.539062 201.257812 94.765625 C 202.773438 94.988281 204.285156 95.253906 205.789062 95.550781 C 207.292969 95.851562 208.792969 96.1875 210.28125 96.558594 C 211.769531 96.933594 213.246094 97.339844 214.714844 97.785156 C 216.183594 98.230469 217.640625 98.714844 219.082031 99.230469 C 220.527344 99.746094 221.960938 100.300781 223.375 100.886719 C 224.792969 101.472656 226.195312 102.09375 227.582031 102.75 C 228.96875 103.40625 230.339844 104.097656 231.695312 104.820312 C 233.046875 105.542969 234.382812 106.300781 235.695312 107.089844 C 237.011719 107.875 238.308594 108.699219 239.585938 109.550781 C 240.859375 110.402344 242.113281 111.285156 243.347656 112.199219 C 244.578125 113.113281 245.789062 114.058594 246.972656 115.03125 C 248.160156 116.003906 249.320312 117.003906 250.457031 118.035156 C 251.59375 119.066406 252.707031 120.125 253.792969 121.207031 C 254.875 122.292969 255.933594 123.40625 256.964844 124.542969 C 257.996094 125.679688 258.996094 126.839844 259.96875 128.027344 C 260.941406 129.210938 261.886719 130.421875 262.800781 131.652344 C 263.714844 132.886719 264.597656 134.140625 265.449219 135.414062 C 266.300781 136.691406 267.125 137.988281 267.910156 139.304688 C 268.699219 140.617188 269.457031 141.953125 270.179688 143.304688 C 270.902344 144.660156 271.59375 146.03125 272.25 147.417969 C 272.90625 148.804688 273.527344 150.207031 274.113281 151.625 C 274.699219 153.039062 275.253906 154.472656 275.769531 155.917969 C 276.285156 157.359375 276.769531 158.816406 277.214844 160.285156 C 277.660156 161.753906 278.066406 163.230469 278.441406 164.71875 C 278.8125 166.207031 279.148438 167.707031 279.449219 169.210938 C 279.746094 170.714844 280.011719 172.226562 280.234375 173.742188 C 280.460938 175.261719 280.648438 176.785156 280.796875 178.3125 C 280.949219 179.835938 281.0625 181.367188 281.136719 182.898438 C 281.210938 184.433594 281.25 185.964844 281.25 187.5 C 281.25 189.035156 281.210938 190.566406 281.136719 192.101562 C 281.0625 193.632812 280.949219 195.164062 280.796875 196.6875 C 280.648438 198.214844 280.460938 199.738281 280.234375 201.257812 C 280.011719 202.773438 279.746094 204.285156 279.449219 205.789062 C 279.148438 207.292969 278.8125 208.792969 278.441406 210.28125 C 278.066406 211.769531 277.660156 213.246094 277.214844 214.714844 C 276.769531 216.183594 276.285156 217.640625 275.769531 219.082031 C 275.253906 220.527344 274.699219 221.960938 274.113281 223.375 C 273.527344 224.792969 272.90625 226.195312 272.25 227.582031 C 271.59375 228.96875 270.902344 230.339844 270.179688 231.695312 C 269.457031 233.046875 268.699219 234.382812 267.910156 235.695312 C 267.125 237.011719 266.300781 238.308594 265.449219 239.585938 C 264.597656 240.859375 263.714844 242.113281 262.800781 243.347656 C 261.886719 244.578125 260.941406 245.789062 259.96875 246.972656 C 258.996094 248.160156 257.996094 249.320312 256.964844 250.457031 C 255.933594 251.59375 254.875 252.707031 253.792969 253.792969 C 252.707031 254.875 251.59375 255.933594 250.457031 256.964844 C 249.320312 257.996094 248.160156 258.996094 246.972656 259.96875 C 245.789062 260.941406 244.578125 261.886719 243.347656 262.800781 C 242.113281 263.714844 240.859375 264.597656 239.585938 265.449219 C 238.308594 266.300781 237.011719 267.125 235.695312 267.910156 C 234.382812 268.699219 233.046875 269.457031 231.695312 270.179688 C 230.339844 270.902344 228.96875 271.59375 227.582031 272.25 C 226.195312 272.90625 224.792969 273.527344 223.375 274.113281 C 221.960938 274.699219 220.527344 275.253906 219.082031 275.769531 C 217.640625 276.285156 216.183594 276.769531 214.714844 277.214844 C 213.246094 277.660156 211.769531 278.066406 210.28125 278.441406 C 208.792969 278.8125 207.292969 279.148438 205.789062 279.449219 C 204.285156 279.746094 202.773438 280.011719 201.257812 280.234375 C 199.738281 280.460938 198.214844 280.648438 196.6875 280.796875 C 195.164062 280.949219 193.632812 281.0625 192.101562 281.136719 C 190.566406 281.210938 189.035156 281.25 187.5 281.25 C 185.964844 281.25 184.433594 281.210938 182.898438 281.136719 C 181.367188 281.0625 179.835938 280.949219 178.3125 280.796875 C 176.785156 280.648438 175.261719 280.460938 173.742188 280.234375 C 172.226562 280.011719 170.714844 279.746094 169.210938 279.449219 C 167.707031 279.148438 166.207031 278.8125 164.71875 278.441406 C 163.230469 278.066406 161.753906 277.660156 160.285156 277.214844 C 158.816406 276.769531 157.359375 276.285156 155.917969 275.769531 C 154.472656 275.253906 153.039062 274.699219 151.625 274.113281 C 150.207031 273.527344 148.804688 272.90625 147.417969 272.25 C 146.03125 271.59375 144.660156 270.902344 143.304688 270.179688 C 141.953125 269.457031 140.617188 268.699219 139.304688 267.910156 C 137.988281 267.125 136.691406 266.300781 135.414062 265.449219 C 134.140625 264.597656 132.886719 263.714844 131.652344 262.800781 C 130.421875 261.886719 129.210938 260.941406 128.027344 259.96875 C 126.839844 258.996094 125.679688 257.996094 124.542969 256.964844 C 123.40625 255.933594 122.292969 254.875 121.207031 253.792969 C 120.125 252.707031 119.066406 251.59375 118.035156 250.457031 C 117.003906 249.320312 116.003906 248.160156 115.03125 246.972656 C 114.058594 245.789062 113.113281 244.578125 112.199219 243.347656 C 111.285156 242.113281 110.402344 240.859375 109.550781 239.585938 C 108.699219 238.308594 107.875 237.011719 107.089844 235.695312 C 106.300781 234.382812 105.542969 233.046875 104.820312 231.695312 C 104.097656 230.339844 103.40625 228.96875 102.75 227.582031 C 102.09375 226.195312 101.472656 224.792969 100.886719 223.375 C 100.300781 221.960938 99.746094 220.527344 99.230469 219.082031 C 98.714844 217.640625 98.230469 216.183594 97.785156 214.714844 C 97.339844 213.246094 96.933594 211.769531 96.558594 210.28125 C 96.1875 208.792969 95.851562 207.292969 95.550781 205.789062 C 95.253906 204.285156 94.988281 202.773438 94.765625 201.257812 C 94.539062 199.738281 94.351562 198.214844 94.203125 196.6875 C 94.050781 195.164062 93.9375 193.632812 93.863281 192.101562 C 93.789062 190.566406 93.75 189.035156 93.75 187.5 C 93.75 185.964844 93.789062 184.433594 93.863281 182.898438 C 93.9375 181.367188 94.050781 179.835938 94.203125 178.3125 C 94.351562 176.785156 94.539062 175.261719 94.765625 173.742188 C 94.988281 172.226562 95.253906 170.714844 95.550781 169.210938 C 95.851562 167.707031 96.1875 166.207031 96.558594 164.71875 C 96.933594 163.230469 97.339844 161.753906 97.785156 160.285156 C 98.230469 158.816406 98.714844 157.359375 99.230469 155.917969 C 99.746094 154.472656 100.300781 153.039062 100.886719 151.625 C 101.472656 150.207031 102.09375 148.804688 102.75 147.417969 C 103.40625 146.03125 104.097656 144.660156 104.820312 143.304688 C 105.542969 141.953125 106.300781 140.617188 107.089844 139.304688 C 107.875 137.988281 108.699219 136.691406 109.550781 135.414062 C 110.402344 134.140625 111.285156 132.886719 112.199219 131.652344 C 113.113281 130.421875 114.058594 129.210938 115.03125 128.027344 C 116.003906 126.839844 117.003906 125.679688 118.035156 124.542969 C 119.066406 123.40625 120.125 122.292969 121.207031 121.207031 C 122.292969 120.125 123.40625 119.066406 124.542969 118.035156 C 125.679688 117.003906 126.839844 116.003906 128.027344 115.03125 C 129.210938 114.058594 130.421875 113.113281 131.652344 112.199219 C 132.886719 111.285156 134.140625 110.402344 135.414062 109.550781 C 136.691406 108.699219 137.988281 107.875 139.304688 107.089844 C 140.617188 106.300781 141.953125 105.542969 143.304688 104.820312 C 144.660156 104.097656 146.03125 103.40625 147.417969 102.75 C 148.804688 102.09375 150.207031 101.472656 151.625 100.886719 C 153.039062 100.300781 154.472656 99.746094 155.917969 99.230469 C 157.359375 98.714844 158.816406 98.230469 160.285156 97.785156 C 161.753906 97.339844 163.230469 96.933594 164.71875 96.558594 C 166.207031 96.1875 167.707031 95.851562 169.210938 95.550781 C 170.714844 95.253906 172.226562 94.988281 173.742188 94.765625 C 175.261719 94.539062 176.785156 94.351562 178.3125 94.203125 C 179.835938 94.050781 181.367188 93.9375 182.898438 93.863281 C 184.433594 93.789062 185.964844 93.75 187.5 93.75 L 187.5 120 C 186.394531 120 185.292969 120.027344 184.1875 120.082031 C 183.085938 120.136719 181.984375 120.214844 180.882812 120.324219 C 179.785156 120.433594 178.6875 120.570312 177.59375 120.730469 C 176.503906 120.894531 175.414062 121.082031 174.332031 121.296875 C 173.246094 121.511719 172.171875 121.753906 171.097656 122.023438 C 170.027344 122.292969 168.960938 122.585938 167.90625 122.90625 C 166.847656 123.226562 165.800781 123.574219 164.761719 123.945312 C 163.71875 124.316406 162.691406 124.714844 161.667969 125.136719 C 160.648438 125.5625 159.636719 126.007812 158.640625 126.480469 C 157.640625 126.953125 156.65625 127.449219 155.679688 127.96875 C 154.707031 128.492188 153.746094 129.035156 152.796875 129.601562 C 151.851562 130.171875 150.917969 130.761719 150 131.375 C 149.082031 131.988281 148.175781 132.625 147.289062 133.285156 C 146.402344 133.941406 145.53125 134.621094 144.679688 135.320312 C 143.824219 136.023438 142.988281 136.742188 142.167969 137.484375 C 141.351562 138.226562 140.550781 138.988281 139.769531 139.769531 C 138.988281 140.550781 138.226562 141.351562 137.484375 142.167969 C 136.742188 142.988281 136.023438 143.824219 135.320312 144.679688 C 134.621094 145.53125 133.941406 146.402344 133.285156 147.289062 C 132.625 148.175781 131.988281 149.082031 131.375 150 C 130.761719 150.917969 130.171875 151.851562 129.601562 152.796875 C 129.035156 153.746094 128.492188 154.707031 127.96875 155.679688 C 127.449219 156.65625 126.953125 157.640625 126.480469 158.640625 C 126.007812 159.636719 125.5625 160.648438 125.136719 161.667969 C 124.714844 162.691406 124.316406 163.71875 123.945312 164.761719 C 123.574219 165.800781 123.226562 166.847656 122.90625 167.90625 C 122.585938 168.964844 122.292969 170.027344 122.023438 171.097656 C 121.753906 172.171875 121.511719 173.246094 121.296875 174.332031 C 121.082031 175.414062 120.894531 176.503906 120.730469 177.59375 C 120.570312 178.6875 120.433594 179.785156 120.324219 180.882812 C 120.214844 181.984375 120.136719 183.085938 120.082031 184.1875 C 120.027344 185.292969 120 186.394531 120 187.5 C 120 188.605469 120.027344 189.707031 120.082031 190.8125 C 120.136719 191.914062 120.214844 193.015625 120.324219 194.117188 C 120.433594 195.214844 120.570312 196.3125 120.730469 197.402344 C 120.894531 198.496094 121.082031 199.585938 121.296875 200.667969 C 121.511719 201.753906 121.753906 202.828125 122.023438 203.902344 C 122.292969 204.972656 122.585938 206.035156 122.90625 207.09375 C 123.226562 208.152344 123.574219 209.199219 123.945312 210.238281 C 124.316406 211.28125 124.714844 212.308594 125.136719 213.332031 C 125.5625 214.351562 126.007812 215.359375 126.480469 216.359375 C 126.953125 217.359375 127.449219 218.34375 127.96875 219.320312 C 128.492188 220.292969 129.035156 221.253906 129.601562 222.203125 C 130.171875 223.148438 130.761719 224.082031 131.375 225 C 131.988281 225.917969 132.625 226.824219 133.285156 227.710938 C 133.941406 228.597656 134.621094 229.46875 135.320312 230.320312 C 136.023438 231.175781 136.742188 232.011719 137.484375 232.832031 C 138.226562 233.648438 138.988281 234.449219 139.769531 235.230469 C 140.550781 236.011719 141.351562 236.773438 142.167969 237.515625 C 142.988281 238.257812 143.824219 238.976562 144.679688 239.679688 C 145.53125 240.378906 146.402344 241.058594 147.289062 241.714844 C 148.175781 242.375 149.082031 243.011719 150 243.625 C 150.917969 244.238281 151.851562 244.828125 152.796875 245.398438 C 153.746094 245.964844 154.707031 246.507812 155.679688 247.03125 C 156.65625 247.550781 157.640625 248.046875 158.640625 248.519531 C 159.636719 248.992188 160.648438 249.4375 161.667969 249.863281 C 162.691406 250.285156 163.71875 250.683594 164.761719 251.054688 C 165.800781 251.425781 166.847656 251.773438 167.90625 252.09375 C 168.964844 252.414062 170.027344 252.707031 171.097656 252.976562 C 172.171875 253.246094 173.246094 253.488281 174.332031 253.703125 C 175.414062 253.917969 176.503906 254.105469 177.59375 254.269531 C 178.6875 254.429688 179.785156 254.566406 180.882812 254.675781 C 181.984375 254.785156 183.085938 254.863281 184.1875 254.917969 C 185.292969 254.972656 186.394531 255 187.5 255 C 188.605469 255 189.707031 254.972656 190.8125 254.917969 C 191.914062 254.863281 193.015625 254.785156 194.117188 254.675781 C 195.214844 254.566406 196.3125 254.429688 197.402344 254.269531 C 198.496094 254.105469 199.585938 253.917969 200.667969 253.703125 C 201.753906 253.488281 202.828125 253.246094 203.902344 252.976562 C 204.972656 252.707031 206.035156 252.414062 207.09375 252.09375 C 208.152344 251.773438 209.199219 251.425781 210.238281 251.054688 C 211.28125 250.683594 212.308594 250.285156 213.332031 249.863281 C 214.351562 249.4375 215.359375 248.992188 216.359375 248.519531 C 217.359375 248.046875 218.34375 247.550781 219.320312 247.03125 C 220.292969 246.507812 221.253906 245.964844 222.203125 245.398438 C 223.148438 244.828125 224.082031 244.238281 225 243.625 C 225.917969 243.011719 226.824219 242.375 227.710938 241.714844 C 228.597656 241.058594 229.46875 240.378906 230.320312 239.679688 C 231.175781 238.976562 232.011719 238.257812 232.832031 237.515625 C 233.648438 236.773438 234.449219 236.011719 235.230469 235.230469 C 236.011719 234.449219 236.773438 233.648438 237.515625 232.832031 C 238.257812 232.011719 238.976562 231.175781 239.679688 230.320312 C 240.378906 229.46875 241.058594 228.597656 241.714844 227.710938 C 242.375 226.824219 243.011719 225.917969 243.625 225 C 244.238281 224.082031 244.828125 223.148438 245.398438 222.203125 C 245.964844 221.253906 246.507812 220.292969 247.03125 219.320312 C 247.550781 218.34375 248.046875 217.359375 248.519531 216.359375 C 248.992188 215.359375 249.4375 214.351562 249.863281 213.332031 C 250.285156 212.308594 250.683594 211.28125 251.054688 210.238281 C 251.425781 209.199219 251.773438 208.152344 252.09375 207.09375 C 252.414062 206.035156 252.707031 204.972656 252.976562 203.902344 C 253.246094 202.828125 253.488281 201.753906 253.703125 200.667969 C 253.917969 199.585938 254.105469 198.496094 254.269531 197.402344 C 254.429688 196.3125 254.566406 195.214844 254.675781 194.117188 C 254.785156 193.015625 254.863281 191.914062 254.917969 190.8125 C 254.972656 189.707031 255 188.605469 255 187.5 C 255 186.394531 254.972656 185.292969 254.917969 184.1875 C 254.863281 183.085938 254.785156 181.984375 254.675781 180.882812 C 254.566406 179.785156 254.429688 178.6875 254.269531 177.59375 C 254.105469 176.503906 253.917969 175.414062 253.703125 174.332031 C 253.488281 173.246094 253.246094 172.171875 252.976562 171.097656 C 252.707031 170.027344 252.414062 168.960938 252.09375 167.90625 C 251.773438 166.847656 251.425781 165.800781 251.054688 164.761719 C 250.683594 163.71875 250.285156 162.691406 249.863281 161.667969 C 249.4375 160.648438 248.992188 159.636719 248.519531 158.640625 C 248.046875 157.640625 247.550781 156.65625 247.03125 155.679688 C 246.507812 154.707031 245.964844 153.746094 245.398438 152.796875 C 244.828125 151.851562 244.238281 150.917969 243.625 150 C 243.011719 149.082031 242.375 148.175781 241.714844 147.289062 C 241.058594 146.402344 240.378906 145.53125 239.679688 144.679688 C 238.976562 143.824219 238.257812 142.988281 237.515625 142.167969 C 236.773438 141.351562 236.011719 140.550781 235.230469 139.769531 C 234.449219 138.988281 233.648438 138.226562 232.832031 137.484375 C 232.011719 136.742188 231.175781 136.023438 230.320312 135.320312 C 229.46875 134.621094 228.597656 133.941406 227.710938 133.285156 C 226.824219 132.625 225.917969 131.988281 225 131.375 C 224.082031 130.761719 223.148438 130.171875 222.203125 129.601562 C 221.253906 129.035156 220.292969 128.492188 219.320312 127.96875 C 218.34375 127.449219 217.359375 126.953125 216.359375 126.480469 C 215.359375 126.007812 214.351562 125.5625 213.332031 125.136719 C 212.308594 124.714844 211.28125 124.316406 210.238281 123.945312 C 209.199219 123.574219 208.152344 123.226562 207.09375 122.90625 C 206.035156 122.585938 204.972656 122.292969 203.902344 122.023438 C 202.828125 121.753906 201.753906 121.511719 200.667969 121.296875 C 199.585938 121.082031 198.496094 120.894531 197.402344 120.730469 C 196.3125 120.570312 195.214844 120.433594 194.117188 120.324219 C 193.015625 120.214844 191.914062 120.136719 190.8125 120.082031 C 189.707031 120.027344 188.605469 120 187.5 120 Z M 187.5 93.75 " fill-opacity="1" fill-rule="nonzero"/></g><g clip-path="url(#id2)"><path fill="#6ce5e8" d="M 202.761719 95 C 204.269531 95.25 205.773438 95.535156 207.269531 95.859375 C 208.765625 96.179688 210.253906 96.539062 211.730469 96.933594 C 213.207031 97.332031 214.675781 97.761719 216.132812 98.230469 C 217.589844 98.695312 219.035156 99.199219 220.46875 99.738281 C 221.898438 100.277344 223.316406 100.847656 224.722656 101.457031 C 226.125 102.0625 227.515625 102.703125 228.886719 103.378906 C 230.261719 104.054688 231.617188 104.765625 232.953125 105.507812 C 234.292969 106.25 235.613281 107.023438 236.914062 107.828125 C 238.210938 108.636719 239.492188 109.472656 240.75 110.34375 C 242.011719 111.210938 243.25 112.109375 244.464844 113.039062 C 245.679688 113.96875 246.871094 114.929688 248.039062 115.917969 C 249.207031 116.90625 250.351562 117.921875 251.46875 118.964844 C 252.585938 120.007812 253.679688 121.082031 254.746094 122.175781 C 255.8125 123.273438 256.851562 124.398438 257.863281 125.546875 C 258.875 126.695312 259.855469 127.867188 260.808594 129.0625 C 261.761719 130.261719 262.6875 131.480469 263.582031 132.722656 C 264.476562 133.964844 265.339844 135.226562 266.171875 136.511719 C 267.003906 137.792969 267.804688 139.097656 268.570312 140.421875 C 269.339844 141.742188 270.074219 143.085938 270.777344 144.445312 C 271.480469 145.804688 272.148438 147.179688 272.785156 148.570312 C 273.421875 149.960938 274.023438 151.371094 274.589844 152.789062 C 275.15625 154.210938 275.6875 155.644531 276.183594 157.09375 C 276.679688 158.542969 277.140625 160 277.5625 161.46875 C 277.988281 162.941406 278.378906 164.417969 278.730469 165.90625 C 279.082031 167.398438 279.398438 168.894531 279.675781 170.398438 C 279.957031 171.902344 280.199219 173.414062 280.402344 174.929688 C 280.609375 176.445312 280.777344 177.964844 280.90625 179.492188 C 281.039062 181.015625 281.132812 182.542969 281.1875 184.070312 C 281.242188 185.601562 281.261719 187.128906 281.242188 188.660156 C 281.222656 190.1875 281.167969 191.71875 281.074219 193.246094 C 280.980469 194.773438 280.847656 196.296875 280.679688 197.816406 C 280.511719 199.339844 280.308594 200.855469 280.0625 202.363281 C 279.820312 203.875 279.542969 205.378906 279.226562 206.875 C 278.910156 208.375 278.558594 209.863281 278.167969 211.339844 C 277.777344 212.820312 277.355469 214.289062 276.890625 215.75 C 276.429688 217.207031 275.933594 218.65625 275.402344 220.089844 C 274.871094 221.523438 274.304688 222.945312 273.703125 224.351562 C 273.101562 225.757812 272.464844 227.152344 271.796875 228.527344 C 271.125 229.902344 270.425781 231.261719 269.6875 232.601562 C 268.953125 233.945312 268.183594 235.265625 267.382812 236.570312 C 266.582031 237.875 265.75 239.15625 264.886719 240.421875 C 264.023438 241.683594 263.128906 242.925781 262.203125 244.144531 C 261.277344 245.363281 260.324219 246.558594 259.34375 247.730469 C 258.359375 248.902344 257.347656 250.050781 256.308594 251.175781 C 255.269531 252.296875 254.203125 253.394531 253.109375 254.464844 C 252.015625 255.535156 250.898438 256.578125 249.753906 257.59375 C 248.609375 258.613281 247.441406 259.597656 246.25 260.558594 C 245.058594 261.515625 243.84375 262.445312 242.605469 263.34375 C 241.367188 264.246094 240.109375 265.113281 238.828125 265.949219 C 237.546875 266.789062 236.246094 267.59375 234.925781 268.367188 C 233.605469 269.144531 232.269531 269.882812 230.914062 270.59375 C 229.558594 271.300781 228.183594 271.976562 226.796875 272.617188 C 225.40625 273.257812 224 273.867188 222.582031 274.4375 C 221.164062 275.011719 219.730469 275.546875 218.285156 276.050781 C 216.839844 276.554688 215.382812 277.019531 213.917969 277.453125 C 212.449219 277.882812 210.972656 278.277344 209.484375 278.636719 C 207.996094 278.996094 206.5 279.316406 204.996094 279.601562 C 203.492188 279.886719 201.984375 280.136719 200.46875 280.347656 C 198.953125 280.558594 197.433594 280.734375 195.910156 280.871094 C 194.386719 281.007812 192.859375 281.109375 191.332031 281.171875 C 189.800781 281.234375 188.273438 281.257812 186.742188 281.246094 C 185.214844 281.234375 183.683594 281.183594 182.15625 281.097656 C 180.628906 281.011719 179.105469 280.886719 177.582031 280.722656 C 176.0625 280.5625 174.542969 280.363281 173.03125 280.128906 C 171.519531 279.890625 170.015625 279.617188 168.519531 279.308594 C 167.019531 279 165.53125 278.652344 164.046875 278.269531 C 162.566406 277.886719 161.09375 277.46875 159.632812 277.011719 C 158.171875 276.558594 156.722656 276.066406 155.289062 275.542969 C 153.851562 275.015625 152.425781 274.457031 151.019531 273.859375 C 149.609375 273.265625 148.214844 272.636719 146.835938 271.972656 C 145.457031 271.308594 144.09375 270.609375 142.75 269.878906 C 141.40625 269.148438 140.082031 268.386719 138.773438 267.59375 C 137.464844 266.796875 136.179688 265.96875 134.914062 265.113281 C 133.644531 264.253906 132.402344 263.363281 131.175781 262.445312 C 129.953125 261.527344 128.753906 260.578125 127.578125 259.601562 C 126.402344 258.621094 125.25 257.617188 124.121094 256.582031 C 122.992188 255.546875 121.890625 254.484375 120.816406 253.398438 C 119.742188 252.308594 118.691406 251.195312 117.671875 250.054688 C 116.652344 248.914062 115.660156 247.75 114.695312 246.5625 C 113.730469 245.375 112.796875 244.164062 111.890625 242.929688 C 110.988281 241.695312 110.113281 240.441406 109.269531 239.164062 C 108.425781 237.886719 107.617188 236.589844 106.835938 235.273438 C 106.054688 233.957031 105.308594 232.621094 104.59375 231.269531 C 103.878906 229.917969 103.199219 228.546875 102.550781 227.160156 C 101.90625 225.773438 101.292969 224.371094 100.714844 222.957031 C 100.132812 221.539062 99.589844 220.109375 99.082031 218.667969 C 98.574219 217.222656 98.101562 215.769531 97.664062 214.300781 C 97.226562 212.835938 96.824219 211.359375 96.460938 209.875 C 96.09375 208.386719 95.765625 206.894531 95.472656 205.390625 C 95.179688 203.890625 94.925781 202.382812 94.707031 200.867188 C 94.488281 199.351562 94.308594 197.835938 94.164062 196.3125 C 94.019531 194.789062 93.914062 193.261719 93.84375 191.734375 C 93.777344 190.203125 93.746094 188.675781 93.75 187.144531 C 93.757812 185.617188 93.800781 184.085938 93.878906 182.558594 C 93.960938 181.03125 94.078125 179.503906 94.234375 177.984375 C 94.390625 176.460938 94.582031 174.945312 94.8125 173.429688 C 94.941406 172.578125 95.152344 171.746094 95.445312 170.9375 C 95.738281 170.125 96.109375 169.351562 96.554688 168.613281 C 97 167.878906 97.511719 167.191406 98.09375 166.554688 C 98.671875 165.917969 99.3125 165.34375 100.003906 164.832031 C 100.699219 164.320312 101.4375 163.882812 102.214844 163.515625 C 102.996094 163.152344 103.804688 162.863281 104.640625 162.65625 C 105.480469 162.453125 106.328125 162.328125 107.1875 162.289062 C 108.050781 162.25 108.90625 162.292969 109.757812 162.425781 C 110.609375 162.554688 111.441406 162.765625 112.25 163.058594 C 113.0625 163.351562 113.835938 163.71875 114.574219 164.164062 C 115.3125 164.609375 116 165.125 116.636719 165.707031 C 117.273438 166.285156 117.84375 166.921875 118.355469 167.617188 C 118.867188 168.3125 119.304688 169.046875 119.671875 169.828125 C 120.039062 170.609375 120.324219 171.417969 120.53125 172.253906 C 120.738281 173.089844 120.859375 173.941406 120.898438 174.800781 C 120.9375 175.660156 120.894531 176.519531 120.765625 177.371094 C 120.597656 178.460938 120.460938 179.550781 120.347656 180.648438 C 120.238281 181.742188 120.152344 182.84375 120.09375 183.941406 C 120.035156 185.042969 120.003906 186.144531 120 187.246094 C 119.996094 188.347656 120.019531 189.449219 120.070312 190.546875 C 120.117188 191.648438 120.195312 192.746094 120.296875 193.84375 C 120.402344 194.941406 120.53125 196.035156 120.691406 197.125 C 120.847656 198.214844 121.03125 199.300781 121.242188 200.382812 C 121.449219 201.464844 121.6875 202.539062 121.949219 203.609375 C 122.214844 204.679688 122.503906 205.742188 122.816406 206.796875 C 123.132812 207.851562 123.472656 208.902344 123.839844 209.941406 C 124.207031 210.980469 124.597656 212.007812 125.011719 213.027344 C 125.429688 214.046875 125.871094 215.058594 126.335938 216.054688 C 126.804688 217.054688 127.292969 218.039062 127.808594 219.015625 C 128.324219 219.988281 128.859375 220.949219 129.421875 221.898438 C 129.984375 222.84375 130.566406 223.777344 131.175781 224.699219 C 131.78125 225.617188 132.410156 226.519531 133.0625 227.410156 C 133.714844 228.296875 134.386719 229.171875 135.082031 230.027344 C 135.773438 230.882812 136.488281 231.71875 137.222656 232.539062 C 137.960938 233.359375 138.714844 234.164062 139.488281 234.945312 C 140.261719 235.730469 141.054688 236.492188 141.867188 237.238281 C 142.679688 237.984375 143.507812 238.707031 144.355469 239.410156 C 145.203125 240.117188 146.066406 240.800781 146.949219 241.460938 C 147.828125 242.121094 148.726562 242.761719 149.636719 243.378906 C 150.550781 244 151.476562 244.59375 152.417969 245.167969 C 153.359375 245.738281 154.3125 246.289062 155.28125 246.8125 C 156.25 247.339844 157.230469 247.839844 158.222656 248.320312 C 159.214844 248.796875 160.21875 249.25 161.234375 249.679688 C 162.246094 250.109375 163.273438 250.511719 164.308594 250.890625 C 165.339844 251.269531 166.386719 251.621094 167.4375 251.949219 C 168.488281 252.277344 169.546875 252.578125 170.613281 252.855469 C 171.679688 253.128906 172.753906 253.378906 173.832031 253.601562 C 174.910156 253.824219 175.996094 254.019531 177.082031 254.191406 C 178.171875 254.363281 179.265625 254.503906 180.359375 254.621094 C 181.457031 254.738281 182.554688 254.828125 183.652344 254.890625 C 184.753906 254.953125 185.851562 254.988281 186.953125 254.996094 C 188.058594 255.007812 189.15625 254.988281 190.257812 254.945312 C 191.359375 254.898438 192.457031 254.828125 193.554688 254.726562 C 194.652344 254.628906 195.746094 254.503906 196.839844 254.351562 C 197.929688 254.199219 199.015625 254.019531 200.097656 253.8125 C 201.179688 253.609375 202.257812 253.375 203.328125 253.117188 C 204.398438 252.859375 205.464844 252.574219 206.519531 252.265625 C 207.578125 251.953125 208.625 251.617188 209.667969 251.257812 C 210.707031 250.894531 211.738281 250.507812 212.757812 250.09375 C 213.78125 249.683594 214.792969 249.246094 215.792969 248.785156 C 216.792969 248.324219 217.78125 247.835938 218.757812 247.328125 C 219.734375 246.816406 220.695312 246.28125 221.648438 245.726562 C 222.597656 245.167969 223.535156 244.585938 224.457031 243.984375 C 225.378906 243.382812 226.285156 242.757812 227.175781 242.109375 C 228.066406 241.460938 228.941406 240.792969 229.800781 240.101562 C 230.660156 239.410156 231.5 238.699219 232.324219 237.96875 C 233.148438 237.238281 233.953125 236.484375 234.738281 235.714844 C 235.527344 234.945312 236.292969 234.152344 237.042969 233.34375 C 237.789062 232.535156 238.519531 231.710938 239.226562 230.867188 C 239.933594 230.023438 240.621094 229.160156 241.285156 228.285156 C 241.953125 227.40625 242.597656 226.511719 243.21875 225.601562 C 243.839844 224.691406 244.4375 223.769531 245.015625 222.832031 C 245.59375 221.890625 246.144531 220.9375 246.675781 219.972656 C 247.207031 219.007812 247.710938 218.03125 248.195312 217.039062 C 248.675781 216.046875 249.132812 215.046875 249.566406 214.035156 C 250 213.019531 250.40625 211.996094 250.789062 210.964844 C 251.171875 209.933594 251.53125 208.890625 251.863281 207.839844 C 252.195312 206.789062 252.5 205.730469 252.78125 204.664062 C 253.0625 203.601562 253.316406 202.527344 253.542969 201.449219 C 253.769531 200.371094 253.972656 199.289062 254.144531 198.203125 C 254.320312 197.113281 254.46875 196.023438 254.589844 194.929688 C 254.710938 193.832031 254.804688 192.734375 254.875 191.636719 C 254.941406 190.535156 254.980469 189.4375 254.996094 188.335938 C 255.007812 187.234375 254.996094 186.132812 254.953125 185.03125 C 254.914062 183.929688 254.847656 182.832031 254.753906 181.734375 C 254.660156 180.636719 254.539062 179.539062 254.390625 178.449219 C 254.242188 177.355469 254.070312 176.269531 253.867188 175.1875 C 253.667969 174.101562 253.4375 173.027344 253.183594 171.953125 C 252.929688 170.882812 252.652344 169.816406 252.347656 168.757812 C 252.039062 167.699219 251.707031 166.648438 251.351562 165.609375 C 250.992188 164.566406 250.609375 163.53125 250.203125 162.507812 C 249.796875 161.484375 249.363281 160.472656 248.90625 159.472656 C 248.449219 158.46875 247.964844 157.476562 247.460938 156.5 C 246.953125 155.519531 246.425781 154.554688 245.871094 153.601562 C 245.316406 152.648438 244.742188 151.710938 244.144531 150.785156 C 243.542969 149.863281 242.921875 148.953125 242.277344 148.058594 C 241.632812 147.164062 240.96875 146.289062 240.28125 145.425781 C 239.597656 144.566406 238.890625 143.71875 238.160156 142.894531 C 237.433594 142.066406 236.683594 141.257812 235.917969 140.46875 C 235.148438 139.675781 234.363281 138.90625 233.558594 138.15625 C 232.753906 137.402344 231.929688 136.671875 231.089844 135.960938 C 230.246094 135.25 229.390625 134.558594 228.515625 133.890625 C 227.640625 133.21875 226.746094 132.570312 225.839844 131.945312 C 224.933594 131.320312 224.011719 130.71875 223.078125 130.136719 C 222.140625 129.554688 221.191406 129 220.226562 128.464844 C 219.265625 127.929688 218.289062 127.421875 217.300781 126.933594 C 216.3125 126.449219 215.3125 125.984375 214.300781 125.546875 C 213.289062 125.109375 212.265625 124.699219 211.234375 124.3125 C 210.203125 123.921875 209.164062 123.5625 208.117188 123.226562 C 207.066406 122.890625 206.011719 122.578125 204.945312 122.292969 C 203.882812 122.007812 202.8125 121.75 201.734375 121.519531 C 200.65625 121.285156 199.574219 121.078125 198.488281 120.902344 C 197.636719 120.761719 196.808594 120.539062 196.003906 120.234375 C 195.195312 119.929688 194.425781 119.550781 193.695312 119.097656 C 192.964844 118.640625 192.28125 118.121094 191.652344 117.53125 C 191.023438 116.941406 190.460938 116.296875 189.957031 115.597656 C 189.457031 114.894531 189.027344 114.152344 188.671875 113.367188 C 188.316406 112.582031 188.039062 111.769531 187.84375 110.933594 C 187.648438 110.09375 187.535156 109.242188 187.507812 108.382812 C 187.480469 107.519531 187.535156 106.664062 187.675781 105.8125 C 187.816406 104.964844 188.039062 104.136719 188.339844 103.328125 C 188.644531 102.523438 189.023438 101.753906 189.476562 101.019531 C 189.933594 100.289062 190.457031 99.609375 191.042969 98.980469 C 191.632812 98.351562 192.277344 97.785156 192.980469 97.28125 C 193.679688 96.78125 194.421875 96.351562 195.207031 95.996094 C 195.992188 95.640625 196.804688 95.363281 197.644531 95.167969 C 198.484375 94.972656 199.332031 94.859375 200.195312 94.832031 C 201.054688 94.804688 201.910156 94.859375 202.761719 95 Z M 202.761719 95 " fill-opacity="1" fill-rule="nonzero"/></g><g fill="#ffffff" fill-opacity="1"><g transform="translate(142.968745, 202.874987)"><g><path d="M 22.8125 -8.546875 C 22.8125 -5.710938 21.910156 -3.503906 20.109375 -1.921875 C 18.316406 -0.347656 15.742188 0.4375 12.390625 0.4375 C 9.109375 0.4375 6.546875 -0.335938 4.703125 -1.890625 C 2.859375 -3.441406 1.9375 -5.644531 1.9375 -8.5 C 1.9375 -10.5 2.503906 -12.175781 3.640625 -13.53125 C 4.785156 -14.894531 6.253906 -15.722656 8.046875 -16.015625 L 8.046875 -16.09375 C 6.378906 -16.488281 5.0625 -17.335938 4.09375 -18.640625 C 3.132812 -19.941406 2.65625 -21.472656 2.65625 -23.234375 C 2.65625 -25.554688 3.523438 -27.441406 5.265625 -28.890625 C 7.015625 -30.347656 9.359375 -31.078125 12.296875 -31.078125 C 15.304688 -31.078125 17.679688 -30.363281 19.421875 -28.9375 C 21.171875 -27.519531 22.046875 -25.601562 22.046875 -23.1875 C 22.046875 -21.4375 21.5625 -19.90625 20.59375 -18.59375 C 19.625 -17.289062 18.300781 -16.472656 16.625 -16.140625 L 16.625 -16.0625 C 18.582031 -15.738281 20.101562 -14.90625 21.1875 -13.5625 C 22.269531 -12.226562 22.8125 -10.554688 22.8125 -8.546875 Z M 17.984375 -22.96875 C 17.984375 -26.425781 16.085938 -28.15625 12.296875 -28.15625 C 10.453125 -28.15625 9.050781 -27.71875 8.09375 -26.84375 C 7.132812 -25.976562 6.65625 -24.6875 6.65625 -22.96875 C 6.65625 -21.21875 7.148438 -19.878906 8.140625 -18.953125 C 9.128906 -18.035156 10.53125 -17.578125 12.34375 -17.578125 C 14.175781 -17.578125 15.570312 -18 16.53125 -18.84375 C 17.5 -19.695312 17.984375 -21.070312 17.984375 -22.96875 Z M 18.75 -8.90625 C 18.75 -10.800781 18.179688 -12.226562 17.046875 -13.1875 C 15.921875 -14.15625 14.335938 -14.640625 12.296875 -14.640625 C 10.316406 -14.640625 8.765625 -14.117188 7.640625 -13.078125 C 6.523438 -12.046875 5.96875 -10.628906 5.96875 -8.828125 C 5.96875 -4.609375 8.117188 -2.5 12.421875 -2.5 C 14.554688 -2.5 16.144531 -3.007812 17.1875 -4.03125 C 18.226562 -5.050781 18.75 -6.675781 18.75 -8.90625 Z M 18.75 -8.90625 "/></g></g></g><g fill="#ffffff" fill-opacity="1"><g transform="translate(167.715356, 202.874987)"><g><path d="M 23.015625 -15.3125 C 23.015625 -10.207031 22.109375 -6.304688 20.296875 -3.609375 C 18.492188 -0.910156 15.832031 0.4375 12.3125 0.4375 C 8.800781 0.4375 6.160156 -0.898438 4.390625 -3.578125 C 2.617188 -6.265625 1.734375 -10.175781 1.734375 -15.3125 C 1.734375 -20.570312 2.59375 -24.515625 4.3125 -27.140625 C 6.03125 -29.765625 8.742188 -31.078125 12.453125 -31.078125 C 16.054688 -31.078125 18.71875 -29.75 20.4375 -27.09375 C 22.15625 -24.445312 23.015625 -20.519531 23.015625 -15.3125 Z M 19.03125 -15.3125 C 19.03125 -19.738281 18.519531 -22.941406 17.5 -24.921875 C 16.476562 -26.910156 14.796875 -27.90625 12.453125 -27.90625 C 10.046875 -27.90625 8.316406 -26.925781 7.265625 -24.96875 C 6.210938 -23.007812 5.6875 -19.789062 5.6875 -15.3125 C 5.6875 -10.96875 6.21875 -7.789062 7.28125 -5.78125 C 8.351562 -3.769531 10.046875 -2.765625 12.359375 -2.765625 C 14.660156 -2.765625 16.347656 -3.789062 17.421875 -5.84375 C 18.492188 -7.90625 19.03125 -11.0625 19.03125 -15.3125 Z M 19.03125 -15.3125 "/></g></g></g><g fill="#ffffff" fill-opacity="1"><g transform="translate(192.461966, 202.874987)"><g><path d="M 37.984375 -9.4375 C 37.984375 -6.320312 37.394531 -3.925781 36.21875 -2.25 C 35.050781 -0.570312 33.320312 0.265625 31.03125 0.265625 C 28.769531 0.265625 27.0625 -0.546875 25.90625 -2.171875 C 24.757812 -3.804688 24.1875 -6.226562 24.1875 -9.4375 C 24.1875 -12.738281 24.738281 -15.195312 25.84375 -16.8125 C 26.957031 -18.425781 28.710938 -19.234375 31.109375 -19.234375 C 33.484375 -19.234375 35.222656 -18.398438 36.328125 -16.734375 C 37.429688 -15.078125 37.984375 -12.644531 37.984375 -9.4375 Z M 11.453125 0 L 8.078125 0 L 28.109375 -30.609375 L 31.53125 -30.609375 Z M 8.5625 -30.875 C 10.863281 -30.875 12.570312 -30.0625 13.6875 -28.4375 C 14.800781 -26.820312 15.359375 -24.40625 15.359375 -21.1875 C 15.359375 -18.039062 14.78125 -15.617188 13.625 -13.921875 C 12.476562 -12.234375 10.757812 -11.390625 8.46875 -11.390625 C 6.1875 -11.390625 4.46875 -12.226562 3.3125 -13.90625 C 2.164062 -15.582031 1.59375 -18.007812 1.59375 -21.1875 C 1.59375 -24.414062 2.148438 -26.835938 3.265625 -28.453125 C 4.378906 -30.066406 6.144531 -30.875 8.5625 -30.875 Z M 34.765625 -9.4375 C 34.765625 -12.019531 34.484375 -13.894531 33.921875 -15.0625 C 33.367188 -16.226562 32.429688 -16.8125 31.109375 -16.8125 C 29.796875 -16.8125 28.84375 -16.238281 28.25 -15.09375 C 27.664062 -13.957031 27.375 -12.070312 27.375 -9.4375 C 27.375 -6.957031 27.660156 -5.117188 28.234375 -3.921875 C 28.804688 -2.722656 29.753906 -2.125 31.078125 -2.125 C 32.347656 -2.125 33.28125 -2.726562 33.875 -3.9375 C 34.46875 -5.15625 34.765625 -6.988281 34.765625 -9.4375 Z M 12.171875 -21.1875 C 12.171875 -23.738281 11.894531 -25.597656 11.34375 -26.765625 C 10.789062 -27.941406 9.863281 -28.53125 8.5625 -28.53125 C 7.195312 -28.53125 6.222656 -27.953125 5.640625 -26.796875 C 5.066406 -25.648438 4.78125 -23.78125 4.78125 -21.1875 C 4.78125 -18.675781 5.066406 -16.820312 5.640625 -15.625 C 6.222656 -14.4375 7.179688 -13.84375 8.515625 -13.84375 C 9.773438 -13.84375 10.695312 -14.445312 11.28125 -15.65625 C 11.875 -16.875 12.171875 -18.71875 12.171875 -21.1875 Z M 12.171875 -21.1875 "/></g></g></g></svg>