<svg xmlns="http://www.w3.org/2000/svg" xmlns:xlink="http://www.w3.org/1999/xlink" width="500" zoomAndPan="magnify" viewBox="0 0 375 374.999991" height="500" preserveAspectRatio="xMidYMid meet" version="1.0"><defs><clipPath id="id1"><path d="M 63.257812 239 L 318 239 L 318 271 L 63.257812 271 Z M 63.257812 239 " clip-rule="nonzero"/></clipPath><clipPath id="id2"><path d="M 63.257812 270 L 318 270 L 318 280.972656 L 63.257812 280.972656 Z M 63.257812 270 " clip-rule="nonzero"/></clipPath><clipPath id="id3"><path d="M 63.257812 270 L 315 270 L 315 280.972656 L 63.257812 280.972656 Z M 63.257812 270 " clip-rule="nonzero"/></clipPath><clipPath id="id4"><path d="M 85 98.722656 L 297 98.722656 L 297 239 L 85 239 Z M 85 98.722656 " clip-rule="nonzero"/></clipPath><clipPath id="id5"><path d="M 85 98.722656 L 294 98.722656 L 294 236 L 85 236 Z M 85 98.722656 " clip-rule="nonzero"/></clipPath></defs><g clip-path="url(#id1)"><path fill="#192c37" d="M 317.726562 270.269531 L 301.183594 246.585938 C 298.636719 242.9375 290.660156 239.984375 283.367188 239.984375 L 98.226562 239.984375 C 90.933594 239.984375 82.957031 242.9375 80.410156 246.585938 L 63.867188 270.269531 L 317.726562 270.269531 " fill-opacity="1" fill-rule="nonzero"/></g><g clip-path="url(#id2)"><path fill="#bbbaba" d="M 63.992188 270.269531 C 63.292969 276.289062 67.652344 280.816406 74.734375 280.816406 L 306.859375 280.816406 C 313.941406 280.816406 318.296875 276.289062 317.597656 270.269531 L 63.992188 270.269531 " fill-opacity="1" fill-rule="nonzero"/></g><g clip-path="url(#id3)"><path fill="#797777" d="M 78.863281 278.269531 C 63.921875 278.269531 63.992188 270.269531 63.992188 270.269531 C 63.292969 276.289062 67.652344 280.816406 74.734375 280.816406 L 306.859375 280.816406 C 310.25 280.816406 312.96875 279.742188 314.828125 277.988281 C 314.828125 277.988281 81.097656 278.269531 78.863281 278.269531 " fill-opacity="1" fill-rule="nonzero"/></g><g clip-path="url(#id4)"><path fill="#192c37" d="M 283 98.863281 L 98.59375 98.863281 C 91.300781 98.863281 85.390625 104.773438 85.390625 112.070312 L 85.390625 224.90625 C 85.390625 232.203125 91.300781 238.117188 98.59375 238.117188 L 283 238.117188 C 290.292969 238.117188 296.203125 232.203125 296.203125 224.90625 L 296.203125 112.070312 C 296.203125 104.773438 290.292969 98.863281 283 98.863281 " fill-opacity="1" fill-rule="nonzero"/></g><g clip-path="url(#id5)"><path fill="#0e191f" d="M 88.566406 228 L 88.566406 115.164062 C 88.566406 107.867188 94.476562 101.953125 101.773438 101.953125 L 286.179688 101.953125 C 288.910156 101.953125 291.445312 102.78125 293.554688 104.207031 C 291.144531 100.980469 287.332031 98.863281 283 98.863281 L 98.59375 98.863281 C 91.300781 98.863281 85.390625 104.773438 85.390625 112.070312 L 85.390625 224.90625 C 85.390625 229.472656 87.703125 233.492188 91.222656 235.867188 C 89.574219 233.664062 88.566406 230.960938 88.566406 228 " fill-opacity="1" fill-rule="nonzero"/></g><path fill="#5cc9d9" d="M 287.445312 224.875 L 94.144531 224.875 L 94.144531 114.390625 L 287.445312 114.390625 L 287.445312 224.875 " fill-opacity="1" fill-rule="nonzero"/><path fill="#4ca5b3" d="M 110.894531 200.050781 C 135.609375 189.863281 161.46875 182.796875 187.71875 177.859375 C 219.941406 171.796875 252.652344 169.9375 285.359375 170.628906 L 285.359375 116.183594 L 96.230469 116.183594 L 96.230469 206.238281 C 101.246094 204.007812 106.222656 201.976562 110.894531 200.050781 " fill-opacity="1" fill-rule="nonzero"/><path fill="#0e191f" d="M 161.21875 238.195312 C 161.21875 239.859375 159.199219 241.210938 156.707031 241.210938 L 123.351562 241.210938 C 120.855469 241.210938 118.835938 239.859375 118.835938 238.195312 C 118.835938 236.53125 120.855469 235.183594 123.351562 235.183594 L 156.707031 235.183594 C 159.199219 235.183594 161.21875 236.53125 161.21875 238.195312 " fill-opacity="1" fill-rule="nonzero"/><path fill="#0e191f" d="M 262.753906 238.195312 C 262.753906 239.859375 260.734375 241.210938 258.238281 241.210938 L 224.886719 241.210938 C 222.390625 241.210938 220.371094 239.859375 220.371094 238.195312 C 220.371094 236.53125 222.390625 235.183594 224.886719 235.183594 L 258.238281 235.183594 C 260.734375 235.183594 262.753906 236.53125 262.753906 238.195312 " fill-opacity="1" fill-rule="nonzero"/><path fill="#172832" d="M 98.515625 249.441406 L 91.804688 249.441406 C 90.820312 249.441406 90.019531 249.023438 90.019531 248.515625 L 90.019531 247.230469 C 90.019531 246.71875 90.820312 246.308594 91.804688 246.308594 L 98.515625 246.308594 C 99.503906 246.308594 100.300781 246.71875 100.300781 247.230469 L 100.300781 248.515625 C 100.300781 249.023438 99.503906 249.441406 98.515625 249.441406 " fill-opacity="1" fill-rule="nonzero"/><path fill="#172832" d="M 114.542969 249.441406 L 107.832031 249.441406 C 106.847656 249.441406 106.046875 249.023438 106.046875 248.515625 L 106.046875 247.230469 C 106.046875 246.71875 106.847656 246.308594 107.832031 246.308594 L 114.542969 246.308594 C 115.535156 246.308594 116.332031 246.71875 116.332031 247.230469 L 116.332031 248.515625 C 116.332031 249.023438 115.535156 249.441406 114.542969 249.441406 " fill-opacity="1" fill-rule="nonzero"/><path fill="#172832" d="M 130.570312 249.441406 L 123.863281 249.441406 C 122.878906 249.441406 122.078125 249.023438 122.078125 248.515625 L 122.078125 247.230469 C 122.078125 246.71875 122.878906 246.308594 123.863281 246.308594 L 130.570312 246.308594 C 131.5625 246.308594 132.363281 246.71875 132.363281 247.230469 L 132.363281 248.515625 C 132.363281 249.023438 131.5625 249.441406 130.570312 249.441406 " fill-opacity="1" fill-rule="nonzero"/><path fill="#172832" d="M 146.601562 249.441406 L 139.894531 249.441406 C 138.90625 249.441406 138.105469 249.023438 138.105469 248.515625 L 138.105469 247.230469 C 138.105469 246.71875 138.90625 246.308594 139.894531 246.308594 L 146.601562 246.308594 C 147.589844 246.308594 148.390625 246.71875 148.390625 247.230469 L 148.390625 248.515625 C 148.390625 249.023438 147.589844 249.441406 146.601562 249.441406 " fill-opacity="1" fill-rule="nonzero"/><path fill="#172832" d="M 162.632812 249.441406 L 155.921875 249.441406 C 154.9375 249.441406 154.136719 249.023438 154.136719 248.515625 L 154.136719 247.230469 C 154.136719 246.71875 154.9375 246.308594 155.921875 246.308594 L 162.632812 246.308594 C 163.617188 246.308594 164.421875 246.71875 164.421875 247.230469 L 164.421875 248.515625 C 164.421875 249.023438 163.617188 249.441406 162.632812 249.441406 " fill-opacity="1" fill-rule="nonzero"/><path fill="#172832" d="M 178.664062 249.441406 L 171.953125 249.441406 C 170.964844 249.441406 170.167969 249.023438 170.167969 248.515625 L 170.167969 247.230469 C 170.167969 246.71875 170.964844 246.308594 171.953125 246.308594 L 178.664062 246.308594 C 179.648438 246.308594 180.449219 246.71875 180.449219 247.230469 L 180.449219 248.515625 C 180.449219 249.023438 179.648438 249.441406 178.664062 249.441406 " fill-opacity="1" fill-rule="nonzero"/><path fill="#172832" d="M 194.691406 249.441406 L 187.980469 249.441406 C 186.996094 249.441406 186.195312 249.023438 186.195312 248.515625 L 186.195312 247.230469 C 186.195312 246.71875 186.996094 246.308594 187.980469 246.308594 L 194.691406 246.308594 C 195.675781 246.308594 196.476562 246.71875 196.476562 247.230469 L 196.476562 248.515625 C 196.476562 249.023438 195.675781 249.441406 194.691406 249.441406 " fill-opacity="1" fill-rule="nonzero"/><path fill="#172832" d="M 210.722656 249.441406 L 204.011719 249.441406 C 203.023438 249.441406 202.222656 249.023438 202.222656 248.515625 L 202.222656 247.230469 C 202.222656 246.71875 203.023438 246.308594 204.011719 246.308594 L 210.722656 246.308594 C 211.707031 246.308594 212.507812 246.71875 212.507812 247.230469 L 212.507812 248.515625 C 212.507812 249.023438 211.707031 249.441406 210.722656 249.441406 " fill-opacity="1" fill-rule="nonzero"/><path fill="#172832" d="M 226.75 249.441406 L 220.042969 249.441406 C 219.054688 249.441406 218.253906 249.023438 218.253906 248.515625 L 218.253906 247.230469 C 218.253906 246.71875 219.054688 246.308594 220.042969 246.308594 L 226.75 246.308594 C 227.738281 246.308594 228.535156 246.71875 228.535156 247.230469 L 228.535156 248.515625 C 228.535156 249.023438 227.738281 249.441406 226.75 249.441406 " fill-opacity="1" fill-rule="nonzero"/><path fill="#172832" d="M 242.78125 249.441406 L 236.070312 249.441406 C 235.085938 249.441406 234.28125 249.023438 234.28125 248.515625 L 234.28125 247.230469 C 234.28125 246.71875 235.085938 246.308594 236.070312 246.308594 L 242.78125 246.308594 C 243.769531 246.308594 244.566406 246.71875 244.566406 247.230469 L 244.566406 248.515625 C 244.566406 249.023438 243.769531 249.441406 242.78125 249.441406 " fill-opacity="1" fill-rule="nonzero"/><path fill="#172832" d="M 258.808594 249.441406 L 252.101562 249.441406 C 251.113281 249.441406 250.3125 249.023438 250.3125 248.515625 L 250.3125 247.230469 C 250.3125 246.71875 251.113281 246.308594 252.101562 246.308594 L 258.808594 246.308594 C 259.796875 246.308594 260.597656 246.71875 260.597656 247.230469 L 260.597656 248.515625 C 260.597656 249.023438 259.796875 249.441406 258.808594 249.441406 " fill-opacity="1" fill-rule="nonzero"/><path fill="#172832" d="M 274.835938 249.441406 L 268.128906 249.441406 C 267.144531 249.441406 266.34375 249.023438 266.34375 248.515625 L 266.34375 247.230469 C 266.34375 246.71875 267.144531 246.308594 268.128906 246.308594 L 274.835938 246.308594 C 275.828125 246.308594 276.628906 246.71875 276.628906 247.230469 L 276.628906 248.515625 C 276.628906 249.023438 275.828125 249.441406 274.835938 249.441406 " fill-opacity="1" fill-rule="nonzero"/><path fill="#172832" d="M 290.867188 249.441406 L 284.160156 249.441406 C 283.171875 249.441406 282.375 249.023438 282.375 248.515625 L 282.375 247.230469 C 282.375 246.71875 283.171875 246.308594 284.160156 246.308594 L 290.867188 246.308594 C 291.855469 246.308594 292.65625 246.71875 292.65625 247.230469 L 292.65625 248.515625 C 292.65625 249.023438 291.855469 249.441406 290.867188 249.441406 " fill-opacity="1" fill-rule="nonzero"/><path fill="#172832" d="M 92.796875 255.355469 L 85.679688 255.355469 C 84.628906 255.355469 83.777344 254.914062 83.777344 254.375 L 83.777344 253.011719 C 83.777344 252.46875 84.628906 252.027344 85.679688 252.027344 L 92.796875 252.027344 C 93.847656 252.027344 94.695312 252.46875 94.695312 253.011719 L 94.695312 254.375 C 94.695312 254.914062 93.847656 255.355469 92.796875 255.355469 " fill-opacity="1" fill-rule="nonzero"/><path fill="#172832" d="M 109.816406 255.355469 L 102.691406 255.355469 C 101.648438 255.355469 100.792969 254.914062 100.792969 254.375 L 100.792969 253.011719 C 100.792969 252.46875 101.648438 252.027344 102.691406 252.027344 L 109.816406 252.027344 C 110.867188 252.027344 111.714844 252.46875 111.714844 253.011719 L 111.714844 254.375 C 111.714844 254.914062 110.867188 255.355469 109.816406 255.355469 " fill-opacity="1" fill-rule="nonzero"/><path fill="#172832" d="M 126.832031 255.355469 L 119.707031 255.355469 C 118.660156 255.355469 117.808594 254.914062 117.808594 254.375 L 117.808594 253.011719 C 117.808594 252.46875 118.660156 252.027344 119.707031 252.027344 L 126.832031 252.027344 C 127.878906 252.027344 128.730469 252.46875 128.730469 253.011719 L 128.730469 254.375 C 128.730469 254.914062 127.878906 255.355469 126.832031 255.355469 " fill-opacity="1" fill-rule="nonzero"/><path fill="#172832" d="M 143.847656 255.355469 L 136.726562 255.355469 C 135.679688 255.355469 134.828125 254.914062 134.828125 254.375 L 134.828125 253.011719 C 134.828125 252.46875 135.679688 252.027344 136.726562 252.027344 L 143.847656 252.027344 C 144.894531 252.027344 145.746094 252.46875 145.746094 253.011719 L 145.746094 254.375 C 145.746094 254.914062 144.894531 255.355469 143.847656 255.355469 " fill-opacity="1" fill-rule="nonzero"/><path fill="#172832" d="M 160.863281 255.355469 L 153.742188 255.355469 C 152.695312 255.355469 151.847656 254.914062 151.847656 254.375 L 151.847656 253.011719 C 151.847656 252.46875 152.695312 252.027344 153.742188 252.027344 L 160.863281 252.027344 C 161.910156 252.027344 162.761719 252.46875 162.761719 253.011719 L 162.761719 254.375 C 162.761719 254.914062 161.910156 255.355469 160.863281 255.355469 " fill-opacity="1" fill-rule="nonzero"/><path fill="#172832" d="M 177.882812 255.355469 L 170.757812 255.355469 C 169.710938 255.355469 168.863281 254.914062 168.863281 254.375 L 168.863281 253.011719 C 168.863281 252.46875 169.710938 252.027344 170.757812 252.027344 L 177.882812 252.027344 C 178.929688 252.027344 179.777344 252.46875 179.777344 253.011719 L 179.777344 254.375 C 179.777344 254.914062 178.929688 255.355469 177.882812 255.355469 " fill-opacity="1" fill-rule="nonzero"/><path fill="#172832" d="M 194.902344 255.355469 L 187.773438 255.355469 C 186.726562 255.355469 185.878906 254.914062 185.878906 254.375 L 185.878906 253.011719 C 185.878906 252.46875 186.726562 252.027344 187.773438 252.027344 L 194.902344 252.027344 C 195.945312 252.027344 196.796875 252.46875 196.796875 253.011719 L 196.796875 254.375 C 196.796875 254.914062 195.945312 255.355469 194.902344 255.355469 " fill-opacity="1" fill-rule="nonzero"/><path fill="#172832" d="M 211.914062 255.355469 L 204.792969 255.355469 C 203.746094 255.355469 202.894531 254.914062 202.894531 254.375 L 202.894531 253.011719 C 202.894531 252.46875 203.746094 252.027344 204.792969 252.027344 L 211.914062 252.027344 C 212.960938 252.027344 213.8125 252.46875 213.8125 253.011719 L 213.8125 254.375 C 213.8125 254.914062 212.960938 255.355469 211.914062 255.355469 " fill-opacity="1" fill-rule="nonzero"/><path fill="#172832" d="M 228.929688 255.355469 L 221.808594 255.355469 C 220.761719 255.355469 219.914062 254.914062 219.914062 254.375 L 219.914062 253.011719 C 219.914062 252.46875 220.761719 252.027344 221.808594 252.027344 L 228.929688 252.027344 C 229.976562 252.027344 230.828125 252.46875 230.828125 253.011719 L 230.828125 254.375 C 230.828125 254.914062 229.976562 255.355469 228.929688 255.355469 " fill-opacity="1" fill-rule="nonzero"/><path fill="#172832" d="M 245.945312 255.355469 L 238.828125 255.355469 C 237.777344 255.355469 236.929688 254.914062 236.929688 254.375 L 236.929688 253.011719 C 236.929688 252.46875 237.777344 252.027344 238.828125 252.027344 L 245.945312 252.027344 C 246.996094 252.027344 247.847656 252.46875 247.847656 253.011719 L 247.847656 254.375 C 247.847656 254.914062 246.996094 255.355469 245.945312 255.355469 " fill-opacity="1" fill-rule="nonzero"/><path fill="#172832" d="M 262.964844 255.355469 L 255.84375 255.355469 C 254.796875 255.355469 253.945312 254.914062 253.945312 254.375 L 253.945312 253.011719 C 253.945312 252.46875 254.796875 252.027344 255.84375 252.027344 L 262.964844 252.027344 C 264.015625 252.027344 264.859375 252.46875 264.859375 253.011719 L 264.859375 254.375 C 264.859375 254.914062 264.015625 255.355469 262.964844 255.355469 " fill-opacity="1" fill-rule="nonzero"/><path fill="#172832" d="M 279.980469 255.355469 L 272.859375 255.355469 C 271.8125 255.355469 270.960938 254.914062 270.960938 254.375 L 270.960938 253.011719 C 270.960938 252.46875 271.8125 252.027344 272.859375 252.027344 L 279.980469 252.027344 C 281.03125 252.027344 281.878906 252.46875 281.878906 253.011719 L 281.878906 254.375 C 281.878906 254.914062 281.03125 255.355469 279.980469 255.355469 " fill-opacity="1" fill-rule="nonzero"/><path fill="#172832" d="M 296.996094 255.355469 L 289.875 255.355469 C 288.828125 255.355469 287.976562 254.914062 287.976562 254.375 L 287.976562 253.011719 C 287.976562 252.46875 288.828125 252.027344 289.875 252.027344 L 296.996094 252.027344 C 298.042969 252.027344 298.894531 252.46875 298.894531 253.011719 L 298.894531 254.375 C 298.894531 254.914062 298.042969 255.355469 296.996094 255.355469 " fill-opacity="1" fill-rule="nonzero"/><path fill="#172832" d="M 86.421875 261.664062 L 78.839844 261.664062 C 77.722656 261.664062 76.820312 261.222656 76.820312 260.679688 L 76.820312 259.316406 C 76.820312 258.777344 77.722656 258.332031 78.839844 258.332031 L 86.421875 258.332031 C 87.535156 258.332031 88.441406 258.777344 88.441406 259.316406 L 88.441406 260.679688 C 88.441406 261.222656 87.535156 261.664062 86.421875 261.664062 " fill-opacity="1" fill-rule="nonzero"/><path fill="#172832" d="M 104.539062 261.664062 L 96.953125 261.664062 C 95.839844 261.664062 94.9375 261.222656 94.9375 260.679688 L 94.9375 259.316406 C 94.9375 258.777344 95.839844 258.332031 96.953125 258.332031 L 104.539062 258.332031 C 105.65625 258.332031 106.558594 258.777344 106.558594 259.316406 L 106.558594 260.679688 C 106.558594 261.222656 105.65625 261.664062 104.539062 261.664062 " fill-opacity="1" fill-rule="nonzero"/><path fill="#172832" d="M 122.652344 261.664062 L 115.074219 261.664062 C 113.960938 261.664062 113.054688 261.222656 113.054688 260.679688 L 113.054688 259.316406 C 113.054688 258.777344 113.960938 258.332031 115.074219 258.332031 L 122.652344 258.332031 C 123.773438 258.332031 124.679688 258.777344 124.679688 259.316406 L 124.679688 260.679688 C 124.679688 261.222656 123.773438 261.664062 122.652344 261.664062 " fill-opacity="1" fill-rule="nonzero"/><path fill="#172832" d="M 140.777344 261.664062 L 133.191406 261.664062 C 132.074219 261.664062 131.171875 261.222656 131.171875 260.679688 L 131.171875 259.316406 C 131.171875 258.777344 132.074219 258.332031 133.191406 258.332031 L 140.777344 258.332031 C 141.890625 258.332031 142.792969 258.777344 142.792969 259.316406 L 142.792969 260.679688 C 142.792969 261.222656 141.890625 261.664062 140.777344 261.664062 " fill-opacity="1" fill-rule="nonzero"/><path fill="#172832" d="M 158.894531 261.664062 L 151.308594 261.664062 C 150.195312 261.664062 149.289062 261.222656 149.289062 260.679688 L 149.289062 259.316406 C 149.289062 258.777344 150.195312 258.332031 151.308594 258.332031 L 158.894531 258.332031 C 160.007812 258.332031 160.914062 258.777344 160.914062 259.316406 L 160.914062 260.679688 C 160.914062 261.222656 160.007812 261.664062 158.894531 261.664062 " fill-opacity="1" fill-rule="nonzero"/><path fill="#172832" d="M 177.011719 261.664062 L 169.429688 261.664062 C 168.3125 261.664062 167.40625 261.222656 167.40625 260.679688 L 167.40625 259.316406 C 167.40625 258.777344 168.3125 258.332031 169.429688 258.332031 L 177.011719 258.332031 C 178.128906 258.332031 179.03125 258.777344 179.03125 259.316406 L 179.03125 260.679688 C 179.03125 261.222656 178.128906 261.664062 177.011719 261.664062 " fill-opacity="1" fill-rule="nonzero"/><path fill="#172832" d="M 195.128906 261.664062 L 187.546875 261.664062 C 186.429688 261.664062 185.523438 261.222656 185.523438 260.679688 L 185.523438 259.316406 C 185.523438 258.777344 186.429688 258.332031 187.546875 258.332031 L 195.128906 258.332031 C 196.242188 258.332031 197.148438 258.777344 197.148438 259.316406 L 197.148438 260.679688 C 197.148438 261.222656 196.242188 261.664062 195.128906 261.664062 " fill-opacity="1" fill-rule="nonzero"/><path fill="#172832" d="M 213.246094 261.664062 L 205.664062 261.664062 C 204.550781 261.664062 203.644531 261.222656 203.644531 260.679688 L 203.644531 259.316406 C 203.644531 258.777344 204.550781 258.332031 205.664062 258.332031 L 213.246094 258.332031 C 214.363281 258.332031 215.265625 258.777344 215.265625 259.316406 L 215.265625 260.679688 C 215.265625 261.222656 214.363281 261.664062 213.246094 261.664062 " fill-opacity="1" fill-rule="nonzero"/><path fill="#172832" d="M 231.363281 261.664062 L 223.78125 261.664062 C 222.667969 261.664062 221.761719 261.222656 221.761719 260.679688 L 221.761719 259.316406 C 221.761719 258.777344 222.667969 258.332031 223.78125 258.332031 L 231.363281 258.332031 C 232.480469 258.332031 233.386719 258.777344 233.386719 259.316406 L 233.386719 260.679688 C 233.386719 261.222656 232.480469 261.664062 231.363281 261.664062 " fill-opacity="1" fill-rule="nonzero"/><path fill="#172832" d="M 249.484375 261.664062 L 241.898438 261.664062 C 240.785156 261.664062 239.878906 261.222656 239.878906 260.679688 L 239.878906 259.316406 C 239.878906 258.777344 240.785156 258.332031 241.898438 258.332031 L 249.484375 258.332031 C 250.597656 258.332031 251.503906 258.777344 251.503906 259.316406 L 251.503906 260.679688 C 251.503906 261.222656 250.597656 261.664062 249.484375 261.664062 " fill-opacity="1" fill-rule="nonzero"/><path fill="#172832" d="M 267.601562 261.664062 L 260.019531 261.664062 C 258.902344 261.664062 257.996094 261.222656 257.996094 260.679688 L 257.996094 259.316406 C 257.996094 258.777344 258.902344 258.332031 260.019531 258.332031 L 267.601562 258.332031 C 268.714844 258.332031 269.621094 258.777344 269.621094 259.316406 L 269.621094 260.679688 C 269.621094 261.222656 268.714844 261.664062 267.601562 261.664062 " fill-opacity="1" fill-rule="nonzero"/><path fill="#172832" d="M 285.71875 261.664062 L 278.136719 261.664062 C 277.019531 261.664062 276.117188 261.222656 276.117188 260.679688 L 276.117188 259.316406 C 276.117188 258.777344 277.019531 258.332031 278.136719 258.332031 L 285.71875 258.332031 C 286.835938 258.332031 287.742188 258.777344 287.742188 259.316406 L 287.742188 260.679688 C 287.742188 261.222656 286.835938 261.664062 285.71875 261.664062 " fill-opacity="1" fill-rule="nonzero"/><path fill="#172832" d="M 303.835938 261.664062 L 296.253906 261.664062 C 295.136719 261.664062 294.234375 261.222656 294.234375 260.679688 L 294.234375 259.316406 C 294.234375 258.777344 295.136719 258.332031 296.253906 258.332031 L 303.835938 258.332031 C 304.953125 258.332031 305.855469 258.777344 305.855469 259.316406 L 305.855469 260.679688 C 305.855469 261.222656 304.953125 261.664062 303.835938 261.664062 " fill-opacity="1" fill-rule="nonzero"/><path fill="#172832" d="M 213.695312 267.609375 L 168.976562 267.609375 C 167.863281 267.609375 166.957031 267.113281 166.957031 266.503906 L 166.957031 264.980469 C 166.957031 264.367188 167.863281 263.871094 168.976562 263.871094 L 213.695312 263.871094 C 214.8125 263.871094 215.714844 264.367188 215.714844 264.980469 L 215.714844 266.503906 C 215.714844 267.113281 214.8125 267.609375 213.695312 267.609375 " fill-opacity="1" fill-rule="nonzero"/><path fill="#d3d2d2" d="M 193.976562 108.175781 C 193.976562 109.929688 192.554688 111.351562 190.796875 111.351562 C 189.039062 111.351562 187.617188 109.929688 187.617188 108.175781 C 187.617188 106.417969 189.039062 104.992188 190.796875 104.992188 C 192.554688 104.992188 193.976562 106.417969 193.976562 108.175781 " fill-opacity="1" fill-rule="nonzero"/><path fill="#bdbcbc" d="M 192.460938 108.175781 C 192.460938 109.09375 191.714844 109.835938 190.796875 109.835938 C 189.878906 109.835938 189.132812 109.09375 189.132812 108.175781 C 189.132812 107.253906 189.878906 106.507812 190.796875 106.507812 C 191.714844 106.507812 192.460938 107.253906 192.460938 108.175781 " fill-opacity="1" fill-rule="nonzero"/><path fill="#2a4c5f" d="M 99.761719 247.972656 C 99.761719 248.484375 98.960938 248.902344 97.972656 248.902344 L 91.265625 248.902344 C 90.277344 248.902344 89.476562 248.484375 89.476562 247.972656 L 89.476562 246.691406 C 89.476562 246.179688 90.277344 245.765625 91.265625 245.765625 L 97.972656 245.765625 C 98.960938 245.765625 99.761719 246.179688 99.761719 246.691406 L 99.761719 247.972656 " fill-opacity="1" fill-rule="nonzero"/><path fill="#2a4c5f" d="M 115.789062 247.972656 C 115.789062 248.484375 114.992188 248.902344 114.003906 248.902344 L 107.292969 248.902344 C 106.308594 248.902344 105.507812 248.484375 105.507812 247.972656 L 105.507812 246.691406 C 105.507812 246.179688 106.308594 245.765625 107.292969 245.765625 L 114.003906 245.765625 C 114.992188 245.765625 115.789062 246.179688 115.789062 246.691406 L 115.789062 247.972656 " fill-opacity="1" fill-rule="nonzero"/><path fill="#2a4c5f" d="M 131.820312 247.972656 C 131.820312 248.484375 131.019531 248.902344 130.03125 248.902344 L 123.324219 248.902344 C 122.339844 248.902344 121.535156 248.484375 121.535156 247.972656 L 121.535156 246.691406 C 121.535156 246.179688 122.339844 245.765625 123.324219 245.765625 L 130.03125 245.765625 C 131.019531 245.765625 131.820312 246.179688 131.820312 246.691406 L 131.820312 247.972656 " fill-opacity="1" fill-rule="nonzero"/><path fill="#2a4c5f" d="M 147.851562 247.972656 C 147.851562 248.484375 147.050781 248.902344 146.0625 248.902344 L 139.351562 248.902344 C 138.367188 248.902344 137.566406 248.484375 137.566406 247.972656 L 137.566406 246.691406 C 137.566406 246.179688 138.367188 245.765625 139.351562 245.765625 L 146.0625 245.765625 C 147.050781 245.765625 147.851562 246.179688 147.851562 246.691406 L 147.851562 247.972656 " fill-opacity="1" fill-rule="nonzero"/><path fill="#2a4c5f" d="M 163.878906 247.972656 C 163.878906 248.484375 163.078125 248.902344 162.089844 248.902344 L 155.378906 248.902344 C 154.394531 248.902344 153.597656 248.484375 153.597656 247.972656 L 153.597656 246.691406 C 153.597656 246.179688 154.394531 245.765625 155.378906 245.765625 L 162.089844 245.765625 C 163.078125 245.765625 163.878906 246.179688 163.878906 246.691406 L 163.878906 247.972656 " fill-opacity="1" fill-rule="nonzero"/><path fill="#2a4c5f" d="M 179.910156 247.972656 C 179.910156 248.484375 179.109375 248.902344 178.121094 248.902344 L 171.410156 248.902344 C 170.425781 248.902344 169.625 248.484375 169.625 247.972656 L 169.625 246.691406 C 169.625 246.179688 170.425781 245.765625 171.410156 245.765625 L 178.121094 245.765625 C 179.109375 245.765625 179.910156 246.179688 179.910156 246.691406 L 179.910156 247.972656 " fill-opacity="1" fill-rule="nonzero"/><path fill="#2a4c5f" d="M 195.9375 247.972656 C 195.9375 248.484375 195.136719 248.902344 194.152344 248.902344 L 187.441406 248.902344 C 186.457031 248.902344 185.65625 248.484375 185.65625 247.972656 L 185.65625 246.691406 C 185.65625 246.179688 186.457031 245.765625 187.441406 245.765625 L 194.152344 245.765625 C 195.136719 245.765625 195.9375 246.179688 195.9375 246.691406 L 195.9375 247.972656 " fill-opacity="1" fill-rule="nonzero"/><path fill="#2a4c5f" d="M 211.964844 247.972656 C 211.964844 248.484375 211.167969 248.902344 210.183594 248.902344 L 203.472656 248.902344 C 202.484375 248.902344 201.683594 248.484375 201.683594 247.972656 L 201.683594 246.691406 C 201.683594 246.179688 202.484375 245.765625 203.472656 245.765625 L 210.183594 245.765625 C 211.167969 245.765625 211.964844 246.179688 211.964844 246.691406 L 211.964844 247.972656 " fill-opacity="1" fill-rule="nonzero"/><path fill="#2a4c5f" d="M 227.996094 247.972656 C 227.996094 248.484375 227.195312 248.902344 226.210938 248.902344 L 219.503906 248.902344 C 218.511719 248.902344 217.710938 248.484375 217.710938 247.972656 L 217.710938 246.691406 C 217.710938 246.179688 218.511719 245.765625 219.503906 245.765625 L 226.210938 245.765625 C 227.195312 245.765625 227.996094 246.179688 227.996094 246.691406 L 227.996094 247.972656 " fill-opacity="1" fill-rule="nonzero"/><path fill="#2a4c5f" d="M 244.027344 247.972656 C 244.027344 248.484375 243.226562 248.902344 242.238281 248.902344 L 235.53125 248.902344 C 234.542969 248.902344 233.742188 248.484375 233.742188 247.972656 L 233.742188 246.691406 C 233.742188 246.179688 234.542969 245.765625 235.53125 245.765625 L 242.238281 245.765625 C 243.226562 245.765625 244.027344 246.179688 244.027344 246.691406 L 244.027344 247.972656 " fill-opacity="1" fill-rule="nonzero"/><path fill="#2a4c5f" d="M 260.054688 247.972656 C 260.054688 248.484375 259.253906 248.902344 258.269531 248.902344 L 251.558594 248.902344 C 250.570312 248.902344 249.773438 248.484375 249.773438 247.972656 L 249.773438 246.691406 C 249.773438 246.179688 250.570312 245.765625 251.558594 245.765625 L 258.269531 245.765625 C 259.253906 245.765625 260.054688 246.179688 260.054688 246.691406 L 260.054688 247.972656 " fill-opacity="1" fill-rule="nonzero"/><path fill="#2a4c5f" d="M 276.085938 247.972656 C 276.085938 248.484375 275.285156 248.902344 274.296875 248.902344 L 267.589844 248.902344 C 266.601562 248.902344 265.800781 248.484375 265.800781 247.972656 L 265.800781 246.691406 C 265.800781 246.179688 266.601562 245.765625 267.589844 245.765625 L 274.296875 245.765625 C 275.285156 245.765625 276.085938 246.179688 276.085938 246.691406 L 276.085938 247.972656 " fill-opacity="1" fill-rule="nonzero"/><path fill="#2a4c5f" d="M 292.117188 247.972656 C 292.117188 248.484375 291.316406 248.902344 290.324219 248.902344 L 283.617188 248.902344 C 282.628906 248.902344 281.832031 248.484375 281.832031 247.972656 L 281.832031 246.691406 C 281.832031 246.179688 282.628906 245.765625 283.617188 245.765625 L 290.324219 245.765625 C 291.316406 245.765625 292.117188 246.179688 292.117188 246.691406 L 292.117188 247.972656 " fill-opacity="1" fill-rule="nonzero"/><path fill="#2a4c5f" d="M 94.15625 253.832031 C 94.15625 254.375 93.304688 254.816406 92.257812 254.816406 L 85.136719 254.816406 C 84.089844 254.816406 83.238281 254.375 83.238281 253.832031 L 83.238281 252.46875 C 83.238281 251.929688 84.089844 251.488281 85.136719 251.488281 L 92.257812 251.488281 C 93.304688 251.488281 94.15625 251.929688 94.15625 252.46875 L 94.15625 253.832031 " fill-opacity="1" fill-rule="nonzero"/><path fill="#2a4c5f" d="M 111.171875 253.832031 C 111.171875 254.375 110.324219 254.816406 109.273438 254.816406 L 102.152344 254.816406 C 101.105469 254.816406 100.253906 254.375 100.253906 253.832031 L 100.253906 252.46875 C 100.253906 251.929688 101.105469 251.488281 102.152344 251.488281 L 109.273438 251.488281 C 110.324219 251.488281 111.171875 251.929688 111.171875 252.46875 L 111.171875 253.832031 " fill-opacity="1" fill-rule="nonzero"/><path fill="#2a4c5f" d="M 128.191406 253.832031 C 128.191406 254.375 127.339844 254.816406 126.289062 254.816406 L 119.164062 254.816406 C 118.121094 254.816406 117.269531 254.375 117.269531 253.832031 L 117.269531 252.46875 C 117.269531 251.929688 118.121094 251.488281 119.164062 251.488281 L 126.289062 251.488281 C 127.339844 251.488281 128.191406 251.929688 128.191406 252.46875 L 128.191406 253.832031 " fill-opacity="1" fill-rule="nonzero"/><path fill="#2a4c5f" d="M 145.207031 253.832031 C 145.207031 254.375 144.355469 254.816406 143.308594 254.816406 L 136.183594 254.816406 C 135.136719 254.816406 134.289062 254.375 134.289062 253.832031 L 134.289062 252.46875 C 134.289062 251.929688 135.136719 251.488281 136.183594 251.488281 L 143.308594 251.488281 C 144.355469 251.488281 145.207031 251.929688 145.207031 252.46875 L 145.207031 253.832031 " fill-opacity="1" fill-rule="nonzero"/><path fill="#2a4c5f" d="M 162.21875 253.832031 C 162.21875 254.375 161.371094 254.816406 160.320312 254.816406 L 153.203125 254.816406 C 152.15625 254.816406 151.304688 254.375 151.304688 253.832031 L 151.304688 252.46875 C 151.304688 251.929688 152.15625 251.488281 153.203125 251.488281 L 160.320312 251.488281 C 161.371094 251.488281 162.21875 251.929688 162.21875 252.46875 L 162.21875 253.832031 " fill-opacity="1" fill-rule="nonzero"/><path fill="#2a4c5f" d="M 179.238281 253.832031 C 179.238281 254.375 178.390625 254.816406 177.339844 254.816406 L 170.21875 254.816406 C 169.171875 254.816406 168.320312 254.375 168.320312 253.832031 L 168.320312 252.46875 C 168.320312 251.929688 169.171875 251.488281 170.21875 251.488281 L 177.339844 251.488281 C 178.390625 251.488281 179.238281 251.929688 179.238281 252.46875 L 179.238281 253.832031 " fill-opacity="1" fill-rule="nonzero"/><path fill="#2a4c5f" d="M 196.257812 253.832031 C 196.257812 254.375 195.40625 254.816406 194.355469 254.816406 L 187.234375 254.816406 C 186.1875 254.816406 185.339844 254.375 185.339844 253.832031 L 185.339844 252.46875 C 185.339844 251.929688 186.1875 251.488281 187.234375 251.488281 L 194.355469 251.488281 C 195.40625 251.488281 196.257812 251.929688 196.257812 252.46875 L 196.257812 253.832031 " fill-opacity="1" fill-rule="nonzero"/><path fill="#2a4c5f" d="M 213.273438 253.832031 C 213.273438 254.375 212.421875 254.816406 211.375 254.816406 L 204.25 254.816406 C 203.203125 254.816406 202.355469 254.375 202.355469 253.832031 L 202.355469 252.46875 C 202.355469 251.929688 203.203125 251.488281 204.25 251.488281 L 211.375 251.488281 C 212.421875 251.488281 213.273438 251.929688 213.273438 252.46875 L 213.273438 253.832031 " fill-opacity="1" fill-rule="nonzero"/><path fill="#2a4c5f" d="M 230.285156 253.832031 C 230.285156 254.375 229.4375 254.816406 228.390625 254.816406 L 221.269531 254.816406 C 220.21875 254.816406 219.371094 254.375 219.371094 253.832031 L 219.371094 252.46875 C 219.371094 251.929688 220.21875 251.488281 221.269531 251.488281 L 228.390625 251.488281 C 229.4375 251.488281 230.285156 251.929688 230.285156 252.46875 L 230.285156 253.832031 " fill-opacity="1" fill-rule="nonzero"/><path fill="#2a4c5f" d="M 247.304688 253.832031 C 247.304688 254.375 246.457031 254.816406 245.40625 254.816406 L 238.285156 254.816406 C 237.238281 254.816406 236.386719 254.375 236.386719 253.832031 L 236.386719 252.46875 C 236.386719 251.929688 237.238281 251.488281 238.285156 251.488281 L 245.40625 251.488281 C 246.457031 251.488281 247.304688 251.929688 247.304688 252.46875 L 247.304688 253.832031 " fill-opacity="1" fill-rule="nonzero"/><path fill="#2a4c5f" d="M 264.320312 253.832031 C 264.320312 254.375 263.472656 254.816406 262.421875 254.816406 L 255.304688 254.816406 C 254.257812 254.816406 253.40625 254.375 253.40625 253.832031 L 253.40625 252.46875 C 253.40625 251.929688 254.257812 251.488281 255.304688 251.488281 L 262.421875 251.488281 C 263.472656 251.488281 264.320312 251.929688 264.320312 252.46875 L 264.320312 253.832031 " fill-opacity="1" fill-rule="nonzero"/><path fill="#2a4c5f" d="M 281.335938 253.832031 C 281.335938 254.375 280.488281 254.816406 279.441406 254.816406 L 272.316406 254.816406 C 271.273438 254.816406 270.421875 254.375 270.421875 253.832031 L 270.421875 252.46875 C 270.421875 251.929688 271.273438 251.488281 272.316406 251.488281 L 279.441406 251.488281 C 280.488281 251.488281 281.335938 251.929688 281.335938 252.46875 L 281.335938 253.832031 " fill-opacity="1" fill-rule="nonzero"/><path fill="#2a4c5f" d="M 298.355469 253.832031 C 298.355469 254.375 297.503906 254.816406 296.457031 254.816406 L 289.332031 254.816406 C 288.285156 254.816406 287.4375 254.375 287.4375 253.832031 L 287.4375 252.46875 C 287.4375 251.929688 288.285156 251.488281 289.332031 251.488281 L 296.457031 251.488281 C 297.503906 251.488281 298.355469 251.929688 298.355469 252.46875 L 298.355469 253.832031 " fill-opacity="1" fill-rule="nonzero"/><path fill="#2a4c5f" d="M 87.902344 260.140625 C 87.902344 260.679688 86.996094 261.121094 85.878906 261.121094 L 78.300781 261.121094 C 77.179688 261.121094 76.277344 260.679688 76.277344 260.140625 L 76.277344 258.777344 C 76.277344 258.234375 77.179688 257.792969 78.300781 257.792969 L 85.878906 257.792969 C 86.996094 257.792969 87.902344 258.234375 87.902344 258.777344 L 87.902344 260.140625 " fill-opacity="1" fill-rule="nonzero"/><path fill="#2a4c5f" d="M 106.019531 260.140625 C 106.019531 260.679688 105.117188 261.121094 104 261.121094 L 96.414062 261.121094 C 95.300781 261.121094 94.394531 260.679688 94.394531 260.140625 L 94.394531 258.777344 C 94.394531 258.234375 95.300781 257.792969 96.414062 257.792969 L 104 257.792969 C 105.117188 257.792969 106.019531 258.234375 106.019531 258.777344 L 106.019531 260.140625 " fill-opacity="1" fill-rule="nonzero"/><path fill="#2a4c5f" d="M 124.140625 260.140625 C 124.140625 260.679688 123.234375 261.121094 122.113281 261.121094 L 114.53125 261.121094 C 113.417969 261.121094 112.515625 260.679688 112.515625 260.140625 L 112.515625 258.777344 C 112.515625 258.234375 113.417969 257.792969 114.53125 257.792969 L 122.113281 257.792969 C 123.234375 257.792969 124.140625 258.234375 124.140625 258.777344 L 124.140625 260.140625 " fill-opacity="1" fill-rule="nonzero"/><path fill="#2a4c5f" d="M 142.253906 260.140625 C 142.253906 260.679688 141.347656 261.121094 140.234375 261.121094 L 132.652344 261.121094 C 131.535156 261.121094 130.628906 260.679688 130.628906 260.140625 L 130.628906 258.777344 C 130.628906 258.234375 131.535156 257.792969 132.652344 257.792969 L 140.234375 257.792969 C 141.347656 257.792969 142.253906 258.234375 142.253906 258.777344 L 142.253906 260.140625 " fill-opacity="1" fill-rule="nonzero"/><path fill="#2a4c5f" d="M 160.371094 260.140625 C 160.371094 260.679688 159.46875 261.121094 158.351562 261.121094 L 150.769531 261.121094 C 149.652344 261.121094 148.75 260.679688 148.75 260.140625 L 148.75 258.777344 C 148.75 258.234375 149.652344 257.792969 150.769531 257.792969 L 158.351562 257.792969 C 159.46875 257.792969 160.371094 258.234375 160.371094 258.777344 L 160.371094 260.140625 " fill-opacity="1" fill-rule="nonzero"/><path fill="#2a4c5f" d="M 178.492188 260.140625 C 178.492188 260.679688 177.589844 261.121094 176.46875 261.121094 L 168.886719 261.121094 C 167.773438 261.121094 166.867188 260.679688 166.867188 260.140625 L 166.867188 258.777344 C 166.867188 258.234375 167.773438 257.792969 168.886719 257.792969 L 176.46875 257.792969 C 177.589844 257.792969 178.492188 258.234375 178.492188 258.777344 L 178.492188 260.140625 " fill-opacity="1" fill-rule="nonzero"/><path fill="#2a4c5f" d="M 196.609375 260.140625 C 196.609375 260.679688 195.703125 261.121094 194.585938 261.121094 L 187.003906 261.121094 C 185.890625 261.121094 184.984375 260.679688 184.984375 260.140625 L 184.984375 258.777344 C 184.984375 258.234375 185.890625 257.792969 187.003906 257.792969 L 194.585938 257.792969 C 195.703125 257.792969 196.609375 258.234375 196.609375 258.777344 L 196.609375 260.140625 " fill-opacity="1" fill-rule="nonzero"/><path fill="#2a4c5f" d="M 214.726562 260.140625 C 214.726562 260.679688 213.820312 261.121094 212.707031 261.121094 L 205.125 261.121094 C 204.007812 261.121094 203.101562 260.679688 203.101562 260.140625 L 203.101562 258.777344 C 203.101562 258.234375 204.007812 257.792969 205.125 257.792969 L 212.707031 257.792969 C 213.820312 257.792969 214.726562 258.234375 214.726562 258.777344 L 214.726562 260.140625 " fill-opacity="1" fill-rule="nonzero"/><path fill="#2a4c5f" d="M 232.84375 260.140625 C 232.84375 260.679688 231.941406 261.121094 230.824219 261.121094 L 223.238281 261.121094 C 222.125 261.121094 221.222656 260.679688 221.222656 260.140625 L 221.222656 258.777344 C 221.222656 258.234375 222.125 257.792969 223.238281 257.792969 L 230.824219 257.792969 C 231.941406 257.792969 232.84375 258.234375 232.84375 258.777344 L 232.84375 260.140625 " fill-opacity="1" fill-rule="nonzero"/><path fill="#2a4c5f" d="M 250.960938 260.140625 C 250.960938 260.679688 250.058594 261.121094 248.941406 261.121094 L 241.355469 261.121094 C 240.242188 261.121094 239.339844 260.679688 239.339844 260.140625 L 239.339844 258.777344 C 239.339844 258.234375 240.242188 257.792969 241.355469 257.792969 L 248.941406 257.792969 C 250.058594 257.792969 250.960938 258.234375 250.960938 258.777344 L 250.960938 260.140625 " fill-opacity="1" fill-rule="nonzero"/><path fill="#2a4c5f" d="M 269.078125 260.140625 C 269.078125 260.679688 268.175781 261.121094 267.058594 261.121094 L 259.480469 261.121094 C 258.359375 261.121094 257.457031 260.679688 257.457031 260.140625 L 257.457031 258.777344 C 257.457031 258.234375 258.359375 257.792969 259.480469 257.792969 L 267.058594 257.792969 C 268.175781 257.792969 269.078125 258.234375 269.078125 258.777344 L 269.078125 260.140625 " fill-opacity="1" fill-rule="nonzero"/><path fill="#2a4c5f" d="M 287.199219 260.140625 C 287.199219 260.679688 286.296875 261.121094 285.175781 261.121094 L 277.59375 261.121094 C 276.480469 261.121094 275.574219 260.679688 275.574219 260.140625 L 275.574219 258.777344 C 275.574219 258.234375 276.480469 257.792969 277.59375 257.792969 L 285.175781 257.792969 C 286.296875 257.792969 287.199219 258.234375 287.199219 258.777344 L 287.199219 260.140625 " fill-opacity="1" fill-rule="nonzero"/><path fill="#2a4c5f" d="M 305.316406 260.140625 C 305.316406 260.679688 304.414062 261.121094 303.292969 261.121094 L 295.714844 261.121094 C 294.597656 261.121094 293.695312 260.679688 293.695312 260.140625 L 293.695312 258.777344 C 293.695312 258.234375 294.597656 257.792969 295.714844 257.792969 L 303.292969 257.792969 C 304.414062 257.792969 305.316406 258.234375 305.316406 258.777344 L 305.316406 260.140625 " fill-opacity="1" fill-rule="nonzero"/><path fill="#2a4c5f" d="M 215.175781 265.960938 C 215.175781 266.574219 214.269531 267.066406 213.15625 267.066406 L 168.4375 267.066406 C 167.324219 267.066406 166.417969 266.574219 166.417969 265.960938 L 166.417969 264.4375 C 166.417969 263.828125 167.324219 263.332031 168.4375 263.332031 L 213.15625 263.332031 C 214.269531 263.332031 215.175781 263.828125 215.175781 264.4375 L 215.175781 265.960938 " fill-opacity="1" fill-rule="nonzero"/></svg>