<svg xmlns="http://www.w3.org/2000/svg" xmlns:xlink="http://www.w3.org/1999/xlink" width="500" zoomAndPan="magnify" viewBox="0 0 375 374.999991" height="500" preserveAspectRatio="xMidYMid meet" version="1.0"><defs><clipPath id="id1"><path d="M 139 112.5 L 236 112.5 L 236 238 L 139 238 Z M 139 112.5 " clip-rule="nonzero"/></clipPath></defs><path fill="#c1c1bf" d="M 220.003906 226.519531 C 216.410156 226.210938 213.589844 223.566406 213.332031 218.316406 C 214.15625 204.371094 214.980469 189.9375 205.210938 180.625 C 203.691406 169.035156 198.28125 164.777344 195.734375 157.335938 L 191.71875 154.492188 L 196.523438 147.066406 L 198.574219 147.121094 L 218.628906 187.179688 L 222.828125 207.375 Z M 220.003906 226.519531 " fill-opacity="1" fill-rule="nonzero"/><path fill="#c1c1bf" d="M 170.839844 154.113281 C 170.234375 158.023438 169.902344 161.863281 170.472656 165.578125 C 166.292969 171.191406 163.121094 176.859375 162.753906 182.691406 C 159.582031 191.042969 152.046875 198.105469 153.351562 214.585938 C 157.585938 218.949219 163.503906 223.007812 168.582031 227.226562 C 174.960938 232.496094 171.167969 239.453125 162.1875 237.804688 C 160.1875 235.632812 155.660156 222.011719 147.082031 213.625 L 148.765625 202.632812 L 156.871094 181.207031 L 166.953125 165.269531 L 168.070312 158.386719 L 166.660156 140.800781 L 167.832031 134.371094 L 170.839844 154.109375 Z M 170.839844 154.113281 " fill-opacity="1" fill-rule="nonzero"/><path fill="#ffffff" d="M 168.621094 154.003906 C 163.421875 173.789062 151.988281 191.511719 149.632812 201.402344 C 147.277344 211.292969 150.222656 229.914062 156.109375 239.804688 C 162 249.695312 192.621094 253.765625 199.691406 247.949219 C 206.757812 242.132812 235.613281 195.585938 222.65625 185.695312 C 209.703125 175.804688 213.234375 144.964844 202.046875 145.546875 C 190.855469 146.128906 169.210938 155.75 168.621094 154.003906 Z M 168.621094 154.003906 " fill-opacity="1" fill-rule="evenodd"/><path fill="#c1c1bf" d="M 165.597656 129.390625 C 165.835938 128.121094 166.144531 126.925781 166.53125 125.804688 L 167.136719 129.734375 Z M 165.597656 129.390625 " fill-opacity="1" fill-rule="nonzero"/><path fill="#c1c1bf" d="M 166.953125 169.394531 C 163.746094 175.261719 162.628906 180.914062 169.996094 181.910156 C 165.945312 182.832031 160.902344 186.546875 155.808594 192.792969 L 155.917969 180.097656 L 161.984375 170.101562 Z M 166.953125 169.394531 " fill-opacity="1" fill-rule="nonzero"/><path fill="#c1c1bf" d="M 127.6875 249.394531 C 138.832031 254.339844 146.695312 254.070312 153.789062 257.5625 C 159.398438 260.480469 165.066406 260.136719 168.472656 256.605469 C 171.371094 252.910156 173.515625 252.726562 177.785156 252.347656 C 184.769531 251.929688 191.589844 251.859375 197.75 252.492188 L 204.789062 253.054688 C 204.660156 260.859375 219.675781 261.820312 224.09375 255.898438 C 229.425781 249.632812 236.757812 246.824219 243.046875 242.277344 L 209.8125 226.015625 C 201.285156 246.371094 169.515625 251.695312 165.117188 235.503906 Z M 127.6875 249.394531 " fill-opacity="1" fill-rule="nonzero"/><path fill="#000000" d="M 126.640625 250.082031 C 137.972656 255.027344 145.980469 254.738281 153.203125 258.25 C 158.90625 261.148438 164.660156 260.824219 168.144531 257.273438 C 171.097656 253.597656 173.277344 253.414062 177.621094 253.035156 C 184.71875 252.601562 191.664062 252.546875 197.933594 253.160156 L 205.082031 253.742188 C 204.953125 261.546875 220.242188 262.488281 224.734375 256.566406 C 230.160156 250.300781 237.621094 247.511719 244.019531 242.945312 L 210.195312 226.703125 C 201.527344 247.039062 169.207031 252.363281 164.734375 236.191406 Z M 126.640625 250.082031 " fill-opacity="1" fill-rule="nonzero"/><path fill="#b7bd00" d="M 233.492188 217.570312 C 238.921875 219.328125 235.417969 224.6875 238.1875 227.769531 C 239.378906 230.375 241.890625 232.675781 246.085938 234.8125 C 253.109375 238.308594 244.675781 244.574219 236.152344 247.78125 C 225.757812 251.1875 223.742188 260.566406 212.359375 257.796875 C 208.234375 256.4375 207.023438 252.742188 207.152344 247.039062 C 208.527344 235.375 206.875 227.242188 207.132812 219.292969 C 207.113281 216.105469 208.34375 215.722656 214.375 216.558594 C 215.089844 226.210938 225.867188 226.464844 233.496094 217.570312 Z M 233.492188 217.570312 " fill-opacity="1" fill-rule="nonzero"/><path fill="#f2dc00" d="M 222.625 251.441406 C 230.761719 248.34375 238.976562 244.269531 245.59375 240.25 C 247.628906 239.070312 247.902344 236.171875 245.042969 235.269531 C 238.847656 231.789062 235.472656 227.445312 236.191406 221.792969 C 236.300781 219.820312 233.84375 217.71875 233.183594 219.601562 C 227.773438 237.566406 210.324219 236.609375 212.726562 218.824219 C 212.851562 218.296875 212.980469 217.773438 213.109375 217.265625 C 209.976562 216.632812 208.765625 217.320312 208.910156 219.691406 L 211.332031 246.40625 C 211.9375 252.492188 216.941406 253.832031 222.625 251.441406 Z M 222.625 251.441406 " fill-opacity="1" fill-rule="nonzero"/><g clip-path="url(#id1)"><path fill="#000000" d="M 226.402344 178.726562 C 232.6875 186.839844 239.121094 207.285156 234.027344 217.464844 C 228.050781 229.09375 214.523438 230.46875 213.9375 218.535156 C 214.777344 204.40625 215.585938 189.792969 205.832031 180.375 C 204.3125 168.621094 198.886719 164.308594 196.335938 156.773438 L 187.867188 150.6875 L 170.160156 152.953125 C 169.445312 157.246094 169.023438 161.429688 169.644531 165.484375 C 165.449219 171.136719 162.277344 176.839844 161.910156 182.691406 C 158.738281 191.078125 151.203125 198.195312 152.507812 214.75 C 156.742188 219.148438 162.664062 223.226562 167.742188 227.460938 C 174.121094 232.769531 170.65625 238.78125 161.671875 237.117188 C 156.226562 231.175781 150.601562 225.34375 145.136719 219.421875 C 139.308594 215.328125 137.144531 210.074219 143.121094 202.105469 C 147.210938 196.710938 148.363281 184.992188 151.9375 180.265625 C 155.074219 175.609375 159.636719 171.445312 162.957031 166.789062 C 164.714844 163.730469 165.265625 161.375 164.992188 157.824219 L 164.238281 136.363281 C 163.746094 120.785156 172.414062 112.492188 184.476562 112.746094 C 198.152344 112.871094 209.371094 122.109375 209.519531 138.664062 C 210.671875 146.722656 208.273438 151.339844 214.742188 162.859375 C 221.324219 174.992188 222.351562 174.339844 226.402344 178.726562 Z M 226.402344 178.726562 " fill-opacity="1" fill-rule="nonzero"/></g><path fill="#c1c1bf" d="M 202.679688 170.191406 L 203.25 172.347656 C 201.761719 169.703125 199.984375 165.15625 197.75 163.164062 C 197.070312 162.621094 196.191406 162.640625 195.660156 163.148438 C 192.6875 165.992188 185.320312 171.824219 179.417969 171.0625 C 174.871094 170.609375 170.433594 167.585938 169.460938 164.304688 C 168.949219 161.953125 169.1875 160.015625 169.5 158.039062 L 197.4375 157.585938 C 196.867188 160.015625 200.589844 166.007812 202.679688 170.191406 Z M 202.679688 170.191406 " fill-opacity="1" fill-rule="nonzero"/><path fill="#c1c1bf" d="M 172.597656 134.875 C 175.382812 134.875 177.878906 138.296875 177.859375 143.023438 C 177.839844 146.195312 175.75 147.007812 174.171875 148.402344 C 173.476562 149.035156 173.3125 152.460938 172.449219 152.460938 C 169.683594 152.460938 167.59375 147.589844 167.59375 143.023438 C 167.59375 138.476562 169.828125 134.875 172.597656 134.875 Z M 172.597656 134.875 " fill-opacity="1" fill-rule="nonzero"/><path fill="#ffffff" d="M 172.910156 137.847656 C 175.386719 137.847656 177.109375 139.078125 177.308594 141.941406 C 177.457031 143.914062 176.925781 147.082031 175.53125 147.753906 C 174.890625 148.0625 172.671875 150.832031 171.902344 150.796875 C 168.769531 150.652344 167.980469 144.65625 168.21875 141.792969 C 168.4375 138.933594 170.453125 137.847656 172.910156 137.847656 Z M 172.910156 137.847656 " fill-opacity="1" fill-rule="nonzero"/><path fill="#000000" d="M 172.269531 139.765625 C 173.972656 139.621094 175.550781 141.539062 175.769531 144.039062 C 175.992188 146.539062 174.761719 148.710938 173.058594 148.855469 C 171.351562 149 169.777344 147.082031 169.554688 144.5625 C 169.335938 142.066406 170.566406 139.910156 172.269531 139.765625 Z M 172.269531 139.765625 " fill-opacity="1" fill-rule="nonzero"/><path fill="#c1c1bf" d="M 191.386719 134.242188 C 195.402344 134.242188 198.683594 138.445312 198.683594 143.570312 C 198.683594 148.714844 195.402344 152.898438 191.386719 152.898438 C 187.371094 152.898438 184.128906 148.714844 184.128906 143.570312 C 184.128906 138.445312 187.371094 134.242188 191.386719 134.242188 Z M 191.386719 134.242188 " fill-opacity="1" fill-rule="nonzero"/><path fill="#ffffff" d="M 193.386719 137.828125 C 196.15625 138.804688 197.75 140.960938 197.953125 143.261719 C 198.191406 145.90625 197.109375 148.894531 194.78125 150.652344 C 194.121094 151.140625 186.496094 148.167969 186.054688 147.046875 C 185.394531 145.433594 184.992188 142.335938 185.484375 140.507812 C 185.6875 139.785156 186.367188 138.734375 187.375 138.171875 C 188.96875 137.285156 191.316406 137.101562 193.386719 137.828125 Z M 193.386719 137.828125 " fill-opacity="1" fill-rule="nonzero"/><path fill="#000000" d="M 191.367188 139.332031 C 193.585938 139.332031 195.402344 141.433594 195.402344 143.988281 C 195.402344 146.558594 193.585938 148.660156 191.367188 148.660156 C 189.148438 148.660156 187.335938 146.558594 187.335938 143.988281 C 187.335938 141.433594 189.148438 139.332031 191.367188 139.332031 Z M 191.367188 139.332031 " fill-opacity="1" fill-rule="nonzero"/><path fill="#e79a00" d="M 178.152344 145.253906 C 180.039062 144.710938 183.027344 144.890625 185.097656 145.289062 C 187.171875 145.832031 192.6875 148.714844 198.535156 151.847656 C 199.289062 152.226562 199.507812 153.457031 198.535156 153.855469 C 197.03125 153.964844 199.617188 157.625 196.976562 158.929688 C 193.019531 159.941406 186.675781 165.757812 183.539062 166.226562 C 181.796875 166.605469 180.003906 166.660156 178.058594 166.226562 C 171.9375 164.996094 170.324219 158.113281 167.445312 156.71875 C 166.65625 155.902344 167.058594 154.492188 167.316406 154.199219 C 167.628906 152.734375 174.265625 145.6875 178.152344 145.253906 Z M 178.152344 145.253906 " fill-opacity="1" fill-rule="nonzero"/><path fill="#f2de00" d="M 183.359375 145.597656 C 186.675781 145.957031 193.714844 150.140625 197.105469 151.828125 C 197.949219 152.277344 197.894531 153.636719 197.144531 153.855469 C 196.335938 154.308594 196.097656 153.746094 195.457031 153.65625 C 194.429688 153.113281 192.746094 154.417969 191.40625 155.414062 C 183.6875 161.171875 182.148438 160.539062 175.914062 159.886719 C 173.753906 159.359375 172.339844 158.707031 171.71875 158.203125 C 172.175781 155.664062 177.015625 146.046875 178.609375 145.832031 C 179.011719 145.304688 181.964844 145.289062 183.359375 145.597656 Z M 183.359375 145.597656 " fill-opacity="1" fill-rule="nonzero"/><path fill="#b77200" d="M 184.699219 147.152344 L 185.484375 147.496094 C 186.074219 147.824219 185.359375 148.691406 184.714844 148.421875 L 183.5625 148.023438 C 182.882812 147.460938 183.691406 146.664062 184.699219 147.152344 Z M 184.699219 147.152344 " fill-opacity="1" fill-rule="nonzero"/><path fill="#c1c1bf" d="M 209.828125 191.128906 C 209.792969 191.707031 209.574219 191.796875 209.078125 191.253906 C 207.390625 188.355469 196.007812 182.21875 190.472656 181.527344 C 189.425781 181.167969 189.480469 180.695312 190.507812 180.550781 C 194.503906 180.550781 197.585938 178.8125 201.066406 178.8125 C 202.019531 178.847656 202.9375 179.210938 203.46875 179.753906 C 204.769531 180.585938 209.5 187.035156 209.828125 191.128906 Z M 209.828125 191.128906 " fill-opacity="1" fill-rule="nonzero"/><path fill="#b7a400" d="M 149.316406 215.671875 C 155.421875 221.558594 159.417969 230.46875 165.339844 238.527344 C 173.957031 248.78125 167.082031 259.410156 153.074219 256.207031 C 146.054688 253.597656 135.953125 253.886719 127.832031 251.242188 C 122.132812 249.867188 121.929688 247.078125 124.84375 241.625 C 125.871094 238.148438 125.964844 232.496094 125.011719 227.789062 C 124.496094 224.21875 126.164062 222.226562 130.015625 221.8125 C 133.277344 221.773438 137.824219 223.078125 140.296875 216.179688 C 142.148438 212.882812 146.585938 212.792969 149.316406 215.671875 Z M 149.316406 215.671875 " fill-opacity="1" fill-rule="nonzero"/><path fill="#f2ec00" d="M 142.425781 219.347656 C 142.222656 214.800781 146.164062 213.878906 148.804688 216.648438 C 153.515625 222.355469 157.824219 228.65625 161.710938 235.9375 C 167.90625 245.789062 162.789062 255.480469 153.441406 251.804688 C 148.804688 249.230469 137.714844 248.089844 131.738281 247.039062 C 127.742188 246.714844 127.207031 244.140625 128.730469 242.691406 C 130.820312 240.320312 131.039062 234.632812 129.058594 229.777344 C 127.097656 226.773438 130.785156 223.457031 133.679688 224.835938 C 136.355469 226.390625 142.679688 222.878906 142.425781 219.347656 Z M 142.425781 219.347656 " fill-opacity="1" fill-rule="nonzero"/></svg>