<svg xmlns="http://www.w3.org/2000/svg" xmlns:xlink="http://www.w3.org/1999/xlink" width="500" zoomAndPan="magnify" viewBox="0 0 375 374.999991" height="500" preserveAspectRatio="xMidYMid meet" version="1.0"><defs><g/></defs><g fill="#ffffff" fill-opacity="1"><g transform="translate(84.503905, 174.749989)"><g><path d="M 40.191406 -0.769531 L 20.734375 -50.8125 C 20.542969 -51.324219 19.648438 -51.324219 19.457031 -50.8125 L 0.0625 -0.769531 C -0.128906 -0.382812 0.128906 0 0.703125 0 L 9.472656 0 C 9.726562 0 10.046875 -0.128906 10.113281 -0.382812 L 20.09375 -28.925781 L 30.207031 -0.382812 C 30.269531 -0.128906 30.589844 0 30.78125 0 L 39.613281 0 C 40.0625 0 40.382812 -0.382812 40.191406 -0.769531 Z M 40.191406 -0.769531 "/></g></g></g><g fill="#ffffff" fill-opacity="1"><g transform="translate(126.74131, 174.749989)"><g><path d="M 9.792969 -28.992188 L 9.792969 -50.621094 C 9.792969 -50.878906 9.535156 -51.199219 9.085938 -51.199219 L 0.703125 -51.199219 C 0.320312 -51.199219 0 -50.878906 0 -50.621094 L 0 -28.992188 Z M 38.269531 -51.199219 L 29.886719 -51.199219 C 29.503906 -51.199219 29.183594 -50.878906 29.183594 -50.621094 L 29.183594 -19.136719 L 9.792969 -19.136719 L 9.792969 -19.199219 L 0 -19.199219 L 0 -0.574219 C 0 -0.320312 0.320312 0 0.703125 0 L 9.085938 0 C 9.535156 0 9.792969 -0.320312 9.792969 -0.574219 L 9.792969 -9.601562 L 29.183594 -9.601562 L 29.183594 -0.574219 C 29.183594 -0.320312 29.503906 0 29.886719 0 L 38.269531 0 C 38.71875 0 38.972656 -0.320312 38.972656 -0.574219 L 38.972656 -50.621094 C 38.972656 -50.878906 38.71875 -51.199219 38.269531 -51.199219 Z M 38.269531 -51.199219 "/></g></g></g><g fill="#ffffff" fill-opacity="1"><g transform="translate(167.698796, 174.749989)"><g><path d="M 45.820312 -12.351562 L 55.550781 -12.351562 L 55.550781 -50.621094 C 55.550781 -50.878906 55.292969 -51.199219 54.847656 -51.199219 L 46.398438 -51.199219 C 46.140625 -51.199219 45.820312 -51.007812 45.695312 -50.8125 L 28.222656 -13.3125 L 9.855469 -50.8125 C 9.792969 -51.007812 9.40625 -51.199219 9.214844 -51.199219 L 0.640625 -51.199219 C 0.191406 -51.199219 0 -50.878906 0 -50.621094 L 0 -0.574219 C 0 -0.320312 0.191406 0 0.640625 0 L 9.085938 0 C 9.472656 0 9.792969 -0.320312 9.792969 -0.574219 L 9.792969 -29.3125 L 23.679688 -2.433594 C 23.742188 -2.238281 24.128906 -2.046875 24.320312 -2.046875 L 32.191406 -2.046875 C 32.382812 -2.046875 32.703125 -2.238281 32.765625 -2.433594 L 45.820312 -28.605469 Z M 45.820312 -12.351562 "/></g></g></g><g fill="#ffffff" fill-opacity="1"><g transform="translate(226.063214, 174.749989)"><g><path d="M 24.320312 -9.535156 L 9.792969 -9.535156 L 9.792969 -21.054688 L 29.886719 -21.054688 C 30.269531 -21.054688 30.589844 -21.375 30.589844 -21.632812 L 30.589844 -29.757812 C 30.589844 -30.078125 30.269531 -30.335938 29.886719 -30.335938 L 9.792969 -30.335938 L 9.792969 -41.917969 L 24.320312 -41.917969 L 24.320312 -51.199219 L 0.703125 -51.199219 C 0.320312 -51.199219 0 -50.878906 0 -50.621094 L 0 -0.574219 C 0 -0.320312 0.320312 0 0.703125 0 L 24.320312 0 Z M 24.320312 -9.535156 "/></g></g></g><g fill="#ffffff" fill-opacity="1"><g transform="translate(258.189239, 174.749989)"><g><path d="M 10.558594 -32.640625 L 10.558594 -0.574219 C 10.558594 -0.320312 10.816406 0 11.261719 0 L 19.519531 0 C 19.96875 0 20.289062 -0.320312 20.289062 -0.574219 L 20.289062 -32.640625 Z M 0.703125 -42.429688 L 30.078125 -42.429688 C 30.527344 -42.429688 30.78125 -42.6875 30.78125 -43.007812 L 30.78125 -50.621094 C 30.78125 -50.878906 30.527344 -51.199219 30.078125 -51.199219 L 0.703125 -51.199219 C 0.320312 -51.199219 0 -50.878906 0 -50.621094 L 0 -43.007812 C 0 -42.6875 0.320312 -42.429688 0.703125 -42.429688 Z M 0.703125 -42.429688 "/></g></g></g><g fill="#ffffff" fill-opacity="1"><g transform="translate(108.046872, 263.999983)"><g><path d="M 10.558594 -32.640625 L 10.558594 -0.574219 C 10.558594 -0.320312 10.816406 0 11.261719 0 L 19.519531 0 C 19.96875 0 20.289062 -0.320312 20.289062 -0.574219 L 20.289062 -32.640625 Z M 0.703125 -42.429688 L 30.078125 -42.429688 C 30.527344 -42.429688 30.78125 -42.6875 30.78125 -43.007812 L 30.78125 -50.621094 C 30.78125 -50.878906 30.527344 -51.199219 30.078125 -51.199219 L 0.703125 -51.199219 C 0.320312 -51.199219 0 -50.878906 0 -50.621094 L 0 -43.007812 C 0 -42.6875 0.320312 -42.429688 0.703125 -42.429688 Z M 0.703125 -42.429688 "/></g></g></g><g fill="#ffffff" fill-opacity="1"><g transform="translate(140.364894, 263.999983)"><g><path d="M 37.757812 -51.199219 L 29.4375 -51.199219 C 28.992188 -51.199219 28.734375 -50.878906 28.734375 -50.621094 L 28.734375 -17.085938 C 28.734375 -11.902344 24 -9.40625 19.199219 -9.40625 C 14.464844 -9.40625 10.238281 -12.09375 9.664062 -17.152344 L 9.664062 -41.917969 L 0 -41.917969 L 0 -17.085938 C 0 -6.527344 8.640625 0 19.199219 0 C 30.078125 0 38.398438 -6.273438 38.398438 -17.085938 L 38.398438 -50.621094 C 38.398438 -50.878906 38.078125 -51.199219 37.757812 -51.199219 Z M 37.757812 -51.199219 "/></g></g></g><g fill="#ffffff" fill-opacity="1"><g transform="translate(180.682415, 263.999983)"><g><path d="M 42.367188 -51.199219 L 34.109375 -51.199219 C 33.664062 -51.199219 33.34375 -50.878906 33.34375 -50.621094 L 33.34375 -17.28125 L 9.726562 -51.007812 C 9.664062 -51.132812 9.28125 -51.199219 9.152344 -51.199219 L 0.640625 -51.199219 C 0.320312 -51.199219 0 -50.878906 0 -50.621094 L 0 -12.289062 L 9.792969 -12.289062 L 9.792969 -33.917969 L 33.34375 -0.191406 C 33.40625 -0.0625 33.789062 0 33.917969 0 L 42.367188 0 C 42.8125 0 43.070312 -0.320312 43.070312 -0.574219 L 43.070312 -50.621094 C 43.070312 -50.878906 42.8125 -51.199219 42.367188 -51.199219 Z M 42.367188 -51.199219 "/></g></g></g><g fill="#ffffff" fill-opacity="1"><g transform="translate(225.927636, 263.999983)"><g><path d="M 29.246094 -9.40625 C 23.039062 -9.152344 9.855469 -9.792969 9.855469 -25.597656 C 9.855469 -37.757812 18.109375 -42.429688 29.246094 -41.855469 L 29.246094 -30.527344 L 39.039062 -30.527344 L 39.039062 -50.621094 C 39.039062 -50.878906 38.78125 -51.199219 38.335938 -51.199219 L 30.015625 -51.199219 C 17.472656 -51.199219 0 -48.316406 0 -25.597656 C 0 -3.710938 17.28125 0 30.015625 0 L 38.335938 0 C 38.78125 0 39.039062 -0.320312 39.039062 -0.574219 L 39.039062 -9.40625 Z M 29.246094 -9.40625 "/></g></g></g></svg>