<svg xmlns="http://www.w3.org/2000/svg" xmlns:xlink="http://www.w3.org/1999/xlink" width="500" zoomAndPan="magnify" viewBox="0 0 375 374.999991" height="500" preserveAspectRatio="xMidYMid meet" version="1.0"><defs><g/><clipPath id="id1"><path d="M 93.75 93.75 L 281.25 93.75 L 281.25 281.25 L 93.75 281.25 Z M 93.75 93.75 " clip-rule="nonzero"/></clipPath><clipPath id="id2"><path d="M 102 94 L 281.25 94 L 281.25 281.25 L 102 281.25 Z M 102 94 " clip-rule="nonzero"/></clipPath></defs><g clip-path="url(#id1)"><path fill="#151515" d="M 187.5 93.75 C 189.035156 93.75 190.566406 93.789062 192.101562 93.863281 C 193.632812 93.9375 195.164062 94.050781 196.6875 94.203125 C 198.214844 94.351562 199.738281 94.539062 201.257812 94.765625 C 202.773438 94.988281 204.285156 95.253906 205.789062 95.550781 C 207.292969 95.851562 208.792969 96.1875 210.28125 96.558594 C 211.769531 96.933594 213.246094 97.339844 214.714844 97.785156 C 216.183594 98.230469 217.640625 98.714844 219.082031 99.230469 C 220.527344 99.746094 221.960938 100.300781 223.375 100.886719 C 224.792969 101.472656 226.195312 102.09375 227.582031 102.75 C 228.96875 103.40625 230.339844 104.097656 231.695312 104.820312 C 233.046875 105.542969 234.382812 106.300781 235.695312 107.089844 C 237.011719 107.875 238.308594 108.699219 239.585938 109.550781 C 240.859375 110.402344 242.113281 111.285156 243.347656 112.199219 C 244.578125 113.113281 245.789062 114.058594 246.972656 115.03125 C 248.160156 116.003906 249.320312 117.003906 250.457031 118.035156 C 251.59375 119.066406 252.707031 120.125 253.792969 121.207031 C 254.875 122.292969 255.933594 123.40625 256.964844 124.542969 C 257.996094 125.679688 258.996094 126.839844 259.96875 128.027344 C 260.941406 129.210938 261.886719 130.421875 262.800781 131.652344 C 263.714844 132.886719 264.597656 134.140625 265.449219 135.414062 C 266.300781 136.691406 267.125 137.988281 267.910156 139.304688 C 268.699219 140.617188 269.457031 141.953125 270.179688 143.304688 C 270.902344 144.660156 271.59375 146.03125 272.25 147.417969 C 272.90625 148.804688 273.527344 150.207031 274.113281 151.625 C 274.699219 153.039062 275.253906 154.472656 275.769531 155.917969 C 276.285156 157.359375 276.769531 158.816406 277.214844 160.285156 C 277.660156 161.753906 278.066406 163.230469 278.441406 164.71875 C 278.8125 166.207031 279.148438 167.707031 279.449219 169.210938 C 279.746094 170.714844 280.011719 172.226562 280.234375 173.742188 C 280.460938 175.261719 280.648438 176.785156 280.796875 178.3125 C 280.949219 179.835938 281.0625 181.367188 281.136719 182.898438 C 281.210938 184.433594 281.25 185.964844 281.25 187.5 C 281.25 189.035156 281.210938 190.566406 281.136719 192.101562 C 281.0625 193.632812 280.949219 195.164062 280.796875 196.6875 C 280.648438 198.214844 280.460938 199.738281 280.234375 201.257812 C 280.011719 202.773438 279.746094 204.285156 279.449219 205.789062 C 279.148438 207.292969 278.8125 208.792969 278.441406 210.28125 C 278.066406 211.769531 277.660156 213.246094 277.214844 214.714844 C 276.769531 216.183594 276.285156 217.640625 275.769531 219.082031 C 275.253906 220.527344 274.699219 221.960938 274.113281 223.375 C 273.527344 224.792969 272.90625 226.195312 272.25 227.582031 C 271.59375 228.96875 270.902344 230.339844 270.179688 231.695312 C 269.457031 233.046875 268.699219 234.382812 267.910156 235.695312 C 267.125 237.011719 266.300781 238.308594 265.449219 239.585938 C 264.597656 240.859375 263.714844 242.113281 262.800781 243.347656 C 261.886719 244.578125 260.941406 245.789062 259.96875 246.972656 C 258.996094 248.160156 257.996094 249.320312 256.964844 250.457031 C 255.933594 251.59375 254.875 252.707031 253.792969 253.792969 C 252.707031 254.875 251.59375 255.933594 250.457031 256.964844 C 249.320312 257.996094 248.160156 258.996094 246.972656 259.96875 C 245.789062 260.941406 244.578125 261.886719 243.347656 262.800781 C 242.113281 263.714844 240.859375 264.597656 239.585938 265.449219 C 238.308594 266.300781 237.011719 267.125 235.695312 267.910156 C 234.382812 268.699219 233.046875 269.457031 231.695312 270.179688 C 230.339844 270.902344 228.96875 271.59375 227.582031 272.25 C 226.195312 272.90625 224.792969 273.527344 223.375 274.113281 C 221.960938 274.699219 220.527344 275.253906 219.082031 275.769531 C 217.640625 276.285156 216.183594 276.769531 214.714844 277.214844 C 213.246094 277.660156 211.769531 278.066406 210.28125 278.441406 C 208.792969 278.8125 207.292969 279.148438 205.789062 279.449219 C 204.285156 279.746094 202.773438 280.011719 201.257812 280.234375 C 199.738281 280.460938 198.214844 280.648438 196.6875 280.796875 C 195.164062 280.949219 193.632812 281.0625 192.101562 281.136719 C 190.566406 281.210938 189.035156 281.25 187.5 281.25 C 185.964844 281.25 184.433594 281.210938 182.898438 281.136719 C 181.367188 281.0625 179.835938 280.949219 178.3125 280.796875 C 176.785156 280.648438 175.261719 280.460938 173.742188 280.234375 C 172.226562 280.011719 170.714844 279.746094 169.210938 279.449219 C 167.707031 279.148438 166.207031 278.8125 164.71875 278.441406 C 163.230469 278.066406 161.753906 277.660156 160.285156 277.214844 C 158.816406 276.769531 157.359375 276.285156 155.917969 275.769531 C 154.472656 275.253906 153.039062 274.699219 151.625 274.113281 C 150.207031 273.527344 148.804688 272.90625 147.417969 272.25 C 146.03125 271.59375 144.660156 270.902344 143.304688 270.179688 C 141.953125 269.457031 140.617188 268.699219 139.304688 267.910156 C 137.988281 267.125 136.691406 266.300781 135.414062 265.449219 C 134.140625 264.597656 132.886719 263.714844 131.652344 262.800781 C 130.421875 261.886719 129.210938 260.941406 128.027344 259.96875 C 126.839844 258.996094 125.679688 257.996094 124.542969 256.964844 C 123.40625 255.933594 122.292969 254.875 121.207031 253.792969 C 120.125 252.707031 119.066406 251.59375 118.035156 250.457031 C 117.003906 249.320312 116.003906 248.160156 115.03125 246.972656 C 114.058594 245.789062 113.113281 244.578125 112.199219 243.347656 C 111.285156 242.113281 110.402344 240.859375 109.550781 239.585938 C 108.699219 238.308594 107.875 237.011719 107.089844 235.695312 C 106.300781 234.382812 105.542969 233.046875 104.820312 231.695312 C 104.097656 230.339844 103.40625 228.96875 102.75 227.582031 C 102.09375 226.195312 101.472656 224.792969 100.886719 223.375 C 100.300781 221.960938 99.746094 220.527344 99.230469 219.082031 C 98.714844 217.640625 98.230469 216.183594 97.785156 214.714844 C 97.339844 213.246094 96.933594 211.769531 96.558594 210.28125 C 96.1875 208.792969 95.851562 207.292969 95.550781 205.789062 C 95.253906 204.285156 94.988281 202.773438 94.765625 201.257812 C 94.539062 199.738281 94.351562 198.214844 94.203125 196.6875 C 94.050781 195.164062 93.9375 193.632812 93.863281 192.101562 C 93.789062 190.566406 93.75 189.035156 93.75 187.5 C 93.75 185.964844 93.789062 184.433594 93.863281 182.898438 C 93.9375 181.367188 94.050781 179.835938 94.203125 178.3125 C 94.351562 176.785156 94.539062 175.261719 94.765625 173.742188 C 94.988281 172.226562 95.253906 170.714844 95.550781 169.210938 C 95.851562 167.707031 96.1875 166.207031 96.558594 164.71875 C 96.933594 163.230469 97.339844 161.753906 97.785156 160.285156 C 98.230469 158.816406 98.714844 157.359375 99.230469 155.917969 C 99.746094 154.472656 100.300781 153.039062 100.886719 151.625 C 101.472656 150.207031 102.09375 148.804688 102.75 147.417969 C 103.40625 146.03125 104.097656 144.660156 104.820312 143.304688 C 105.542969 141.953125 106.300781 140.617188 107.089844 139.304688 C 107.875 137.988281 108.699219 136.691406 109.550781 135.414062 C 110.402344 134.140625 111.285156 132.886719 112.199219 131.652344 C 113.113281 130.421875 114.058594 129.210938 115.03125 128.027344 C 116.003906 126.839844 117.003906 125.679688 118.035156 124.542969 C 119.066406 123.40625 120.125 122.292969 121.207031 121.207031 C 122.292969 120.125 123.40625 119.066406 124.542969 118.035156 C 125.679688 117.003906 126.839844 116.003906 128.027344 115.03125 C 129.210938 114.058594 130.421875 113.113281 131.652344 112.199219 C 132.886719 111.285156 134.140625 110.402344 135.414062 109.550781 C 136.691406 108.699219 137.988281 107.875 139.304688 107.089844 C 140.617188 106.300781 141.953125 105.542969 143.304688 104.820312 C 144.660156 104.097656 146.03125 103.40625 147.417969 102.75 C 148.804688 102.09375 150.207031 101.472656 151.625 100.886719 C 153.039062 100.300781 154.472656 99.746094 155.917969 99.230469 C 157.359375 98.714844 158.816406 98.230469 160.285156 97.785156 C 161.753906 97.339844 163.230469 96.933594 164.71875 96.558594 C 166.207031 96.1875 167.707031 95.851562 169.210938 95.550781 C 170.714844 95.253906 172.226562 94.988281 173.742188 94.765625 C 175.261719 94.539062 176.785156 94.351562 178.3125 94.203125 C 179.835938 94.050781 181.367188 93.9375 182.898438 93.863281 C 184.433594 93.789062 185.964844 93.75 187.5 93.75 L 187.5 120 C 186.394531 120 185.292969 120.027344 184.1875 120.082031 C 183.085938 120.136719 181.984375 120.214844 180.882812 120.324219 C 179.785156 120.433594 178.6875 120.570312 177.59375 120.730469 C 176.503906 120.894531 175.414062 121.082031 174.332031 121.296875 C 173.246094 121.511719 172.171875 121.753906 171.097656 122.023438 C 170.027344 122.292969 168.960938 122.585938 167.90625 122.90625 C 166.847656 123.226562 165.800781 123.574219 164.761719 123.945312 C 163.71875 124.316406 162.691406 124.714844 161.667969 125.136719 C 160.648438 125.5625 159.636719 126.007812 158.640625 126.480469 C 157.640625 126.953125 156.65625 127.449219 155.679688 127.96875 C 154.707031 128.492188 153.746094 129.035156 152.796875 129.601562 C 151.851562 130.171875 150.917969 130.761719 150 131.375 C 149.082031 131.988281 148.175781 132.625 147.289062 133.285156 C 146.402344 133.941406 145.53125 134.621094 144.679688 135.320312 C 143.824219 136.023438 142.988281 136.742188 142.167969 137.484375 C 141.351562 138.226562 140.550781 138.988281 139.769531 139.769531 C 138.988281 140.550781 138.226562 141.351562 137.484375 142.167969 C 136.742188 142.988281 136.023438 143.824219 135.320312 144.679688 C 134.621094 145.53125 133.941406 146.402344 133.285156 147.289062 C 132.625 148.175781 131.988281 149.082031 131.375 150 C 130.761719 150.917969 130.171875 151.851562 129.601562 152.796875 C 129.035156 153.746094 128.492188 154.707031 127.96875 155.679688 C 127.449219 156.65625 126.953125 157.640625 126.480469 158.640625 C 126.007812 159.636719 125.5625 160.648438 125.136719 161.667969 C 124.714844 162.691406 124.316406 163.71875 123.945312 164.761719 C 123.574219 165.800781 123.226562 166.847656 122.90625 167.90625 C 122.585938 168.964844 122.292969 170.027344 122.023438 171.097656 C 121.753906 172.171875 121.511719 173.246094 121.296875 174.332031 C 121.082031 175.414062 120.894531 176.503906 120.730469 177.59375 C 120.570312 178.6875 120.433594 179.785156 120.324219 180.882812 C 120.214844 181.984375 120.136719 183.085938 120.082031 184.1875 C 120.027344 185.292969 120 186.394531 120 187.5 C 120 188.605469 120.027344 189.707031 120.082031 190.8125 C 120.136719 191.914062 120.214844 193.015625 120.324219 194.117188 C 120.433594 195.214844 120.570312 196.3125 120.730469 197.402344 C 120.894531 198.496094 121.082031 199.585938 121.296875 200.667969 C 121.511719 201.753906 121.753906 202.828125 122.023438 203.902344 C 122.292969 204.972656 122.585938 206.035156 122.90625 207.09375 C 123.226562 208.152344 123.574219 209.199219 123.945312 210.238281 C 124.316406 211.28125 124.714844 212.308594 125.136719 213.332031 C 125.5625 214.351562 126.007812 215.359375 126.480469 216.359375 C 126.953125 217.359375 127.449219 218.34375 127.96875 219.320312 C 128.492188 220.292969 129.035156 221.253906 129.601562 222.203125 C 130.171875 223.148438 130.761719 224.082031 131.375 225 C 131.988281 225.917969 132.625 226.824219 133.285156 227.710938 C 133.941406 228.597656 134.621094 229.46875 135.320312 230.320312 C 136.023438 231.175781 136.742188 232.011719 137.484375 232.832031 C 138.226562 233.648438 138.988281 234.449219 139.769531 235.230469 C 140.550781 236.011719 141.351562 236.773438 142.167969 237.515625 C 142.988281 238.257812 143.824219 238.976562 144.679688 239.679688 C 145.53125 240.378906 146.402344 241.058594 147.289062 241.714844 C 148.175781 242.375 149.082031 243.011719 150 243.625 C 150.917969 244.238281 151.851562 244.828125 152.796875 245.398438 C 153.746094 245.964844 154.707031 246.507812 155.679688 247.03125 C 156.65625 247.550781 157.640625 248.046875 158.640625 248.519531 C 159.636719 248.992188 160.648438 249.4375 161.667969 249.863281 C 162.691406 250.285156 163.71875 250.683594 164.761719 251.054688 C 165.800781 251.425781 166.847656 251.773438 167.90625 252.09375 C 168.964844 252.414062 170.027344 252.707031 171.097656 252.976562 C 172.171875 253.246094 173.246094 253.488281 174.332031 253.703125 C 175.414062 253.917969 176.503906 254.105469 177.59375 254.269531 C 178.6875 254.429688 179.785156 254.566406 180.882812 254.675781 C 181.984375 254.785156 183.085938 254.863281 184.1875 254.917969 C 185.292969 254.972656 186.394531 255 187.5 255 C 188.605469 255 189.707031 254.972656 190.8125 254.917969 C 191.914062 254.863281 193.015625 254.785156 194.117188 254.675781 C 195.214844 254.566406 196.3125 254.429688 197.402344 254.269531 C 198.496094 254.105469 199.585938 253.917969 200.667969 253.703125 C 201.753906 253.488281 202.828125 253.246094 203.902344 252.976562 C 204.972656 252.707031 206.035156 252.414062 207.09375 252.09375 C 208.152344 251.773438 209.199219 251.425781 210.238281 251.054688 C 211.28125 250.683594 212.308594 250.285156 213.332031 249.863281 C 214.351562 249.4375 215.359375 248.992188 216.359375 248.519531 C 217.359375 248.046875 218.34375 247.550781 219.320312 247.03125 C 220.292969 246.507812 221.253906 245.964844 222.203125 245.398438 C 223.148438 244.828125 224.082031 244.238281 225 243.625 C 225.917969 243.011719 226.824219 242.375 227.710938 241.714844 C 228.597656 241.058594 229.46875 240.378906 230.320312 239.679688 C 231.175781 238.976562 232.011719 238.257812 232.832031 237.515625 C 233.648438 236.773438 234.449219 236.011719 235.230469 235.230469 C 236.011719 234.449219 236.773438 233.648438 237.515625 232.832031 C 238.257812 232.011719 238.976562 231.175781 239.679688 230.320312 C 240.378906 229.46875 241.058594 228.597656 241.714844 227.710938 C 242.375 226.824219 243.011719 225.917969 243.625 225 C 244.238281 224.082031 244.828125 223.148438 245.398438 222.203125 C 245.964844 221.253906 246.507812 220.292969 247.03125 219.320312 C 247.550781 218.34375 248.046875 217.359375 248.519531 216.359375 C 248.992188 215.359375 249.4375 214.351562 249.863281 213.332031 C 250.285156 212.308594 250.683594 211.28125 251.054688 210.238281 C 251.425781 209.199219 251.773438 208.152344 252.09375 207.09375 C 252.414062 206.035156 252.707031 204.972656 252.976562 203.902344 C 253.246094 202.828125 253.488281 201.753906 253.703125 200.667969 C 253.917969 199.585938 254.105469 198.496094 254.269531 197.402344 C 254.429688 196.3125 254.566406 195.214844 254.675781 194.117188 C 254.785156 193.015625 254.863281 191.914062 254.917969 190.8125 C 254.972656 189.707031 255 188.605469 255 187.5 C 255 186.394531 254.972656 185.292969 254.917969 184.1875 C 254.863281 183.085938 254.785156 181.984375 254.675781 180.882812 C 254.566406 179.785156 254.429688 178.6875 254.269531 177.59375 C 254.105469 176.503906 253.917969 175.414062 253.703125 174.332031 C 253.488281 173.246094 253.246094 172.171875 252.976562 171.097656 C 252.707031 170.027344 252.414062 168.960938 252.09375 167.90625 C 251.773438 166.847656 251.425781 165.800781 251.054688 164.761719 C 250.683594 163.71875 250.285156 162.691406 249.863281 161.667969 C 249.4375 160.648438 248.992188 159.636719 248.519531 158.640625 C 248.046875 157.640625 247.550781 156.65625 247.03125 155.679688 C 246.507812 154.707031 245.964844 153.746094 245.398438 152.796875 C 244.828125 151.851562 244.238281 150.917969 243.625 150 C 243.011719 149.082031 242.375 148.175781 241.714844 147.289062 C 241.058594 146.402344 240.378906 145.53125 239.679688 144.679688 C 238.976562 143.824219 238.257812 142.988281 237.515625 142.167969 C 236.773438 141.351562 236.011719 140.550781 235.230469 139.769531 C 234.449219 138.988281 233.648438 138.226562 232.832031 137.484375 C 232.011719 136.742188 231.175781 136.023438 230.320312 135.320312 C 229.46875 134.621094 228.597656 133.941406 227.710938 133.285156 C 226.824219 132.625 225.917969 131.988281 225 131.375 C 224.082031 130.761719 223.148438 130.171875 222.203125 129.601562 C 221.253906 129.035156 220.292969 128.492188 219.320312 127.96875 C 218.34375 127.449219 217.359375 126.953125 216.359375 126.480469 C 215.359375 126.007812 214.351562 125.5625 213.332031 125.136719 C 212.308594 124.714844 211.28125 124.316406 210.238281 123.945312 C 209.199219 123.574219 208.152344 123.226562 207.09375 122.90625 C 206.035156 122.585938 204.972656 122.292969 203.902344 122.023438 C 202.828125 121.753906 201.753906 121.511719 200.667969 121.296875 C 199.585938 121.082031 198.496094 120.894531 197.402344 120.730469 C 196.3125 120.570312 195.214844 120.433594 194.117188 120.324219 C 193.015625 120.214844 191.914062 120.136719 190.8125 120.082031 C 189.707031 120.027344 188.605469 120 187.5 120 Z M 187.5 93.75 " fill-opacity="1" fill-rule="nonzero"/></g><g clip-path="url(#id2)"><path fill="#6ce5e8" d="M 202.761719 95 C 204.722656 95.324219 206.671875 95.710938 208.609375 96.15625 C 210.546875 96.605469 212.46875 97.113281 214.375 97.683594 C 216.28125 98.253906 218.164062 98.882812 220.03125 99.574219 C 221.894531 100.265625 223.734375 101.011719 225.554688 101.820312 C 227.371094 102.628906 229.160156 103.492188 230.921875 104.414062 C 232.6875 105.332031 234.417969 106.308594 236.117188 107.339844 C 237.816406 108.371094 239.484375 109.457031 241.113281 110.59375 C 242.746094 111.730469 244.339844 112.917969 245.894531 114.15625 C 247.449219 115.394531 248.964844 116.683594 250.4375 118.019531 C 251.914062 119.351562 253.34375 120.734375 254.730469 122.160156 C 256.113281 123.585938 257.453125 125.054688 258.746094 126.566406 C 260.039062 128.078125 261.28125 129.628906 262.476562 131.21875 C 263.667969 132.808594 264.8125 134.433594 265.902344 136.097656 C 266.992188 137.761719 268.027344 139.457031 269.011719 141.1875 C 269.992188 142.914062 270.921875 144.671875 271.789062 146.460938 C 272.660156 148.25 273.472656 150.0625 274.230469 151.902344 C 274.984375 153.742188 275.679688 155.605469 276.316406 157.488281 C 276.953125 159.371094 277.527344 161.273438 278.042969 163.195312 C 278.558594 165.113281 279.015625 167.050781 279.40625 169 C 279.800781 170.949219 280.128906 172.910156 280.398438 174.878906 C 280.664062 176.851562 280.867188 178.828125 281.011719 180.808594 C 281.152344 182.792969 281.230469 184.78125 281.246094 186.769531 C 281.261719 188.757812 281.214844 190.742188 281.105469 192.730469 C 280.992188 194.714844 280.820312 196.695312 280.582031 198.667969 C 280.34375 200.644531 280.046875 202.609375 279.683594 204.5625 C 279.320312 206.519531 278.898438 208.460938 278.414062 210.390625 C 277.925781 212.316406 277.382812 214.230469 276.773438 216.121094 C 276.167969 218.015625 275.5 219.886719 274.773438 221.738281 C 274.046875 223.589844 273.261719 225.417969 272.421875 227.21875 C 271.578125 229.019531 270.679688 230.792969 269.722656 232.535156 C 268.769531 234.28125 267.757812 235.992188 266.695312 237.671875 C 265.628906 239.351562 264.515625 240.996094 263.34375 242.605469 C 262.175781 244.214844 260.957031 245.785156 259.6875 247.316406 C 258.421875 248.847656 257.105469 250.335938 255.742188 251.78125 C 254.378906 253.230469 252.96875 254.632812 251.515625 255.992188 C 250.0625 257.347656 248.570312 258.660156 247.03125 259.921875 C 245.496094 261.183594 243.921875 262.398438 242.308594 263.558594 C 240.695312 264.722656 239.046875 265.832031 237.363281 266.890625 C 235.679688 267.949219 233.960938 268.949219 232.214844 269.898438 C 230.46875 270.847656 228.691406 271.738281 226.886719 272.574219 C 225.082031 273.410156 223.253906 274.1875 221.398438 274.90625 C 219.542969 275.625 217.667969 276.285156 215.773438 276.886719 C 213.878906 277.484375 211.964844 278.023438 210.035156 278.5 C 208.105469 278.980469 206.160156 279.394531 204.203125 279.75 C 202.246094 280.105469 200.28125 280.394531 198.304688 280.625 C 196.332031 280.855469 194.351562 281.019531 192.363281 281.125 C 190.378906 281.226562 188.390625 281.265625 186.402344 281.242188 C 184.414062 281.21875 182.429688 281.132812 180.445312 280.984375 C 178.460938 280.835938 176.484375 280.621094 174.515625 280.347656 C 172.546875 280.070312 170.589844 279.734375 168.640625 279.332031 C 166.691406 278.933594 164.761719 278.472656 162.839844 277.949219 C 160.921875 277.425781 159.023438 276.84375 157.140625 276.199219 C 155.261719 275.554688 153.402344 274.851562 151.5625 274.089844 C 149.726562 273.328125 147.917969 272.507812 146.132812 271.628906 C 144.347656 270.753906 142.59375 269.820312 140.867188 268.828125 C 139.144531 267.839844 137.449219 266.796875 135.792969 265.699219 C 134.132812 264.605469 132.511719 263.457031 130.925781 262.253906 C 129.339844 261.054688 127.792969 259.804688 126.289062 258.507812 C 124.78125 257.210938 123.320312 255.863281 121.898438 254.472656 C 120.476562 253.082031 119.101562 251.644531 117.773438 250.167969 C 116.445312 248.6875 115.164062 247.167969 113.929688 245.609375 C 112.699219 244.046875 111.515625 242.449219 110.386719 240.8125 C 109.253906 239.179688 108.175781 237.507812 107.152344 235.804688 C 106.128906 234.101562 105.15625 232.363281 104.242188 230.597656 C 103.847656 229.832031 103.527344 229.035156 103.289062 228.207031 C 103.050781 227.378906 102.894531 226.535156 102.820312 225.679688 C 102.746094 224.820312 102.757812 223.960938 102.851562 223.105469 C 102.949219 222.246094 103.125 221.410156 103.386719 220.585938 C 103.648438 219.765625 103.988281 218.976562 104.402344 218.222656 C 104.820312 217.46875 105.304688 216.761719 105.859375 216.101562 C 106.417969 215.441406 107.03125 214.84375 107.703125 214.304688 C 108.378906 213.765625 109.097656 213.300781 109.863281 212.902344 C 110.628906 212.507812 111.425781 212.1875 112.253906 211.949219 C 113.082031 211.710938 113.925781 211.554688 114.785156 211.480469 C 115.644531 211.410156 116.5 211.417969 117.359375 211.515625 C 118.214844 211.613281 119.054688 211.789062 119.875 212.050781 C 120.695312 212.3125 121.484375 212.652344 122.238281 213.070312 C 122.996094 213.484375 123.699219 213.972656 124.359375 214.527344 C 125.019531 215.082031 125.617188 215.699219 126.15625 216.371094 C 126.691406 217.046875 127.160156 217.765625 127.554688 218.53125 C 128.214844 219.800781 128.910156 221.050781 129.648438 222.277344 C 130.386719 223.507812 131.164062 224.707031 131.976562 225.886719 C 132.792969 227.0625 133.640625 228.214844 134.53125 229.339844 C 135.417969 230.460938 136.339844 231.554688 137.296875 232.621094 C 138.253906 233.683594 139.242188 234.71875 140.265625 235.722656 C 141.289062 236.722656 142.34375 237.691406 143.425781 238.625 C 144.511719 239.5625 145.625 240.460938 146.765625 241.324219 C 147.90625 242.1875 149.074219 243.015625 150.269531 243.804688 C 151.464844 244.59375 152.683594 245.34375 153.925781 246.058594 C 155.167969 246.769531 156.429688 247.441406 157.714844 248.074219 C 159 248.707031 160.304688 249.296875 161.625 249.84375 C 162.949219 250.394531 164.289062 250.898438 165.640625 251.363281 C 166.996094 251.828125 168.363281 252.246094 169.746094 252.625 C 171.128906 253 172.519531 253.332031 173.921875 253.621094 C 175.324219 253.90625 176.734375 254.152344 178.152344 254.347656 C 179.570312 254.546875 180.992188 254.699219 182.421875 254.808594 C 183.847656 254.917969 185.277344 254.980469 186.710938 254.996094 C 188.140625 255.011719 189.570312 254.984375 191.003906 254.910156 C 192.433594 254.835938 193.859375 254.714844 195.28125 254.550781 C 196.703125 254.386719 198.117188 254.175781 199.527344 253.917969 C 200.933594 253.664062 202.335938 253.363281 203.722656 253.019531 C 205.113281 252.675781 206.492188 252.289062 207.855469 251.855469 C 209.222656 251.425781 210.570312 250.949219 211.90625 250.433594 C 213.242188 249.914062 214.558594 249.355469 215.859375 248.753906 C 217.15625 248.152344 218.4375 247.511719 219.695312 246.828125 C 220.953125 246.144531 222.1875 245.421875 223.402344 244.660156 C 224.613281 243.898438 225.800781 243.101562 226.960938 242.261719 C 228.125 241.425781 229.257812 240.554688 230.363281 239.644531 C 231.46875 238.734375 232.546875 237.792969 233.589844 236.8125 C 234.636719 235.835938 235.652344 234.824219 236.632812 233.785156 C 237.613281 232.742188 238.5625 231.667969 239.476562 230.566406 C 240.390625 229.464844 241.265625 228.332031 242.109375 227.175781 C 242.949219 226.015625 243.753906 224.832031 244.519531 223.625 C 245.285156 222.414062 246.011719 221.183594 246.703125 219.925781 C 247.390625 218.671875 248.035156 217.394531 248.644531 216.097656 C 249.25 214.800781 249.8125 213.484375 250.335938 212.152344 C 250.859375 210.820312 251.339844 209.472656 251.777344 208.109375 C 252.214844 206.746094 252.609375 205.367188 252.957031 203.980469 C 253.308594 202.589844 253.613281 201.195312 253.871094 199.785156 C 254.132812 198.378906 254.347656 196.964844 254.519531 195.542969 C 254.691406 194.121094 254.816406 192.695312 254.894531 191.265625 C 254.976562 189.835938 255.007812 188.40625 254.996094 186.972656 C 254.988281 185.542969 254.929688 184.113281 254.828125 182.683594 C 254.726562 181.253906 254.578125 179.832031 254.386719 178.414062 C 254.191406 176.996094 253.957031 175.582031 253.671875 174.179688 C 253.390625 172.777344 253.0625 171.382812 252.691406 170 C 252.320312 168.617188 251.90625 167.246094 251.449219 165.890625 C 250.988281 164.535156 250.488281 163.195312 249.945312 161.871094 C 249.402344 160.546875 248.816406 159.238281 248.1875 157.953125 C 247.5625 156.664062 246.894531 155.398438 246.1875 154.152344 C 245.480469 152.910156 244.734375 151.6875 243.949219 150.492188 C 243.164062 149.292969 242.34375 148.121094 241.484375 146.976562 C 240.625 145.832031 239.726562 144.714844 238.796875 143.628906 C 237.867188 142.539062 236.902344 141.480469 235.90625 140.453125 C 234.90625 139.429688 233.878906 138.433594 232.816406 137.472656 C 231.753906 136.511719 230.664062 135.585938 229.542969 134.695312 C 228.425781 133.800781 227.277344 132.945312 226.101562 132.128906 C 224.929688 131.308594 223.730469 130.527344 222.503906 129.785156 C 221.28125 129.042969 220.035156 128.339844 218.765625 127.675781 C 217.496094 127.015625 216.207031 126.390625 214.898438 125.8125 C 213.589844 125.230469 212.265625 124.691406 210.921875 124.195312 C 209.578125 123.695312 208.222656 123.242188 206.851562 122.832031 C 205.476562 122.421875 204.09375 122.054688 202.699219 121.734375 C 201.304688 121.410156 199.902344 121.132812 198.488281 120.902344 C 197.636719 120.761719 196.808594 120.539062 196.003906 120.234375 C 195.195312 119.929688 194.425781 119.550781 193.695312 119.097656 C 192.964844 118.640625 192.28125 118.121094 191.652344 117.53125 C 191.023438 116.941406 190.460938 116.296875 189.957031 115.597656 C 189.457031 114.894531 189.027344 114.152344 188.671875 113.367188 C 188.316406 112.582031 188.039062 111.769531 187.84375 110.933594 C 187.648438 110.09375 187.535156 109.242188 187.507812 108.382812 C 187.480469 107.519531 187.535156 106.664062 187.675781 105.8125 C 187.816406 104.964844 188.039062 104.136719 188.339844 103.328125 C 188.644531 102.523438 189.023438 101.753906 189.476562 101.019531 C 189.933594 100.289062 190.457031 99.609375 191.042969 98.980469 C 191.632812 98.351562 192.277344 97.785156 192.980469 97.28125 C 193.679688 96.78125 194.421875 96.351562 195.207031 95.996094 C 195.992188 95.640625 196.804688 95.363281 197.644531 95.167969 C 198.484375 94.972656 199.332031 94.859375 200.195312 94.832031 C 201.054688 94.804688 201.910156 94.859375 202.761719 95 Z M 202.761719 95 " fill-opacity="1" fill-rule="nonzero"/></g><g fill="#ffffff" fill-opacity="1"><g transform="translate(142.968745, 202.874987)"><g><path d="M 22.515625 -27.4375 C 19.378906 -22.65625 17.164062 -18.910156 15.875 -16.203125 C 14.59375 -13.492188 13.628906 -10.820312 12.984375 -8.1875 C 12.335938 -5.550781 12.015625 -2.820312 12.015625 0 L 7.9375 0 C 7.9375 -3.90625 8.765625 -8.019531 10.421875 -12.34375 C 12.078125 -16.675781 14.847656 -21.660156 18.734375 -27.296875 L 2.28125 -27.296875 L 2.28125 -30.609375 L 22.515625 -30.609375 Z M 22.515625 -27.4375 "/></g></g></g><g fill="#ffffff" fill-opacity="1"><g transform="translate(167.715356, 202.874987)"><g><path d="M 23.015625 -15.3125 C 23.015625 -10.207031 22.109375 -6.304688 20.296875 -3.609375 C 18.492188 -0.910156 15.832031 0.4375 12.3125 0.4375 C 8.800781 0.4375 6.160156 -0.898438 4.390625 -3.578125 C 2.617188 -6.265625 1.734375 -10.175781 1.734375 -15.3125 C 1.734375 -20.570312 2.59375 -24.515625 4.3125 -27.140625 C 6.03125 -29.765625 8.742188 -31.078125 12.453125 -31.078125 C 16.054688 -31.078125 18.71875 -29.75 20.4375 -27.09375 C 22.15625 -24.445312 23.015625 -20.519531 23.015625 -15.3125 Z M 19.03125 -15.3125 C 19.03125 -19.738281 18.519531 -22.941406 17.5 -24.921875 C 16.476562 -26.910156 14.796875 -27.90625 12.453125 -27.90625 C 10.046875 -27.90625 8.316406 -26.925781 7.265625 -24.96875 C 6.210938 -23.007812 5.6875 -19.789062 5.6875 -15.3125 C 5.6875 -10.96875 6.21875 -7.789062 7.28125 -5.78125 C 8.351562 -3.769531 10.046875 -2.765625 12.359375 -2.765625 C 14.660156 -2.765625 16.347656 -3.789062 17.421875 -5.84375 C 18.492188 -7.90625 19.03125 -11.0625 19.03125 -15.3125 Z M 19.03125 -15.3125 "/></g></g></g><g fill="#ffffff" fill-opacity="1"><g transform="translate(192.461966, 202.874987)"><g><path d="M 37.984375 -9.4375 C 37.984375 -6.320312 37.394531 -3.925781 36.21875 -2.25 C 35.050781 -0.570312 33.320312 0.265625 31.03125 0.265625 C 28.769531 0.265625 27.0625 -0.546875 25.90625 -2.171875 C 24.757812 -3.804688 24.1875 -6.226562 24.1875 -9.4375 C 24.1875 -12.738281 24.738281 -15.195312 25.84375 -16.8125 C 26.957031 -18.425781 28.710938 -19.234375 31.109375 -19.234375 C 33.484375 -19.234375 35.222656 -18.398438 36.328125 -16.734375 C 37.429688 -15.078125 37.984375 -12.644531 37.984375 -9.4375 Z M 11.453125 0 L 8.078125 0 L 28.109375 -30.609375 L 31.53125 -30.609375 Z M 8.5625 -30.875 C 10.863281 -30.875 12.570312 -30.0625 13.6875 -28.4375 C 14.800781 -26.820312 15.359375 -24.40625 15.359375 -21.1875 C 15.359375 -18.039062 14.78125 -15.617188 13.625 -13.921875 C 12.476562 -12.234375 10.757812 -11.390625 8.46875 -11.390625 C 6.1875 -11.390625 4.46875 -12.226562 3.3125 -13.90625 C 2.164062 -15.582031 1.59375 -18.007812 1.59375 -21.1875 C 1.59375 -24.414062 2.148438 -26.835938 3.265625 -28.453125 C 4.378906 -30.066406 6.144531 -30.875 8.5625 -30.875 Z M 34.765625 -9.4375 C 34.765625 -12.019531 34.484375 -13.894531 33.921875 -15.0625 C 33.367188 -16.226562 32.429688 -16.8125 31.109375 -16.8125 C 29.796875 -16.8125 28.84375 -16.238281 28.25 -15.09375 C 27.664062 -13.957031 27.375 -12.070312 27.375 -9.4375 C 27.375 -6.957031 27.660156 -5.117188 28.234375 -3.921875 C 28.804688 -2.722656 29.753906 -2.125 31.078125 -2.125 C 32.347656 -2.125 33.28125 -2.726562 33.875 -3.9375 C 34.46875 -5.15625 34.765625 -6.988281 34.765625 -9.4375 Z M 12.171875 -21.1875 C 12.171875 -23.738281 11.894531 -25.597656 11.34375 -26.765625 C 10.789062 -27.941406 9.863281 -28.53125 8.5625 -28.53125 C 7.195312 -28.53125 6.222656 -27.953125 5.640625 -26.796875 C 5.066406 -25.648438 4.78125 -23.78125 4.78125 -21.1875 C 4.78125 -18.675781 5.066406 -16.820312 5.640625 -15.625 C 6.222656 -14.4375 7.179688 -13.84375 8.515625 -13.84375 C 9.773438 -13.84375 10.695312 -14.445312 11.28125 -15.65625 C 11.875 -16.875 12.171875 -18.71875 12.171875 -21.1875 Z M 12.171875 -21.1875 "/></g></g></g></svg>